<svg width="290" height="9" fill="none" xmlns="http://www.w3.org/2000/svg"><path d="M22.882 6.47C16.452 9.19 6.774 9.045 0 7.305c.756.09 1.512.09 2.295.09.782 0 1.539-.09 2.295-.09A31.483 31.483 0 0022.67 0a31.482 31.482 0 0018.08 7.305c.756.09 1.526.09 2.295.09.77 0 1.539-.09 2.295-.09A31.62 31.62 0 0058.14 3.6 31.634 31.634 0 0063.448 0a31.335 31.335 0 0018.08 7.305c.756.09 1.512.09 2.295.09.782 0 1.538-.09 2.308-.09A31.482 31.482 0 00104.21 0a31.47 31.47 0 0018.093 7.305c.757.09 1.526.09 2.295.09.77 0 1.539-.09 2.295-.09A31.62 31.62 0 00139.694 3.6 31.613 31.613 0 00145 0a31.48 31.48 0 0018.08 7.305c.77.09 1.512.09 2.295.09.783 0 1.539-.09 2.308-.09A31.48 31.48 0 00185.763 0a31.695 31.695 0 005.306 3.6 31.625 31.625 0 0012.801 3.705c.756.09 1.526.09 2.295.09.769 0 1.539-.09 2.295-.09A31.466 31.466 0 00226.553 0a31.486 31.486 0 0018.081 7.305c.769.09 1.538.09 2.308.09.769 0 1.538-.09 2.295-.09A31.565 31.565 0 00262.024 3.6 30.515 30.515 0 00267.33 0c5.675 4.78 12.903 7.403 20.375 7.396.769 0 1.539-.091 2.295-.091a31.974 31.974 0 01-22.67-.835 31.894 31.894 0 01-20.362 1.513 31.934 31.934 0 01-20.375-1.513 31.933 31.933 0 01-20.375 1.513 31.933 31.933 0 01-20.375-1.513 31.934 31.934 0 01-20.282 1.513 31.894 31.894 0 01-20.362-1.513 31.934 31.934 0 01-20.375 1.513 31.935 31.935 0 01-20.455-1.513 31.933 31.933 0 01-20.375 1.513A31.893 31.893 0 0163.632 6.47a31.934 31.934 0 01-20.375 1.513A31.934 31.934 0 0122.882 6.47z" fill="#042454"/></svg>