<svg width="161" height="44" viewBox="0 0 161 44" fill="none" xmlns="http://www.w3.org/2000/svg">
<path d="M31.0794 43.5174C28.8876 43.2897 26.6801 43.1797 24.6768 42.2059C24.1142 41.9295 23.5868 41.5867 23.1056 41.185L24.8889 37.9258H25.9809V35.0671H21.4873C21.7777 34.5227 22.1954 34.0566 22.705 33.7085L22.9642 33.5436C23.3835 33.3365 23.7573 33.0482 24.0641 32.6954C24.131 32.6143 24.1797 32.5196 24.2067 32.4179C24.2337 32.3163 24.2384 32.21 24.2205 32.1063C24.2025 32.0027 24.1625 31.9041 24.1029 31.8174C24.0434 31.7306 23.9658 31.6578 23.8755 31.6038L23.6163 31.4389C23.0845 31.1442 22.5204 30.9123 21.9351 30.7478L21.6052 30.6535C21.2124 30.5593 20.8196 30.4886 20.4111 30.4336L18.1329 9.40213H19.2248V7.43877H16.3103V5.45186C16.7455 4.99485 17.0329 4.41742 17.1352 3.79478H17.8186V5.67961H19.2405V0.826188H17.8186V2.72672H17.1352C17.0346 1.97206 16.6634 1.27958 16.0904 0.778027C15.5175 0.276479 14.7819 0 14.0203 0C13.2588 0 12.5231 0.276479 11.9502 0.778027C11.3772 1.27958 11.006 1.97206 10.9055 2.72672H10.2141V0.826188H8.79222V5.67961H10.2141V3.79478H10.9055C11.0098 4.42853 11.3059 5.01508 11.7539 5.47542V7.46233H8.83936V9.42569H9.93918L7.15035 35.0907H2.08329V37.9493H3.17527L4.37722 40.1405V40.5253L4.33793 40.5645C3.33183 41.5121 2.1741 42.2846 0.912771 42.8499C-0.352026 43.3996 -0.304905 43.6352 1.06987 43.219C2.44584 42.7559 3.732 42.06 4.87214 41.1614C7.17392 39.4022 9.05933 37.3211 11.1569 35.7111C11.6753 35.2949 12.2095 34.9258 12.728 34.5645C13.2428 34.2396 13.7811 33.9534 14.3385 33.7085C15.3738 33.1947 16.5135 32.926 17.6694 32.9231C19.2955 32.9231 19.3977 34.0541 19.2405 35.1378C19.2405 35.1378 19.2405 35.1378 19.2405 35.1771C19.1104 35.7646 19.0549 36.3662 19.0756 36.9677C19.1437 38.5636 19.782 40.0822 20.8746 41.2478C21.8569 42.2168 23.063 42.9289 24.3862 43.3211C26.531 43.8621 28.7443 44.0818 30.9537 43.9729C32.2656 43.9729 33.2319 43.8002 31.0244 43.5645L31.0794 43.5174ZM11.7539 9.40213H16.2867L17.3473 19.2111H10.6541L11.7539 9.40213ZM17.3316 30.4964C15.9329 30.731 14.5886 31.2179 13.3644 31.9336C12.1614 32.6579 11.0508 33.5255 10.057 34.5174L9.49138 35.075H8.96505L9.75064 27.8341H18.2821L18.5571 30.3708C18.1486 30.3708 17.7715 30.4336 17.3316 30.4964Z" fill="#042454"/>
<path d="M43.2874 8.78165V7.67432H46.5476V8.78165H47.8517C48.5556 8.77138 49.2563 8.87752 49.9256 9.09579C50.5016 9.28768 51.0351 9.58901 51.4968 9.98322C51.9209 10.3393 52.2617 10.7841 52.4951 11.2861C52.7286 11.7882 52.849 12.3353 52.848 12.889V13.3131C52.8766 13.8565 52.786 14.3996 52.5824 14.9043C52.3788 15.4089 52.0673 15.863 51.6696 16.2345C50.6974 17.0033 49.4731 17.3815 48.2366 17.2948H46.6104V19.7293H43.1774V17.2948H41.5355C40.3136 17.3696 39.1073 16.9891 38.1496 16.2267C37.7526 15.8563 37.4414 15.4036 37.2378 14.9003C37.0342 14.397 36.9433 13.8553 36.9713 13.3131V12.889C36.9674 12.1552 37.1806 11.4366 37.584 10.8235C38.0204 10.1692 38.6332 9.65186 39.3516 9.33139C40.1817 8.95208 41.0865 8.7642 41.999 8.78165H43.2874ZM43.2088 10.4152H42.3604C41.921 10.4082 41.4921 10.5492 41.1427 10.8157C40.7922 11.0743 40.5203 11.425 40.3571 11.8288C40.1776 12.2426 40.0867 12.6893 40.09 13.1403C40.0726 13.7533 40.2637 14.3541 40.6321 14.8445C40.8168 15.0811 41.0564 15.2692 41.3302 15.3924C41.6039 15.5155 41.9036 15.5701 42.2033 15.5513H43.2403L43.2088 10.4152ZM47.5688 10.4152H46.6419V15.5749H47.6553C48.0618 15.5909 48.4623 15.4721 48.7944 15.2372C49.108 15.0048 49.3502 14.6892 49.4935 14.3262C49.6522 13.9401 49.7323 13.5263 49.7292 13.1089C49.7323 12.6696 49.6469 12.2343 49.4778 11.8288C49.3223 11.4337 49.0648 11.0868 48.7315 10.8235C48.3979 10.569 47.9885 10.4335 47.5688 10.4387" fill="#042454"/>
<path d="M61.7566 7.67432H65.0953L68.5991 17.0984L69.5732 19.7293H65.8181L64.514 16.2424H60.5861L59.4391 19.7372H57.5537L60.8375 10.3131L61.7566 7.67432ZM62.495 10.5879L61.0339 14.6403H63.9327L62.495 10.5879Z" fill="#042454"/>
<path d="M74.8838 7.67444H80.5715C81.4106 7.6503 82.2425 7.83659 82.9911 8.21633C83.6203 8.52776 84.1446 9.01642 84.4994 9.62209C84.8247 10.1774 84.9981 10.8085 85.0022 11.4519C85.0005 11.8874 84.9179 12.3188 84.7587 12.7242C84.5901 13.1483 84.336 13.5332 84.0124 13.8551C83.6626 14.2026 83.2419 14.4705 82.779 14.6404C82.2543 14.8367 81.6973 14.9326 81.1371 14.9232H78.2147V19.7137H74.876V7.67444H74.8838ZM78.2147 9.29225V13.219H79.3774C79.7343 13.2263 80.085 13.125 80.383 12.9284C80.6698 12.7331 80.8958 12.4609 81.035 12.143C81.1859 11.8322 81.2638 11.4911 81.2628 11.1457C81.2724 10.6498 81.0861 10.1701 80.7443 9.81058C80.5446 9.61729 80.3063 9.46839 80.045 9.37365C79.7837 9.27891 79.5053 9.24046 79.2281 9.26083L78.2147 9.29225Z" fill="#042454"/>
<path d="M90.5247 7.67446H95.5918C96.7763 7.59972 97.9586 7.85241 99.0091 8.40483C99.3866 8.64401 99.7064 8.96385 99.9454 9.34136C100.185 9.71886 100.337 10.1446 100.392 10.5881V11.0122C100.406 11.5799 100.222 12.1349 99.8732 12.5829C99.4203 13.0786 98.8338 13.4331 98.1842 13.6038C99.038 13.8194 99.7905 14.3246 100.313 15.0331C100.647 15.6131 100.818 16.2724 100.808 16.9415C100.81 17.2518 100.749 17.5592 100.627 17.8446C100.505 18.1227 100.329 18.3737 100.109 18.5829C99.6752 19.0122 99.1316 19.3138 98.5377 19.4546C98.2228 19.5386 97.9026 19.6015 97.5793 19.6431C97.2409 19.6892 96.8995 19.7102 96.558 19.7059H90.4697V7.67446H90.5247ZM93.8556 12.7713H95.3168C95.5307 12.7841 95.7447 12.7475 95.9422 12.6644C96.1397 12.5814 96.3154 12.454 96.4559 12.2923C96.7306 11.9745 96.8763 11.5655 96.8644 11.1457C96.8643 10.8323 96.7916 10.5232 96.6523 10.2425C96.5083 9.95565 96.2881 9.71386 96.016 9.54357C95.7165 9.35942 95.3698 9.26662 95.0183 9.27656H93.8556V12.7713ZM93.8556 18.1274H95.0183C95.5874 18.1699 96.1508 17.9897 96.5895 17.6248C96.7611 17.4741 96.8978 17.2878 96.99 17.079C97.0823 16.8701 97.1279 16.6436 97.1237 16.4153C97.1206 16.072 97.0256 15.7358 96.8487 15.4415C96.6528 15.1076 96.367 14.8355 96.0238 14.6562C95.6283 14.4439 95.1843 14.3384 94.7355 14.3499H93.8635L93.8556 18.1274Z" fill="#042454"/>
<path d="M109.442 7.67432H112.781L116.284 17.0984L117.274 19.7293H113.519L112.215 16.2424H108.287L107.124 19.7372H105.239L108.523 10.3131L109.442 7.67432ZM110.18 10.5879L108.719 14.6403H111.618L110.18 10.5879Z" fill="#042454"/>
<path d="M121.461 7.67432H130.888H131.47V9.42563H128.139V18.8419V19.7293H124.8V10.3052V9.42563H121.461V7.67432Z" fill="#042454"/>
<path d="M137.063 7.67432H144.746V9.42563H140.543V12.7633H144.605V14.5147H140.543V17.9937H144.896V19.7293H137.063V10.3052V7.67432Z" fill="#042454"/>
<path d="M150.905 7.67444H156.569C157.408 7.6503 158.24 7.83659 158.989 8.21633C159.618 8.52776 160.142 9.01642 160.497 9.62209C160.823 10.1774 160.996 10.8085 161 11.4519C160.998 11.8874 160.916 12.3188 160.757 12.7242C160.576 13.1518 160.309 13.537 159.971 13.8551C159.621 14.2026 159.2 14.4705 158.738 14.6404C158.213 14.8367 157.656 14.9326 157.096 14.9232H154.205V19.7137H150.866V7.67444H150.905ZM154.244 9.24513V13.1718H155.407C155.764 13.1792 156.114 13.0778 156.412 12.8813C156.699 12.686 156.925 12.4138 157.064 12.0959C157.215 11.7851 157.293 11.444 157.292 11.0985C157.302 10.6026 157.115 10.1229 156.774 9.76345C156.574 9.57017 156.336 9.42127 156.074 9.32653C155.813 9.23178 155.535 9.19334 155.257 9.21372L154.244 9.24513Z" fill="#042454"/>
<path d="M41.3706 36.245L43.8452 33.3942C43.3821 33.3576 42.9372 33.1976 42.5568 32.9309C42.3244 32.769 42.1369 32.5508 42.0118 32.2966C41.8868 32.0425 41.8284 31.7608 41.842 31.478C41.8353 31.2086 41.8889 30.9411 41.999 30.6952C42.1091 30.4492 42.2729 30.231 42.4783 30.0565C42.7064 29.8528 42.9737 29.6978 43.2639 29.601C43.5178 29.512 43.7816 29.454 44.0495 29.4282C44.2459 29.4282 44.4815 29.4282 44.7644 29.4282H46.7912V36.2686H45.5185V33.5277H45.22L42.9418 36.2686L41.3706 36.245ZM45.5185 30.3706H44.89C44.3948 30.3227 43.897 30.4326 43.4681 30.6848C43.3433 30.774 43.2418 30.892 43.1721 31.0286C43.1024 31.1653 43.0665 31.3167 43.0675 31.4701C43.0654 31.6318 43.1084 31.791 43.1917 31.9297C43.2749 32.0683 43.3951 32.1812 43.5388 32.2555C43.9389 32.4419 44.3784 32.5282 44.8193 32.5068H45.5185V30.3706Z" fill="#042454"/>
<path d="M53.4844 36.2451L56.1161 32.6718L53.8143 29.4048H55.2362L56.8624 31.7216L58.5279 29.4048H59.9498L57.5537 32.6718L60.0676 36.2451H58.6378L56.8153 33.6299L54.9142 36.2451H53.4844Z" fill="#042454"/>
<path d="M71.3643 30.3943H69.4554V36.2451H68.1748V30.3943H66.2659V29.4048H71.3643V30.3943Z" fill="#042454"/>
<path d="M87.7831 29.4048V32.1299L91.0119 29.4048H92.6852L88.9223 32.499L92.7088 36.2451H91.0119L88.0345 33.2058L87.7831 33.4179V36.2451H86.5105V29.4048H87.7831Z" fill="#042454"/>
<path d="M100.627 29.4048H105.954V36.2451H104.673V30.3943H101.9V33.7949C101.919 34.0563 101.919 34.3187 101.9 34.5802C101.863 34.819 101.786 35.0499 101.672 35.2634C101.541 35.5136 101.349 35.7269 101.114 35.8839C100.662 36.1701 100.133 36.3125 99.5983 36.2922C99.411 36.2923 99.2242 36.2739 99.0405 36.2373V35.2713C99.1921 35.3099 99.3476 35.331 99.504 35.3341C99.7861 35.3566 100.066 35.2725 100.29 35.0985C100.437 34.9772 100.541 34.8122 100.588 34.6273C100.642 34.4617 100.676 34.2904 100.69 34.1168C100.69 33.9755 100.69 33.7634 100.69 33.4807L100.627 29.4048Z" fill="#042454"/>
<path d="M112.624 29.4048H114.171L116.363 32.9545L118.272 29.4048H119.6L115.837 36.2451H114.509L115.632 34.2032L112.624 29.4048Z" fill="#042454"/>
<path d="M126.269 36.2373V29.4048H130.441V30.3943H127.542V32.1613H128.367C129.103 32.1181 129.834 32.3077 130.456 32.7032C130.704 32.8677 130.906 33.0923 131.043 33.356C131.181 33.6197 131.249 33.9139 131.242 34.2111C131.242 34.5439 131.15 34.8703 130.975 35.1535C130.78 35.4587 130.51 35.7078 130.189 35.876C129.62 36.1434 128.995 36.2674 128.367 36.2373H126.269ZM127.542 33.143V35.2556H128.327C129.443 35.2556 130.001 34.91 130.001 34.2189C130.003 34.0685 129.972 33.9194 129.908 33.7833C129.843 33.6471 129.749 33.5275 129.631 33.4336C129.251 33.1897 128.801 33.0792 128.351 33.1195L127.542 33.143Z" fill="#042454"/>
</svg>
