<svg width="28" height="28" viewBox="0 0 28 28" fill="none" xmlns="http://www.w3.org/2000/svg">
<path d="M27.3071 8.50658C27.2446 7.08967 27.0155 6.11557 26.6872 5.27149C26.3486 4.37552 25.8277 3.57336 25.1452 2.90652C24.4784 2.22931 23.6709 1.70308 22.7853 1.36977C21.9364 1.04154 20.9673 0.812406 19.5504 0.749935C18.123 0.682173 17.6698 0.666504 14.0493 0.666504C10.4288 0.666504 9.97563 0.682173 8.55344 0.744644C7.13654 0.807116 6.16243 1.03645 5.31856 1.36448C4.42239 1.70308 3.62023 2.22402 2.9534 2.90652C2.27618 3.57336 1.75016 4.38081 1.41664 5.2664C1.08841 6.11557 0.859281 7.08438 0.79681 8.50129C0.729048 9.92877 0.713379 10.3819 0.713379 14.0024C0.713379 17.6229 0.729048 18.0761 0.791519 19.4983C0.85399 20.9152 1.08332 21.8893 1.41155 22.7334C1.75016 23.6294 2.27618 24.4315 2.9534 25.0984C3.62023 25.7756 4.42768 26.3018 5.31327 26.6351C6.16243 26.9633 7.13125 27.1925 8.54835 27.2549C9.97034 27.3176 10.4237 27.3331 14.0442 27.3331C17.6647 27.3331 18.1179 27.3176 19.5401 27.2549C20.957 27.1925 21.9311 26.9633 22.7749 26.6351C24.5671 25.9422 25.984 24.5253 26.6769 22.7334C27.0049 21.8842 27.2342 20.9152 27.2967 19.4983C27.3592 18.0761 27.3748 17.6229 27.3748 14.0024C27.3748 10.3819 27.3695 9.92877 27.3071 8.50658ZM24.9057 19.3941C24.8483 20.6965 24.6296 21.3997 24.4472 21.8686C23.9991 23.0303 23.0771 23.9523 21.9154 24.4004C21.4466 24.5827 20.7382 24.8015 19.441 24.8586C18.0344 24.9213 17.6126 24.9368 14.0546 24.9368C10.4966 24.9368 10.0694 24.9213 8.668 24.8586C7.36567 24.8015 6.66241 24.5827 6.19357 24.4004C5.61545 24.1867 5.08923 23.8481 4.6621 23.4053C4.21931 22.9729 3.8807 22.452 3.66704 21.8738C3.48471 21.405 3.26596 20.6965 3.20878 19.3994C3.1461 17.9929 3.13064 17.5708 3.13064 14.0128C3.13064 10.4548 3.1461 10.0277 3.20878 8.62643C3.26596 7.32409 3.48471 6.62083 3.66704 6.15199C3.8807 5.57367 4.21931 5.04765 4.66739 4.62032C5.09961 4.17752 5.62054 3.83892 6.19886 3.62546C6.6677 3.44313 7.37625 3.22438 8.6733 3.16699C10.0798 3.10452 10.5019 3.08885 14.0597 3.08885C17.623 3.08885 18.0448 3.10452 19.4463 3.16699C20.7486 3.22438 21.4519 3.44313 21.9207 3.62546C22.4988 3.83892 23.025 4.17752 23.4522 4.62032C23.895 5.05274 24.2336 5.57367 24.4472 6.15199C24.6296 6.62083 24.8483 7.32918 24.9057 8.62643C24.9682 10.033 24.9838 10.4548 24.9838 14.0128C24.9838 17.5708 24.9682 17.9876 24.9057 19.3941Z" fill="white"/>
<path d="M14.0493 7.15214C10.2674 7.15214 7.199 10.2204 7.199 14.0025C7.199 17.7845 10.2674 20.8528 14.0493 20.8528C17.8314 20.8528 20.8996 17.7845 20.8996 14.0025C20.8996 10.2204 17.8314 7.15214 14.0493 7.15214ZM14.0493 18.4461C11.5958 18.4461 9.60568 16.4561 9.60568 14.0025C9.60568 11.5488 11.5958 9.55883 14.0493 9.55883C16.503 9.55883 18.4929 11.5488 18.4929 14.0025C18.4929 16.4561 16.503 18.4461 14.0493 18.4461Z" fill="white"/>
<path d="M22.7699 6.8813C22.7699 7.76445 22.0538 8.48054 21.1705 8.48054C20.2873 8.48054 19.5712 7.76445 19.5712 6.8813C19.5712 5.99795 20.2873 5.28207 21.1705 5.28207C22.0538 5.28207 22.7699 5.99795 22.7699 6.8813Z" fill="white"/>
</svg>
