<svg width="28" height="28" viewBox="0 0 28 28" fill="none" xmlns="http://www.w3.org/2000/svg">
<path d="M27.3332 13.6564C27.3332 20.8307 21.4727 26.6464 14.2422 26.6464C11.9468 26.6464 9.79036 26.0597 7.91421 25.0301L0.666504 27.3332L3.02947 20.3637C1.83747 18.4064 1.15095 16.1107 1.15095 13.6564C1.15095 6.48221 7.01199 0.666504 14.2422 0.666504C21.4733 0.666504 27.3332 6.48221 27.3332 13.6564ZM14.2422 2.73524C8.17287 2.73524 3.23599 7.6345 3.23599 13.6564C3.23599 16.0461 4.01495 18.2591 5.33258 20.0594L3.95747 24.1154L8.1871 22.7711C9.92487 23.9121 12.0067 24.5776 14.2425 24.5776C20.3109 24.5776 25.2487 19.6789 25.2487 13.657C25.2487 7.6351 20.3112 2.73524 14.2422 2.73524ZM20.8529 16.6481C20.772 16.5157 20.5584 16.4357 20.2378 16.2766C19.9166 16.1175 18.3385 15.3468 18.0452 15.241C17.7509 15.1349 17.5364 15.0816 17.3228 15.4001C17.1092 15.7189 16.4941 16.4357 16.3065 16.6481C16.1192 16.8612 15.9323 16.8878 15.6111 16.7284C15.2905 16.5693 14.2567 16.2327 13.0309 15.1483C12.0772 14.3044 11.433 13.2627 11.2458 12.9435C11.0588 12.625 11.2262 12.4529 11.3865 12.2944C11.5311 12.1515 11.7077 11.9225 11.868 11.7367C12.0289 11.5507 12.0822 11.4182 12.1886 11.2055C12.2961 10.993 12.2425 10.8072 12.1619 10.6475C12.0819 10.4884 11.4395 8.92161 11.1723 8.28399C10.905 7.64695 10.6381 7.75302 10.4505 7.75302C10.2635 7.75302 10.0493 7.72636 9.83539 7.72636C9.62147 7.72636 9.27361 7.80606 8.97939 8.12458C8.68547 8.44339 7.85673 9.21376 7.85673 10.7803C7.85673 12.3471 9.00606 13.8609 9.16695 14.073C9.32724 14.2852 11.3862 17.6049 14.6484 18.8798C17.9109 20.1542 17.9109 19.729 18.4994 19.6757C19.0872 19.6227 20.3975 18.9056 20.6659 18.1625C20.9326 17.4182 20.9326 16.7809 20.8529 16.6481Z" fill="white"/>
</svg>
