<svg width="178" height="40" viewBox="0 0 178 40" fill="none" xmlns="http://www.w3.org/2000/svg">
<path d="M15.5166 20.0643H6.58118L5.24354 23.4714H0L8.7214 1.89307H13.3764L22.0978 23.4714H16.8542L15.5166 20.0643ZM8.29334 15.7919H13.8044L11.2361 9.30217L11.0756 8.59911H11.0221L10.8616 9.30217L8.29334 15.7919Z" fill="#DEE2E6"/>
<path d="M21.937 1.18994H26.806V23.5254H21.937V1.18994Z" fill="#DEE2E6"/>
<path d="M27.7156 15.3051C27.7156 14.1153 27.9296 12.9796 28.3576 11.898C28.7857 10.8163 29.4277 9.89696 30.2303 9.13983C31.0329 8.38269 31.996 7.73372 33.0661 7.24699C34.1897 6.81434 35.3669 6.54395 36.7045 6.54395C38.0421 6.54395 39.2728 6.76026 40.3964 7.24699C41.52 7.73372 42.4831 8.32861 43.2857 9.13983C44.0883 9.95104 44.7303 10.8704 45.1584 11.898C45.5864 12.9796 45.8004 14.1153 45.8004 15.3051C45.8004 15.6295 45.8004 15.9 45.7469 16.1163C45.7469 16.3326 45.6934 16.4948 45.6399 16.7112H32.6381C32.7451 17.252 32.9591 17.6846 33.2266 18.1173C33.4942 18.5499 33.8152 18.8744 34.1897 19.1448C34.5643 19.4152 34.9388 19.6856 35.3669 19.7938C35.7949 19.956 36.2229 20.0101 36.7045 20.0101C37.4536 20.0101 38.1491 19.8479 38.6842 19.5234C39.2728 19.1989 39.7008 18.7662 39.9683 18.2795H45.2119C44.9978 18.9826 44.6233 19.6856 44.0883 20.3887C43.6067 21.0917 42.9646 21.6866 42.2691 22.2274C41.5735 22.7682 40.7174 23.2009 39.7543 23.5254C38.7912 23.8499 37.7746 24.0121 36.651 24.0121C35.3133 24.0121 34.0827 23.7958 33.0126 23.3091C31.889 22.8764 30.9794 22.2274 30.1768 21.4162C29.3742 20.605 28.7857 19.6856 28.3041 18.6581C27.9296 17.6306 27.7156 16.4948 27.7156 15.3051ZM36.758 10.6541C35.9019 10.6541 35.1528 10.8704 34.4573 11.3572C33.7617 11.8439 33.2801 12.4388 32.9591 13.25H40.6104C40.4499 12.8714 40.2359 12.4929 39.9683 12.1684C39.7008 11.8439 39.4333 11.5735 39.0587 11.3572C38.7377 11.1408 38.3632 10.9786 37.9886 10.8163C37.5606 10.7082 37.186 10.6541 36.758 10.6541Z" fill="#DEE2E6"/>
<path d="M50.2418 18.3334C50.2953 18.8201 50.5628 19.2528 50.9908 19.5232C51.4724 19.8476 52.0609 19.9558 52.7565 19.9558C53.6661 19.9558 54.3617 19.8477 54.7362 19.5772C55.1643 19.3609 55.3248 18.9823 55.3248 18.5497C55.3248 18.2793 55.2178 18.063 55.0573 17.9007C54.8432 17.7385 54.5757 17.5762 54.2012 17.4681C53.8266 17.3599 53.3986 17.2518 52.8635 17.1436C52.3285 17.0354 51.7399 16.9273 50.9908 16.765C50.6698 16.7109 50.3488 16.6028 49.9742 16.5487C49.5997 16.4405 49.2252 16.3324 48.8506 16.1701C48.4761 16.0079 48.1015 15.8456 47.7805 15.5752C47.4595 15.3589 47.1384 15.0885 46.8709 14.71C46.6034 14.3855 46.3894 13.9528 46.2289 13.5202C46.0683 13.0334 46.0148 12.4926 46.0148 11.8436C46.0148 11.0324 46.1753 10.2753 46.4429 9.57226C46.7639 8.92328 47.1919 8.32839 47.7805 7.89574C48.3691 7.46309 49.1716 7.08453 50.0812 6.81412C50.9908 6.54372 52.0609 6.43555 53.3451 6.43555C54.3617 6.43555 55.2713 6.54372 56.0739 6.81412C56.8764 7.08453 57.572 7.4631 58.1606 7.94983C58.7491 8.43655 59.1772 9.03144 59.4447 9.68041C59.7657 10.3294 59.8728 11.0865 59.8728 11.8977H55.0038C54.9502 11.5192 54.7897 11.1406 54.4152 10.8702C54.0942 10.5998 53.5591 10.4375 52.9705 10.4375C52.2215 10.4375 51.6864 10.5998 51.3119 10.8702C50.9373 11.1406 50.7768 11.4651 50.7768 11.8436C50.7768 12.06 50.8303 12.2222 50.9373 12.3845C51.0443 12.5467 51.2584 12.6549 51.5259 12.763C51.7934 12.8712 52.1144 12.9253 52.489 13.0334C52.8635 13.0875 53.3451 13.1957 53.9336 13.2498C54.7897 13.412 55.5923 13.5742 56.3949 13.7906C57.144 14.0069 57.8395 14.2773 58.4281 14.6559C59.0167 15.0344 59.4982 15.5212 59.8192 16.062C60.1403 16.6028 60.3543 17.414 60.3543 18.2793C60.3543 19.2527 60.1403 20.118 59.7657 20.8211C59.3912 21.5242 58.8561 22.119 58.1606 22.6058C57.465 23.0925 56.6624 23.417 55.6993 23.6333C54.7362 23.8496 53.6661 23.9578 52.5425 23.9578C51.3119 23.9578 50.1883 23.7956 49.3322 23.4711C48.4761 23.1466 47.727 22.7139 47.1384 22.1731C46.5499 21.6323 46.1218 21.0374 45.8543 20.3344C45.5868 19.6313 45.4263 18.9823 45.4263 18.2793L50.2418 18.3334Z" fill="#DEE2E6"/>
<path d="M61.2107 1.18994H66.0797V14.0612L71.4837 7.08477H77.1553L71.6978 13.953L77.6904 23.5254H71.9118L68.2199 17.1438L66.0797 19.6856V23.5254H61.2107V1.18994Z" fill="#DEE2E6"/>
<path d="M75.4961 15.3051C75.4961 14.1153 75.7101 12.9796 76.1382 11.898C76.5662 10.8163 77.2083 9.89696 78.0109 9.13983C78.8134 8.38269 79.7765 7.73372 80.8466 7.24699C81.9703 6.81434 83.1474 6.54395 84.485 6.54395C85.8227 6.54395 87.0533 6.76026 88.1769 7.24699C89.3005 7.73372 90.2636 8.32861 91.0662 9.13983C91.8688 9.95104 92.5108 10.8704 92.9389 11.898C93.3669 12.9796 93.581 14.1153 93.581 15.3051C93.581 15.6295 93.581 15.9 93.5275 16.1163C93.5275 16.3326 93.4739 16.4948 93.4204 16.7112H80.4186C80.5256 17.252 80.7396 17.6846 81.0072 18.1173C81.2747 18.5499 81.5957 18.8744 81.9703 19.1448C82.3448 19.4152 82.7193 19.6856 83.1474 19.7938C83.5754 19.956 84.0035 20.0101 84.485 20.0101C85.2341 20.0101 85.9297 19.8479 86.4647 19.5234C87.0533 19.1989 87.4813 18.7662 87.7488 18.2795H92.9924C92.7784 18.9826 92.4038 19.6856 91.8688 20.3887C91.3872 21.0917 90.7452 21.6866 90.0496 22.2274C89.354 22.7682 88.4979 23.2009 87.5348 23.5254C86.5717 23.8499 85.5551 24.0121 84.4315 24.0121C83.0939 24.0121 81.8632 23.7958 80.7931 23.3091C79.6695 22.8764 78.7599 22.2274 77.9573 21.4162C77.1548 20.605 76.5662 19.6856 76.0847 18.6581C75.7101 17.6306 75.4961 16.4948 75.4961 15.3051ZM84.5385 10.6541C83.6824 10.6541 82.9334 10.8704 82.2378 11.3572C81.5422 11.8439 81.0607 12.4388 80.7396 13.25H88.3909C88.2304 12.8714 88.0164 12.4929 87.7488 12.1684C87.4813 11.8439 87.2138 11.5735 86.8393 11.3572C86.5182 11.1408 86.1437 10.9786 85.7692 10.8163C85.3946 10.7082 84.9666 10.6541 84.5385 10.6541Z" fill="#DEE2E6"/>
<path d="M105.566 11.3032H103.533C102.196 11.3032 101.179 11.6817 100.43 12.4389C99.6808 13.196 99.3062 14.3317 99.3062 15.846V23.4714H94.4907V7.03076H98.3966L98.7712 8.59911C99.3062 8.16646 99.9483 7.78789 100.697 7.4634C101.446 7.193 102.303 7.03076 103.319 7.03076H105.62V11.3032H105.566Z" fill="#DEE2E6"/>
<path d="M104.924 15.3051C104.924 14.1153 105.138 12.9796 105.566 11.898C105.994 10.8163 106.636 9.89696 107.439 9.13983C108.242 8.38269 109.205 7.73372 110.275 7.24699C111.345 6.76026 112.629 6.54395 113.967 6.54395C115.304 6.54395 116.535 6.76026 117.659 7.24699C118.782 7.73372 119.745 8.32861 120.548 9.13983C121.351 9.95104 121.993 10.8704 122.421 11.898C122.849 12.9255 123.063 14.1153 123.063 15.3051C123.063 16.4948 122.849 17.6306 122.421 18.7122C121.993 19.7938 121.351 20.7132 120.548 21.4703C119.745 22.2274 118.782 22.8764 117.659 23.3631C116.535 23.8499 115.304 24.0662 113.967 24.0662C112.629 24.0662 111.452 23.8499 110.328 23.3631C109.205 22.8764 108.295 22.2815 107.493 21.4703C106.69 20.6591 106.101 19.7397 105.62 18.7122C105.138 17.6846 104.924 16.4948 104.924 15.3051ZM109.74 15.251C109.74 15.954 109.847 16.5489 110.061 17.0897C110.275 17.6306 110.596 18.1173 110.97 18.5499C111.345 18.9285 111.827 19.253 112.308 19.4693C112.843 19.6856 113.378 19.7938 113.967 19.7938C114.555 19.7938 115.09 19.6856 115.625 19.4693C116.16 19.253 116.589 18.9285 116.963 18.5499C117.338 18.1714 117.659 17.6846 117.873 17.0897C118.087 16.5489 118.194 15.9 118.194 15.1969C118.194 14.5479 118.087 13.899 117.873 13.3582C117.659 12.8173 117.338 12.3306 116.963 11.952C116.589 11.5735 116.16 11.249 115.625 11.0327C115.09 10.8163 114.555 10.7082 113.967 10.7082C113.378 10.7082 112.843 10.8163 112.308 11.0327C111.773 11.249 111.345 11.5735 110.97 11.952C110.596 12.3306 110.275 12.8173 110.061 13.3582C109.847 13.899 109.74 14.602 109.74 15.251Z" fill="#DEE2E6"/>
<path d="M125.203 11.2488H122.207V7.03053H125.203V6.43564C125.203 5.6785 125.31 4.92138 125.47 4.16425C125.685 3.40711 126.006 2.70405 126.434 2.10916C126.915 1.51427 127.504 0.973462 128.253 0.594895C129.002 0.216327 129.965 0 131.142 0H134.406V4.00199H132.319C131.891 4.00199 131.517 4.05607 131.249 4.21831C130.982 4.32648 130.714 4.5428 130.554 4.75912C130.393 4.97545 130.232 5.24585 130.179 5.57034C130.125 5.89482 130.072 6.21932 130.072 6.54381V7.08462H134.406V11.3029H130.072V23.5252H125.203V11.2488Z" fill="#DEE2E6"/>
<path d="M136.118 11.2491H133.122V7.03078H136.118V6.43588C136.118 5.67875 136.225 4.92162 136.385 4.16449C136.599 3.40736 136.92 2.70429 137.349 2.1094C137.83 1.51451 138.419 0.973706 139.168 0.595139C139.917 0.216572 140.88 0.000244141 142.057 0.000244141H145.321V4.00224H143.234C142.806 4.00224 142.432 4.05631 142.164 4.21856C141.896 4.32672 141.629 4.54304 141.468 4.75937C141.308 4.97569 141.147 5.2461 141.094 5.57058C141.04 5.89507 140.987 6.21956 140.987 6.54405V7.08486H145.321V11.3032H140.987V23.5255H136.118V11.2491Z" fill="#DEE2E6"/>
<path d="M161.479 11.3034H159.446C158.109 11.3034 157.092 11.682 156.343 12.4391C155.594 13.1962 155.219 14.3319 155.219 15.8462V23.4716H150.404V7.03101H154.31L154.684 8.59935C155.219 8.1667 155.861 7.78813 156.61 7.46365C157.36 7.19324 158.216 7.03101 159.232 7.03101H161.533V11.3034H161.479Z" fill="#DEE2E6"/>
<path d="M169.613 19.7935C170.148 19.7935 170.629 19.7395 171.057 19.5772C171.485 19.415 171.86 19.1986 172.127 18.8742C172.449 18.5497 172.663 18.117 172.823 17.5762C172.984 17.0354 173.091 16.3864 173.091 15.5752V6.97632H177.96V15.7375C177.96 17.2517 177.746 18.4956 177.318 19.5231C176.889 20.5507 176.301 21.416 175.552 22.0649C174.803 22.7139 173.947 23.2006 172.93 23.471C171.913 23.7414 170.79 23.9037 169.613 23.9037C168.436 23.9037 167.312 23.7414 166.295 23.471C165.279 23.2006 164.423 22.7139 163.674 22.0649C162.925 21.416 162.336 20.5507 161.908 19.5231C161.48 18.4956 161.266 17.1976 161.266 15.7375V6.97632H166.135V15.5752C166.135 16.3323 166.188 17.0354 166.349 17.5221C166.509 18.0629 166.723 18.4956 167.044 18.8201C167.365 19.1446 167.687 19.3609 168.115 19.5231C168.596 19.7395 169.078 19.7935 169.613 19.7935Z" fill="#DEE2E6"/>
<path d="M148.103 18.6042H143.288V23.4715H148.103V18.6042Z" fill="#DEE2E6"/>
<path d="M94.585 34.6461C94.585 34.2135 94.6385 33.8349 94.799 33.4563C94.9595 33.0778 95.12 32.7533 95.3875 32.4829C95.6551 32.2125 95.9761 31.9961 96.2971 31.8339C96.6717 31.6717 97.0997 31.6176 97.5278 31.6176C97.8488 31.6176 98.1698 31.6717 98.4374 31.7798C98.7049 31.888 98.9189 31.9961 99.1329 32.1584V29.7788H100.792V37.4583H99.347L99.2399 36.9716C99.0259 37.1338 98.7584 37.2961 98.4909 37.4583C98.2233 37.6206 97.8488 37.6746 97.5278 37.6746C97.0462 37.6746 96.6717 37.6206 96.2971 37.4583C95.9226 37.2961 95.6016 37.0797 95.3341 36.8093C95.0665 36.5389 94.8525 36.2145 94.7455 35.8359C94.6385 35.4573 94.585 35.0787 94.585 34.6461ZM96.2436 34.6461C96.2436 34.8624 96.2971 35.0788 96.3507 35.2951C96.4042 35.5114 96.5112 35.6736 96.6717 35.7818C96.8322 35.944 96.9392 36.0522 97.1532 36.1063C97.3673 36.1604 97.5278 36.2144 97.7418 36.2144C97.9558 36.2144 98.1163 36.1604 98.3303 36.1063C98.4909 36.0522 98.6514 35.944 98.8119 35.7818C98.9724 35.6196 99.0794 35.4573 99.1329 35.2951C99.1864 35.0788 99.2399 34.8624 99.2399 34.6461C99.2399 34.4298 99.1864 34.2135 99.1329 33.9971C99.0794 33.7808 98.9724 33.6186 98.8119 33.5104C98.6514 33.3482 98.5444 33.2941 98.3303 33.1859C98.1698 33.1318 97.9558 33.0778 97.7418 33.0778C97.5278 33.0778 97.3138 33.1318 97.1532 33.1859C96.9927 33.24 96.8322 33.3482 96.6717 33.5104C96.5647 33.6726 96.4577 33.8349 96.3507 33.9971C96.2971 34.2135 96.2436 34.4298 96.2436 34.6461Z" fill="#DEE2E6"/>
<path d="M103.253 31.834H101.594V37.5125H103.253V31.834Z" fill="#DEE2E6"/>
<path d="M103.788 34.646C103.788 34.2133 103.841 33.8348 104.002 33.4562C104.162 33.0776 104.323 32.7531 104.59 32.4827C104.858 32.2123 105.179 31.996 105.554 31.8338C105.928 31.6715 106.356 31.6174 106.784 31.6174C106.998 31.6174 107.159 31.6174 107.319 31.6715C107.48 31.7256 107.64 31.7797 107.801 31.8338C107.961 31.8878 108.068 31.9419 108.229 32.0501C108.336 32.1042 108.496 32.2123 108.55 32.3205L108.657 31.8338H109.994V37.0796C109.994 37.5123 109.941 37.8908 109.78 38.2694C109.62 38.648 109.459 38.9184 109.192 39.1888C108.924 39.4592 108.603 39.6214 108.229 39.7837C107.854 39.9459 107.426 40 106.945 40C106.624 40 106.303 39.9459 106.035 39.8918C105.768 39.8378 105.5 39.7296 105.339 39.6214C105.179 39.5133 104.965 39.4051 104.804 39.2429C104.644 39.0806 104.537 38.9184 104.43 38.7561C104.323 38.5939 104.269 38.4316 104.216 38.2153C104.162 37.999 104.109 37.8368 104.109 37.6745H105.714C105.768 37.7827 105.821 37.8908 105.875 37.999C105.928 38.1072 106.035 38.1612 106.142 38.2694C106.249 38.3776 106.356 38.3776 106.517 38.4316C106.677 38.4857 106.838 38.4857 106.998 38.4857C107.266 38.4857 107.533 38.4317 107.694 38.3235C107.854 38.2153 108.015 38.1072 108.122 37.9449C108.229 37.7827 108.282 37.6745 108.336 37.5123C108.389 37.35 108.389 37.1878 108.389 37.0796V36.9174C108.175 37.0796 107.908 37.2419 107.64 37.35C107.373 37.4582 106.998 37.5123 106.624 37.5123C106.196 37.5123 105.821 37.4582 105.447 37.2959C105.072 37.1337 104.804 36.9715 104.537 36.7011C104.269 36.4307 104.109 36.1062 103.948 35.7817C103.841 35.4572 103.788 35.0786 103.788 34.646ZM105.447 34.646C105.447 34.8623 105.5 35.0786 105.554 35.295C105.607 35.5113 105.714 35.6735 105.875 35.7817C106.035 35.9439 106.142 35.998 106.356 36.1062C106.517 36.1602 106.731 36.2143 106.945 36.2143C107.159 36.2143 107.319 36.1602 107.533 36.1062C107.694 36.0521 107.854 35.9439 108.015 35.7817C108.122 35.6194 108.229 35.4572 108.336 35.295C108.389 35.0786 108.443 34.8623 108.443 34.646C108.443 34.4296 108.389 34.2133 108.336 33.997C108.282 33.7807 108.175 33.6184 108.015 33.5103C107.854 33.348 107.747 33.294 107.533 33.1858C107.373 33.1317 107.159 33.0776 106.945 33.0776C106.731 33.0776 106.517 33.1317 106.356 33.1858C106.196 33.2399 106.035 33.348 105.875 33.5103C105.768 33.6725 105.661 33.8348 105.554 33.997C105.5 34.2133 105.447 34.4296 105.447 34.646Z" fill="#DEE2E6"/>
<path d="M112.456 31.834H110.797V37.5125H112.456V31.834Z" fill="#DEE2E6"/>
<path d="M114.061 30.2651H115.238V31.8335H116.843V33.2937H115.238V35.2947C115.238 35.4569 115.238 35.6192 115.292 35.7273C115.345 35.8355 115.399 35.9436 115.452 35.9977C115.506 36.0518 115.613 36.1059 115.72 36.16C115.827 36.16 115.934 36.214 116.041 36.214H116.95V37.6202H115.88C115.559 37.6202 115.292 37.5661 114.971 37.512C114.65 37.4579 114.436 37.3498 114.222 37.1875C114.008 37.0253 113.847 36.8089 113.74 36.4845C113.633 36.16 113.58 35.7814 113.58 35.3488V33.3478H112.67V32.0498L113.526 31.7253L114.061 30.2651Z" fill="#DEE2E6"/>
<path d="M117.057 34.646C117.057 34.2133 117.111 33.8348 117.271 33.4562C117.432 33.0776 117.592 32.7531 117.86 32.4827C118.127 32.2123 118.448 31.996 118.823 31.8338C119.197 31.6715 119.625 31.6174 120.053 31.6174C120.428 31.6174 120.749 31.6715 121.07 31.7797C121.391 31.8878 121.605 32.0501 121.819 32.2123L121.873 31.7797H123.317V37.4582H121.873L121.819 37.0255C121.605 37.1878 121.338 37.35 121.07 37.4582C120.803 37.5663 120.428 37.6204 120.053 37.6204C119.572 37.6204 119.197 37.5663 118.823 37.4041C118.448 37.2419 118.127 37.0255 117.86 36.7551C117.592 36.4847 117.378 36.1602 117.271 35.7817C117.111 35.4572 117.057 35.0786 117.057 34.646ZM118.716 34.646C118.716 34.8623 118.769 35.0786 118.823 35.2949C118.876 35.5113 118.983 35.6735 119.144 35.7817C119.304 35.9439 119.411 35.998 119.625 36.1062C119.786 36.1602 120 36.2143 120.214 36.2143C120.428 36.2143 120.589 36.1602 120.803 36.1062C120.963 36.0521 121.124 35.9439 121.284 35.7817C121.445 35.6194 121.552 35.4572 121.605 35.2949C121.659 35.0786 121.712 34.8623 121.712 34.646C121.712 34.4296 121.659 34.2133 121.605 33.997C121.552 33.7807 121.445 33.6184 121.284 33.5103C121.124 33.348 121.017 33.294 120.803 33.1858C120.642 33.1317 120.428 33.0776 120.214 33.0776C120 33.0776 119.786 33.1317 119.625 33.1858C119.465 33.2399 119.304 33.348 119.144 33.5103C119.037 33.6725 118.93 33.8348 118.823 33.997C118.769 34.2133 118.716 34.4296 118.716 34.646Z" fill="#DEE2E6"/>
<path d="M124.066 29.7788H125.725V37.4583H124.066V29.7788Z" fill="#DEE2E6"/>
<path d="M128.347 28.5886H129.952V39.5671H128.347V28.5886Z" fill="#DEE2E6"/>
<path d="M138.834 34.6461C138.834 35.0787 138.78 35.4573 138.62 35.8359C138.459 36.2145 138.299 36.5389 138.031 36.8093C137.764 37.0797 137.443 37.2961 137.068 37.4583C136.694 37.6206 136.266 37.6746 135.838 37.6746C135.677 37.6746 135.463 37.6746 135.303 37.6206C135.142 37.5665 134.982 37.5665 134.821 37.4583C134.661 37.4042 134.554 37.3502 134.393 37.242C134.286 37.1879 134.126 37.0797 134.072 37.0257L134.019 37.4583H132.574V29.7788H134.233V32.1584C134.447 31.9961 134.661 31.888 134.928 31.7798C135.196 31.6717 135.517 31.6176 135.838 31.6176C136.319 31.6176 136.694 31.6717 137.068 31.8339C137.443 31.9961 137.764 32.2125 137.978 32.4829C138.192 32.7533 138.406 33.0778 138.566 33.4563C138.727 33.8349 138.834 34.2135 138.834 34.6461ZM137.175 34.6461C137.175 34.4298 137.122 34.2135 137.068 33.9971C137.015 33.7808 136.908 33.6186 136.747 33.5104C136.64 33.3482 136.48 33.2941 136.266 33.1859C136.105 33.1318 135.891 33.0778 135.677 33.0778C135.463 33.0778 135.303 33.1318 135.089 33.1859C134.928 33.24 134.768 33.3482 134.607 33.5104C134.447 33.6726 134.34 33.8349 134.286 33.9971C134.233 34.2135 134.179 34.3757 134.179 34.6461C134.179 34.8624 134.233 35.0788 134.286 35.2951C134.34 35.5114 134.447 35.6736 134.607 35.7818C134.768 35.944 134.875 35.9981 135.089 36.1063C135.303 36.2145 135.463 36.2144 135.677 36.2144C135.891 36.2144 136.052 36.1604 136.266 36.1063C136.48 36.0522 136.587 35.944 136.747 35.7818C136.908 35.6196 137.015 35.4573 137.068 35.2951C137.122 35.0788 137.175 34.8624 137.175 34.6461Z" fill="#DEE2E6"/>
<path d="M143.115 33.2942H142.419C141.937 33.2942 141.616 33.4023 141.349 33.6727C141.081 33.9431 140.974 34.3217 140.974 34.8625V37.5125H139.316V31.834H140.653L140.76 32.3748C140.921 32.2126 141.135 32.1044 141.402 31.9962C141.67 31.8881 141.937 31.834 142.312 31.834H143.115V33.2942Z" fill="#DEE2E6"/>
<path d="M143.008 34.646C143.008 34.2133 143.061 33.8348 143.222 33.4562C143.382 33.0776 143.543 32.7531 143.81 32.4827C144.078 32.2123 144.399 31.996 144.773 31.8338C145.148 31.6715 145.576 31.6174 146.004 31.6174C146.379 31.6174 146.7 31.6715 147.021 31.7797C147.342 31.8878 147.556 32.0501 147.77 32.2123L147.823 31.7797H149.268V37.4582H147.823L147.77 37.0255C147.556 37.1878 147.288 37.35 147.021 37.4582C146.753 37.5664 146.379 37.6204 146.004 37.6204C145.522 37.6204 145.148 37.5663 144.773 37.4041C144.399 37.2419 144.078 37.0255 143.81 36.7551C143.543 36.4847 143.329 36.1602 143.222 35.7817C143.061 35.4572 143.008 35.0786 143.008 34.646ZM144.666 34.646C144.666 34.8623 144.72 35.0786 144.773 35.295C144.827 35.5113 144.934 35.6735 145.094 35.7817C145.255 35.9439 145.362 35.998 145.576 36.1062C145.736 36.1602 145.951 36.2143 146.165 36.2143C146.379 36.2143 146.539 36.1602 146.753 36.1062C146.914 36.0521 147.074 35.9439 147.235 35.7817C147.395 35.6194 147.502 35.4572 147.556 35.295C147.609 35.0786 147.663 34.8623 147.663 34.646C147.663 34.4296 147.609 34.2133 147.556 33.997C147.502 33.7807 147.395 33.6184 147.235 33.5103C147.074 33.348 146.967 33.294 146.753 33.1858C146.593 33.1317 146.379 33.0776 146.165 33.0776C145.951 33.0776 145.736 33.1317 145.576 33.1858C145.415 33.2399 145.255 33.348 145.094 33.5103C144.987 33.6725 144.88 33.8348 144.773 33.997C144.72 34.2133 144.666 34.4296 144.666 34.646Z" fill="#DEE2E6"/>
<path d="M155.795 37.4578H154.136V34.4834C154.136 34.213 154.083 33.9966 154.03 33.8344C153.976 33.6721 153.922 33.5099 153.815 33.4017C153.708 33.2936 153.601 33.2395 153.441 33.1854C153.28 33.1313 153.173 33.1313 153.013 33.1313C152.799 33.1313 152.638 33.1854 152.478 33.2395C152.317 33.2936 152.157 33.4017 152.05 33.564C151.943 33.7262 151.836 33.8885 151.782 34.0507C151.729 34.267 151.675 34.4293 151.675 34.6456V37.5119H150.017V31.8334H151.354L151.461 32.266C151.568 32.212 151.729 32.1038 151.836 32.0497C151.943 31.9956 152.103 31.8875 152.264 31.8334C152.424 31.7793 152.585 31.7252 152.745 31.7252C152.906 31.6711 153.066 31.6711 153.227 31.6711C153.655 31.6711 154.083 31.7252 154.404 31.8875C154.725 32.0497 154.993 32.2119 155.207 32.4283C155.421 32.6446 155.581 32.9691 155.635 33.2936C155.742 33.6181 155.795 34.0507 155.795 34.4834V37.4578Z" fill="#DEE2E6"/>
<path d="M156.116 34.6461C156.116 34.2135 156.17 33.8349 156.33 33.4563C156.491 33.0778 156.651 32.7533 156.919 32.4829C157.186 32.2125 157.507 31.9961 157.828 31.8339C158.203 31.6717 158.631 31.6176 159.059 31.6176C159.38 31.6176 159.701 31.6717 159.969 31.7798C160.236 31.888 160.45 31.9961 160.664 32.1584V29.7788H162.323V37.4583H160.878L160.771 36.9716C160.557 37.1338 160.29 37.2961 160.022 37.4583C159.755 37.5665 159.38 37.6746 159.059 37.6746C158.577 37.6746 158.203 37.6206 157.828 37.4583C157.454 37.2961 157.133 37.0797 156.865 36.8093C156.598 36.5389 156.384 36.2145 156.277 35.8359C156.223 35.4573 156.116 35.0787 156.116 34.6461ZM157.828 34.6461C157.828 34.8624 157.882 35.0788 157.935 35.2951C157.989 35.5114 158.096 35.6736 158.256 35.7818C158.417 35.944 158.524 36.0522 158.738 36.1063C158.899 36.1604 159.113 36.2144 159.327 36.2144C159.541 36.2144 159.701 36.1604 159.915 36.1063C160.129 36.0522 160.236 35.944 160.397 35.7818C160.557 35.6196 160.664 35.4573 160.718 35.2951C160.771 35.0788 160.825 34.8624 160.825 34.6461C160.825 34.4298 160.771 34.2135 160.718 33.9971C160.664 33.7808 160.557 33.6186 160.397 33.5104C160.236 33.3482 160.129 33.2941 159.915 33.1859C159.701 33.0778 159.541 33.0778 159.327 33.0778C159.113 33.0778 158.899 33.1318 158.738 33.1859C158.577 33.24 158.417 33.3482 158.256 33.5104C158.149 33.6726 158.042 33.8349 157.935 33.9971C157.828 34.2135 157.828 34.4298 157.828 34.6461Z" fill="#DEE2E6"/>
<path d="M164.838 31.834H163.179V37.5125H164.838V31.834Z" fill="#DEE2E6"/>
<path d="M171.473 37.4578H169.814V34.4834C169.814 34.213 169.761 33.9966 169.707 33.8344C169.654 33.6721 169.6 33.5099 169.493 33.4017C169.386 33.2936 169.279 33.2395 169.118 33.1854C168.958 33.1313 168.851 33.1313 168.69 33.1313C168.476 33.1313 168.316 33.1854 168.155 33.2395C167.995 33.2936 167.834 33.4017 167.727 33.564C167.62 33.7262 167.513 33.8885 167.46 34.0507C167.406 34.267 167.353 34.4293 167.353 34.6456V37.5119H165.694V31.8334H167.032L167.139 32.266C167.246 32.212 167.406 32.1038 167.513 32.0497C167.62 31.9956 167.781 31.8875 167.941 31.8334C168.102 31.7793 168.262 31.7252 168.423 31.7252C168.583 31.6711 168.744 31.6711 168.904 31.6711C169.333 31.6711 169.761 31.7252 170.082 31.8875C170.403 32.0497 170.67 32.212 170.884 32.4283C171.098 32.6446 171.259 32.9691 171.312 33.2936C171.419 33.6181 171.473 34.0507 171.473 34.4834V37.4578Z" fill="#DEE2E6"/>
<path d="M171.793 34.646C171.793 34.2133 171.847 33.8348 172.007 33.4562C172.168 33.0776 172.328 32.7531 172.596 32.4827C172.863 32.2123 173.185 31.996 173.559 31.8338C173.934 31.6715 174.362 31.6174 174.79 31.6174C175.004 31.6174 175.164 31.6174 175.325 31.6715C175.485 31.7256 175.646 31.7797 175.806 31.8338C175.967 31.8878 176.074 31.9419 176.234 32.0501C176.341 32.1042 176.502 32.2123 176.555 32.3205L176.662 31.8338H178V37.0796C178 37.5123 177.946 37.8908 177.786 38.2694C177.625 38.648 177.465 38.9184 177.197 39.1888C176.93 39.4592 176.609 39.6214 176.234 39.7837C175.86 39.9459 175.432 40 174.95 40C174.629 40 174.308 39.9459 174.041 39.8918C173.773 39.8378 173.506 39.7296 173.345 39.6214C173.184 39.5133 172.97 39.4051 172.81 39.2429C172.649 39.0806 172.542 38.9184 172.435 38.7561C172.328 38.5939 172.275 38.4316 172.221 38.2153C172.168 37.999 172.114 37.8368 172.114 37.6745H173.72C173.773 37.7827 173.827 37.8908 173.88 37.999C173.934 38.1072 174.041 38.1612 174.148 38.2694C174.255 38.3776 174.362 38.3776 174.522 38.4316C174.683 38.4857 174.843 38.4857 175.004 38.4857C175.271 38.4857 175.539 38.4317 175.699 38.3235C175.86 38.2153 176.02 38.1072 176.127 37.9449C176.234 37.7827 176.288 37.6745 176.341 37.5123C176.395 37.35 176.395 37.1878 176.395 37.0796V36.9174C176.181 37.0796 175.913 37.2419 175.646 37.35C175.378 37.4582 175.004 37.5123 174.629 37.5123C174.201 37.5123 173.827 37.4582 173.452 37.2959C173.077 37.1337 172.81 36.9715 172.542 36.7011C172.275 36.4307 172.114 36.1062 171.954 35.7817C171.847 35.4572 171.793 35.0786 171.793 34.646ZM173.452 34.646C173.452 34.8623 173.506 35.0786 173.559 35.295C173.613 35.5113 173.72 35.6735 173.88 35.7817C174.041 35.9439 174.148 35.998 174.362 36.1062C174.522 36.1602 174.736 36.2143 174.95 36.2143C175.164 36.2143 175.325 36.1602 175.539 36.1062C175.699 36.0521 175.86 35.9439 176.02 35.7817C176.127 35.6194 176.234 35.4572 176.341 35.295C176.395 35.0786 176.448 34.8623 176.448 34.646C176.448 34.4296 176.395 34.2133 176.341 33.997C176.288 33.7807 176.181 33.6184 176.02 33.5103C175.86 33.348 175.753 33.294 175.539 33.1858C175.378 33.1317 175.164 33.0776 174.95 33.0776C174.736 33.0776 174.522 33.1317 174.362 33.1858C174.201 33.2399 174.041 33.348 173.88 33.5103C173.773 33.6725 173.666 33.8348 173.559 33.997C173.506 34.2133 173.452 34.4296 173.452 34.646Z" fill="#DEE2E6"/>
<path d="M103.306 29.7788H101.648V31.4553H103.306V29.7788Z" fill="#DEE2E6"/>
<path d="M112.456 29.7788H110.797V31.4553H112.456V29.7788Z" fill="#DEE2E6"/>
<path d="M164.838 29.7788H163.179V31.4553H164.838V29.7788Z" fill="#DEE2E6"/>
</svg>
