<svg width="28" height="28" viewBox="0 0 28 28" fill="none" xmlns="http://www.w3.org/2000/svg">
<path d="M27.3073 8.50682C27.2448 7.08992 27.0157 6.11581 26.6875 5.27173C26.3489 4.37576 25.8279 3.57361 25.1454 2.90677C24.4786 2.22955 23.6712 1.70333 22.7856 1.37001C21.9366 1.04178 20.9676 0.812651 19.5507 0.750179C18.1232 0.682417 17.67 0.666748 14.0495 0.666748C10.429 0.666748 9.97588 0.682417 8.55368 0.744888C7.13678 0.80736 6.16268 1.03669 5.3188 1.36472C4.42263 1.70333 3.62048 2.22426 2.95364 2.90677C2.27643 3.57361 1.7504 4.38106 1.41688 5.26664C1.08866 6.11581 0.859525 7.08463 0.797054 8.50153C0.729292 9.92901 0.713623 10.3822 0.713623 14.0027C0.713623 17.6232 0.729292 18.0764 0.791763 19.4985C0.854235 20.9155 1.08357 21.8896 1.4118 22.7336C1.7504 23.6296 2.27643 24.4318 2.95364 25.0986C3.62048 25.7758 4.42793 26.302 5.31351 26.6354C6.16268 26.9636 7.13149 27.1927 8.5486 27.2552C9.97059 27.3179 10.424 27.3333 14.0445 27.3333C17.6649 27.3333 18.1181 27.3179 19.5403 27.2552C20.9572 27.1927 21.9313 26.9636 22.7752 26.6354C24.5673 25.9425 25.9842 24.5256 26.6771 22.7336C27.0051 21.8845 27.2345 20.9155 27.2969 19.4985C27.3594 18.0764 27.3751 17.6232 27.3751 14.0027C27.3751 10.3822 27.3698 9.92901 27.3073 8.50682ZM24.9059 19.3944C24.8486 20.6967 24.6298 21.4 24.4475 21.8688C23.9994 23.0305 23.0774 23.9525 21.9156 24.4006C21.4468 24.583 20.7385 24.8017 19.4412 24.8589C18.0347 24.9216 17.6129 24.937 14.0548 24.937C10.4968 24.937 10.0697 24.9216 8.66825 24.8589C7.36591 24.8017 6.66265 24.583 6.19381 24.4006C5.6157 24.187 5.08947 23.8484 4.66235 23.4056C4.21955 22.9731 3.88094 22.4522 3.66728 21.8741C3.48495 21.4053 3.2662 20.6967 3.20902 19.3997C3.14635 17.9931 3.13088 17.5711 3.13088 14.0131C3.13088 10.455 3.14635 10.0279 3.20902 8.62668C3.2662 7.32434 3.48495 6.62108 3.66728 6.15223C3.88094 5.57392 4.21955 5.04789 4.66764 4.62056C5.09985 4.17777 5.62078 3.83916 6.1991 3.6257C6.66794 3.44337 7.3765 3.22462 8.67354 3.16724C10.0801 3.10476 10.5021 3.0891 14.0599 3.0891C17.6232 3.0891 18.0451 3.10476 19.4465 3.16724C20.7488 3.22462 21.4521 3.44337 21.9209 3.6257C22.4991 3.83916 23.0253 4.17777 23.4524 4.62056C23.8952 5.05298 24.2338 5.57392 24.4475 6.15223C24.6298 6.62108 24.8486 7.32943 24.9059 8.62668C24.9684 10.0332 24.9841 10.455 24.9841 14.0131C24.9841 17.5711 24.9684 17.9878 24.9059 19.3944Z" fill="#2D2A26"/>
<path d="M14.0495 7.15239C10.2677 7.15239 7.19924 10.2206 7.19924 14.0027C7.19924 17.7848 10.2677 20.853 14.0495 20.853C17.8316 20.853 20.8998 17.7848 20.8998 14.0027C20.8998 10.2206 17.8316 7.15239 14.0495 7.15239ZM14.0495 18.4463C11.5961 18.4463 9.60592 16.4564 9.60592 14.0027C9.60592 11.549 11.5961 9.55907 14.0495 9.55907C16.5032 9.55907 18.4932 11.549 18.4932 14.0027C18.4932 16.4564 16.5032 18.4463 14.0495 18.4463Z" fill="#2D2A26"/>
<path d="M22.7702 6.88155C22.7702 7.7647 22.0541 8.48078 21.1707 8.48078C20.2876 8.48078 19.5715 7.7647 19.5715 6.88155C19.5715 5.99819 20.2876 5.28231 21.1707 5.28231C22.0541 5.28231 22.7702 5.99819 22.7702 6.88155Z" fill="#2D2A26"/>
</svg>
