<svg width="260" height="71" viewBox="0 0 260 71" fill="none" xmlns="http://www.w3.org/2000/svg">
<path d="M50.1903 70.2213C46.6507 69.8538 43.0858 69.6764 39.8508 68.105C38.9422 67.6589 38.0904 67.1059 37.3135 66.4576L40.1933 61.1984H41.9567V56.5856H34.7001C35.1689 55.7071 35.8435 54.9549 36.6664 54.3932L37.0851 54.1271C37.7621 53.793 38.3659 53.3278 38.8612 52.7585C38.9694 52.6276 39.0479 52.4748 39.0915 52.3108C39.1351 52.1467 39.1427 51.9752 39.1138 51.8079C39.0849 51.6407 39.0201 51.4816 38.924 51.3416C38.8279 51.2017 38.7026 51.0841 38.5567 50.997L38.1381 50.7309C37.2794 50.2555 36.3683 49.8812 35.4232 49.6157L34.8903 49.4636C34.256 49.3115 33.6217 49.1975 32.962 49.1088L29.2829 15.1716H31.0463V12.0035H26.3396V8.79732C27.0424 8.05987 27.5066 7.12811 27.6717 6.1234H28.7754V9.16482H31.0717V1.33317H28.7754V4.39993H27.6717C27.5094 3.18219 26.9098 2.06477 25.9846 1.25545C25.0593 0.446137 23.8713 0 22.6415 0C21.4117 0 20.2236 0.446137 19.2984 1.25545C18.3731 2.06477 17.7736 3.18219 17.6113 4.39993H16.4949V1.33317H14.1986V9.16482H16.4949V6.1234H17.6113C17.7797 7.14603 18.2579 8.09252 18.9814 8.83533V12.0415H14.2747V15.2096H16.0508L11.5471 56.6236H3.36432V61.2364H5.12777L7.0688 64.7721V65.3931L7.00535 65.4564C5.38059 66.9855 3.51098 68.232 1.47404 69.1441C-0.56849 70.0312 -0.492394 70.4114 1.72775 69.7397C3.94981 68.9926 6.02683 67.8695 7.86806 66.4195C11.5852 63.5809 14.63 60.2226 18.0173 57.6248C18.8546 56.9531 19.7173 56.3575 20.5546 55.7746C21.3859 55.2502 22.2552 54.7885 23.1553 54.3932C24.8273 53.5642 26.6678 53.1306 28.5344 53.126C31.1605 53.126 31.3254 54.9509 31.0717 56.6997C31.0717 56.6997 31.0717 56.6997 31.0717 56.763C30.8615 57.7111 30.7719 58.6819 30.8053 59.6524C30.9152 62.2276 31.946 64.6781 33.7105 66.5589C35.2969 68.1226 37.2446 69.2717 39.3814 69.9045C42.8451 70.7775 46.4194 71.1319 49.9873 70.9563C52.1059 70.9563 53.6664 70.6775 50.1015 70.2973L50.1903 70.2213ZM18.9814 15.1716H26.3016L28.0142 30.9997H17.2053L18.9814 15.1716ZM27.9889 49.2102C25.7302 49.5886 23.5592 50.3744 21.5822 51.5293C19.6395 52.698 17.846 54.098 16.2411 55.6985L15.3277 56.5983H14.4777L15.7464 44.9142H29.5239L29.968 49.0074C29.3083 49.0074 28.6993 49.1088 27.9889 49.2102Z" fill="#1F284F"/>
<path d="M69.905 14.1705V12.3837H75.1699V14.1705H77.2759C78.4126 14.1539 79.5443 14.3252 80.6251 14.6774C81.5553 14.987 82.4168 15.4733 83.1624 16.1094C83.8472 16.684 84.3976 17.4017 84.7746 18.2118C85.1517 19.022 85.3462 19.9049 85.3445 20.7983V21.4826C85.3907 22.3594 85.2443 23.2358 84.9156 24.0502C84.5868 24.8645 84.0837 25.5972 83.4415 26.1968C81.8715 27.4373 79.8944 28.0475 77.8975 27.9076H75.2714V31.8361H69.7274V27.9076H67.0759C65.1026 28.0284 63.1545 27.4143 61.608 26.1841C60.9668 25.5865 60.4642 24.8559 60.1355 24.0438C59.8067 23.2316 59.6598 22.3575 59.705 21.4826V20.7983C59.6988 19.6142 60.0431 18.4546 60.6946 17.4654C61.3992 16.4095 62.3889 15.5747 63.549 15.0576C64.8896 14.4455 66.3507 14.1423 67.8244 14.1705H69.905ZM69.7781 16.8064H68.408C67.6984 16.7951 67.0057 17.0228 66.4416 17.4527C65.8755 17.87 65.4364 18.4359 65.1729 19.0875C64.883 19.7552 64.7361 20.476 64.7416 21.2038C64.7134 22.193 65.022 23.1625 65.6169 23.9537C65.9151 24.3356 66.3021 24.6391 66.7442 24.8378C67.1864 25.0365 67.6704 25.1246 68.1542 25.0943H69.8289L69.7781 16.8064ZM76.8191 16.8064H75.3221V25.1323H76.9587C77.6152 25.1581 78.2619 24.9665 78.7982 24.5874C79.3047 24.2123 79.6958 23.7031 79.9273 23.1173C80.1836 22.4944 80.3129 21.8266 80.3079 21.1531C80.313 20.4443 80.1749 19.7417 79.902 19.0875C79.6507 18.4499 79.2349 17.8902 78.6967 17.4654C78.1579 17.0546 77.4969 16.8359 76.8191 16.8444" fill="#1F284F"/>
<path d="M99.7311 12.3837H105.123L110.781 27.5908L112.354 31.8361H106.29L104.184 26.2094H97.8408L95.9886 31.8487H92.9438L98.2468 16.6417L99.7311 12.3837ZM100.924 17.0852L98.564 23.6242H103.245L100.924 17.0852Z" fill="#1F284F"/>
<path d="M120.93 12.3837H130.115C131.471 12.3448 132.814 12.6454 134.023 13.2581C135.039 13.7607 135.886 14.5492 136.459 15.5265C136.984 16.4226 137.264 17.4409 137.271 18.4792C137.268 19.182 137.135 19.8781 136.877 20.5322C136.605 21.2166 136.195 21.8377 135.672 22.357C135.107 22.9178 134.428 23.35 133.68 23.6243C132.833 23.941 131.933 24.0958 131.029 24.0805H126.309V31.8108H120.918V12.3837H120.93ZM126.309 14.9943V21.3306H128.187C128.763 21.3424 129.33 21.1789 129.811 20.8617C130.274 20.5465 130.639 20.1073 130.864 19.5944C131.108 19.0929 131.233 18.5425 131.232 17.985C131.247 17.1848 130.947 16.4108 130.395 15.8307C130.072 15.5188 129.687 15.2785 129.265 15.1256C128.843 14.9728 128.394 14.9107 127.946 14.9436L126.309 14.9943Z" fill="#1F284F"/>
<path d="M146.189 12.3838H154.372C156.285 12.2631 158.194 12.6709 159.891 13.5623C160.5 13.9482 161.017 14.4644 161.403 15.0735C161.789 15.6827 162.035 16.3697 162.123 17.0853V17.7696C162.146 18.6857 161.85 19.5813 161.286 20.3041C160.555 21.1041 159.608 21.6762 158.559 21.9515C159.937 22.2994 161.153 23.1146 161.997 24.258C162.536 25.1938 162.812 26.2577 162.796 27.3374C162.8 27.838 162.7 28.3341 162.504 28.7947C162.307 29.2434 162.022 29.6484 161.667 29.986C160.966 30.6787 160.088 31.1654 159.129 31.3926C158.621 31.5281 158.104 31.6297 157.582 31.6968C157.035 31.7712 156.484 31.805 155.932 31.7981H146.1V12.3838H146.189ZM151.568 20.6083H153.928C154.273 20.6288 154.619 20.5698 154.938 20.4357C155.257 20.3017 155.541 20.0962 155.767 19.8352C156.211 19.3225 156.446 18.6624 156.427 17.985C156.427 17.4794 156.31 16.9806 156.085 16.5277C155.852 16.0648 155.497 15.6746 155.057 15.3998C154.573 15.1027 154.013 14.9529 153.446 14.969H151.568V20.6083ZM151.568 29.2509H153.446C154.365 29.3196 155.275 29.0288 155.983 28.4399C156.26 28.1968 156.481 27.8962 156.63 27.5592C156.779 27.2222 156.853 26.8567 156.846 26.4883C156.841 25.9343 156.688 25.3918 156.402 24.9169C156.085 24.3782 155.624 23.9391 155.07 23.6497C154.431 23.3072 153.714 23.1369 152.989 23.1554H151.581L151.568 29.2509Z" fill="#1F284F"/>
<path d="M176.738 12.3837H182.13L187.788 27.5908L189.387 31.8361H183.323L181.217 26.2094H174.874L172.996 31.8487H169.951L175.254 16.6417L176.738 12.3837ZM177.931 17.0852L175.571 23.6242H180.253L177.931 17.0852Z" fill="#1F284F"/>
<path d="M196.149 12.3837H211.373H212.311V15.2097H206.932V30.4041V31.8361H201.54V16.629V15.2097H196.149V12.3837Z" fill="#1F284F"/>
<path d="M221.344 12.3837H233.752V15.2097H226.964V20.5955H233.523V23.4215H226.964V29.0354H233.993V31.8361H221.344V16.629V12.3837Z" fill="#1F284F"/>
<path d="M243.698 12.3837H252.845C254.2 12.3448 255.543 12.6454 256.752 13.2581C257.768 13.7607 258.615 14.5492 259.188 15.5265C259.713 16.4226 259.993 17.4409 260 18.4792C259.997 19.182 259.864 19.8781 259.607 20.5322C259.316 21.2221 258.884 21.8437 258.338 22.357C257.773 22.9178 257.094 23.35 256.346 23.6243C255.499 23.941 254.599 24.0958 253.695 24.0805H249.026V31.8108H243.634V12.3837H243.698ZM249.09 14.9182V21.2545H250.967C251.544 21.2664 252.11 21.1029 252.591 20.7856C253.054 20.4705 253.419 20.0313 253.644 19.5184C253.888 19.0169 254.013 18.4664 254.012 17.909C254.027 17.1088 253.727 16.3347 253.175 15.7546C252.852 15.4427 252.467 15.2025 252.045 15.0496C251.623 14.8967 251.174 14.8347 250.726 14.8676L249.09 14.9182Z" fill="#1F284F"/>
<path d="M66.8096 58.4865L70.8058 53.8864C70.0579 53.8273 69.3394 53.5691 68.7252 53.1387C68.3498 52.8775 68.047 52.5253 67.8451 52.1153C67.6432 51.7052 67.5488 51.2507 67.5708 50.7942C67.5599 50.3596 67.6466 49.9279 67.8244 49.5311C68.0022 49.1342 68.2667 48.7821 68.5984 48.5005C68.9668 48.1718 69.3985 47.9217 69.867 47.7655C70.2772 47.6219 70.7031 47.5283 71.1357 47.4867C71.4528 47.4867 71.8334 47.4867 72.2902 47.4867H75.5633V58.5245H73.5081V54.1018H73.026L69.3469 58.5245L66.8096 58.4865ZM73.5081 49.0074H72.4931C71.6933 48.93 70.8895 49.1074 70.1969 49.5143C69.9953 49.6584 69.8314 49.8487 69.7188 50.0692C69.6062 50.2897 69.5483 50.534 69.5499 50.7816C69.5466 51.0425 69.616 51.2993 69.7504 51.5231C69.8848 51.7469 70.0789 51.9289 70.311 52.0488C70.9571 52.3497 71.6669 52.4889 72.3789 52.4543H73.5081V49.0074Z" fill="#1F284F"/>
<path d="M86.3723 58.4866L90.6223 52.7205L86.9052 47.4487H89.2014L91.8275 51.1871L94.5171 47.4487H96.8133L92.944 52.7205L97.0036 58.4866H94.6947L91.7514 54.2666L88.6813 58.4866H86.3723Z" fill="#1F284F"/>
<path d="M115.247 49.0455H112.164V58.4866H110.096V49.0455H107.013V47.4487H115.247V49.0455Z" fill="#1F284F"/>
<path d="M141.762 47.4487V51.8461L146.976 47.4487H149.678L143.601 52.4417L149.716 58.4866H146.976L142.168 53.5823L141.762 53.9244V58.4866H139.707V47.4487H141.762Z" fill="#1F284F"/>
<path d="M162.504 47.4487H171.106V58.4865H169.038V49.0455H164.559V54.5327C164.59 54.9546 164.59 55.3781 164.559 55.8C164.499 56.1853 164.374 56.5579 164.191 56.9025C163.98 57.3062 163.67 57.6504 163.291 57.9036C162.56 58.3656 161.706 58.5953 160.842 58.5626C160.54 58.5626 160.238 58.5329 159.941 58.4739V56.9152C160.186 56.9775 160.437 57.0115 160.69 57.0165C161.145 57.0528 161.598 56.9171 161.959 56.6364C162.196 56.4406 162.365 56.1743 162.441 55.876C162.528 55.6088 162.583 55.3323 162.606 55.0523C162.606 54.8242 162.606 54.482 162.606 54.0258L162.504 47.4487Z" fill="#1F284F"/>
<path d="M181.876 47.4487H184.376L187.915 53.1767L190.998 47.4487H193.142L187.065 58.4866H184.921L186.735 55.1917L181.876 47.4487Z" fill="#1F284F"/>
<path d="M203.913 58.4739V47.4487H210.649V49.0455H205.968V51.8968H207.3C208.489 51.8271 209.67 52.133 210.675 52.7712C211.075 53.0366 211.401 53.399 211.623 53.8245C211.845 54.25 211.955 54.7247 211.943 55.2043C211.944 55.7414 211.795 56.268 211.512 56.7251C211.198 57.2176 210.761 57.6195 210.243 57.8909C209.325 58.3224 208.314 58.5225 207.3 58.4739H203.913ZM205.968 53.4809V56.8898H207.237C209.038 56.8898 209.939 56.3322 209.939 55.217C209.943 54.9743 209.892 54.7337 209.789 54.514C209.685 54.2943 209.533 54.1012 209.343 53.9498C208.729 53.5562 208.001 53.3779 207.275 53.4429L205.968 53.4809Z" fill="#1F284F"/>
</svg>
