<svg width="28" height="28" viewBox="0 0 28 28" fill="none" xmlns="http://www.w3.org/2000/svg">
<path d="M27.3334 13.6567C27.3334 20.8309 21.473 26.6466 14.2425 26.6466C11.947 26.6466 9.7906 26.0599 7.91445 25.0303L0.666748 27.3334L3.02971 20.3639C1.83771 18.4066 1.15119 16.1109 1.15119 13.6567C1.15119 6.48245 7.01223 0.666748 14.2425 0.666748C21.4736 0.666748 27.3334 6.48245 27.3334 13.6567ZM14.2425 2.73549C8.17312 2.73549 3.23623 7.63475 3.23623 13.6567C3.23623 16.0463 4.01519 18.2593 5.33282 20.0596L3.95771 24.1156L8.18734 22.7713C9.92512 23.9124 12.0069 24.5779 14.2427 24.5779C20.3112 24.5779 25.249 19.6792 25.249 13.6573C25.249 7.63534 20.3115 2.73549 14.2425 2.73549ZM20.8531 16.6484C20.7722 16.5159 20.5586 16.4359 20.238 16.2768C19.9168 16.1177 18.3387 15.347 18.0454 15.2413C17.7512 15.1352 17.5367 15.0819 17.323 15.4004C17.1094 15.7192 16.4943 16.4359 16.3067 16.6484C16.1195 16.8614 15.9325 16.8881 15.6113 16.7287C15.2907 16.5696 14.257 16.233 13.0312 15.1485C12.0774 14.3047 11.4333 13.2629 11.246 12.9438C11.059 12.6253 11.2265 12.4531 11.3867 12.2946C11.5313 12.1518 11.7079 11.9227 11.8682 11.737C12.0291 11.5509 12.0825 11.4185 12.1888 11.2057C12.2964 10.9933 12.2427 10.8075 12.1622 10.6478C12.0822 10.4887 11.4398 8.92186 11.1725 8.28423C10.9053 7.64719 10.6383 7.75327 10.4507 7.75327C10.2638 7.75327 10.0496 7.7266 9.83564 7.7266C9.62171 7.7266 9.27386 7.8063 8.97964 8.12482C8.68571 8.44364 7.85697 9.21401 7.85697 10.7805C7.85697 12.3473 9.0063 13.8611 9.16719 14.0733C9.32749 14.2854 11.3865 17.6051 14.6487 18.8801C17.9112 20.1545 17.9112 19.7293 18.4996 19.6759C19.0875 19.6229 20.3977 18.9059 20.6662 18.1627C20.9328 17.4185 20.9328 16.7811 20.8531 16.6484Z" fill="#2D2A26"/>
</svg>
