<svg width="290" height="9" viewBox="0 0 290 9" fill="none" xmlns="http://www.w3.org/2000/svg">
<path d="M22.8821 6.46975C16.4512 9.1909 6.77357 9.04514 0 7.30457C0.756103 7.39587 1.5122 7.39587 2.29484 7.39587H2.29485C3.07748 7.39587 3.83351 7.30457 4.58962 7.30457C11.2565 6.83693 17.5944 4.27635 22.6699 0C27.7453 4.27635 34.0833 6.83693 40.7501 7.30457C41.5062 7.39587 42.2756 7.39587 43.045 7.39587C43.8143 7.39587 44.5837 7.30457 45.3398 7.30457C49.8283 6.99113 54.195 5.72745 58.1406 3.60011C60.0294 2.58102 61.8073 1.3747 63.4466 0C68.5165 4.28516 74.8576 6.84698 81.5268 7.30457C82.2829 7.39587 83.0391 7.39587 83.8217 7.39587C84.6044 7.39587 85.3604 7.30457 86.1298 7.30457C92.7966 6.83693 99.1346 4.27635 104.21 0C109.289 4.27973 115.632 6.84058 122.303 7.30457C123.06 7.39587 123.829 7.39587 124.598 7.39587C125.368 7.39587 126.137 7.30457 126.893 7.30457C131.382 6.99113 135.748 5.72745 139.694 3.60011C141.583 2.58102 143.361 1.3747 145 0C150.075 4.27635 156.413 6.83693 163.08 7.30457C163.85 7.39587 164.592 7.39587 165.375 7.39587C166.158 7.39587 166.914 7.30457 167.683 7.30457C174.35 6.83693 180.688 4.27635 185.763 0C187.403 1.3747 189.181 2.58102 191.069 3.60011C195.015 5.72745 199.382 6.99113 203.87 7.30457C204.626 7.39587 205.396 7.39587 206.165 7.39587C206.934 7.39587 207.704 7.30457 208.46 7.30457C215.132 6.84058 221.475 4.27973 226.553 0C231.629 4.27635 237.967 6.83693 244.634 7.30457C245.403 7.39587 246.172 7.39587 246.942 7.39587C247.711 7.39587 248.48 7.30457 249.237 7.30457C253.721 6.9909 258.083 5.72719 262.024 3.60011C263.917 2.5877 265.696 1.38092 267.33 0C273.005 4.77922 280.233 7.40279 287.705 7.39587C288.474 7.39587 289.244 7.30457 290 7.30457C282.6 9.80664 274.519 9.50901 267.33 6.46975C260.904 9.19089 253.737 9.72344 246.968 7.98285C240.195 9.72342 233.024 9.1909 226.593 6.46975C220.162 9.1909 212.992 9.72342 206.218 7.98285C199.444 9.72342 192.274 9.1909 185.843 6.46975C179.439 9.17023 172.305 9.70248 165.561 7.98285C158.792 9.72344 151.625 9.19089 145.199 6.46975C138.768 9.1909 131.597 9.72342 124.824 7.98285C118.025 9.74145 110.824 9.2087 104.369 6.46975C97.9383 9.1909 90.7676 9.72342 83.9941 7.98285C77.2249 9.72344 70.0585 9.19089 63.6323 6.46975C57.2014 9.1909 50.0308 9.72342 43.2572 7.98285C36.4837 9.72342 29.313 9.1909 22.8821 6.46975Z" fill="#042454"/>
</svg>
