<svg width="28" height="28" fill="none" xmlns="http://www.w3.org/2000/svg"><path d="M27.333 13.656c0 7.175-5.86 12.99-13.09 12.99-2.296 0-4.452-.586-6.329-1.616L.667 27.333l2.363-6.97a12.853 12.853 0 01-1.879-6.707c0-7.174 5.861-12.99 13.091-12.99 7.232 0 13.091 5.816 13.091 12.99zm-13.09-10.92c-6.07 0-11.007 4.899-11.007 10.92 0 2.39.78 4.603 2.097 6.403l-1.375 4.056 4.23-1.344a11 11 0 006.055 1.807c6.068 0 11.006-4.9 11.006-10.921 0-6.022-4.938-10.922-11.006-10.922zm6.61 13.912c-.08-.132-.294-.212-.615-.371-.321-.16-1.9-.93-2.193-1.036-.294-.106-.508-.16-.722.16-.214.318-.829 1.035-1.016 1.247-.188.213-.374.24-.696.08-.32-.159-1.354-.495-2.58-1.58-.954-.844-1.598-1.885-1.785-2.204-.187-.319-.02-.491.14-.65.145-.143.322-.372.482-.557.161-.186.214-.319.32-.531.108-.213.055-.399-.026-.558-.08-.16-.722-1.726-.99-2.364-.267-.637-.534-.531-.721-.531-.187 0-.401-.027-.615-.027-.214 0-.562.08-.856.399-.294.318-1.123 1.089-1.123 2.655 0 1.567 1.15 3.08 1.31 3.293.16.212 2.22 3.532 5.482 4.807 3.262 1.274 3.262.849 3.85.796.588-.053 1.899-.77 2.167-1.513.267-.745.267-1.382.187-1.515z" fill="#2D2A26"/></svg>