<svg width="161" height="44" fill="none" xmlns="http://www.w3.org/2000/svg"><path d="M31.08 43.517c-2.192-.227-4.4-.337-6.403-1.311a7.86 7.86 0 01-1.571-1.021l1.783-3.26h1.092v-2.858h-4.494a3.82 3.82 0 011.218-1.358l.26-.165a3.544 3.544 0 001.1-.849.731.731 0 00-.19-1.091l-.259-.165a7.85 7.85 0 00-1.68-.691l-.33-.095a11.879 11.879 0 00-1.195-.22l-2.278-21.03h1.092V7.438H16.31V5.452a3.141 3.141 0 00.825-1.657h.684V5.68h1.422V.826h-1.422v1.9h-.684a3.141 3.141 0 00-6.23 0h-.69v-1.9H8.791V5.68h1.422V3.795h.691c.105.634.4 1.22.849 1.68v1.987H8.839v1.964h1.1L7.15 35.09H2.083v2.858h1.092l1.202 2.192v.384l-.04.04A12.381 12.381 0 01.914 42.85c-1.265.55-1.218.785.157.369a12.673 12.673 0 003.802-2.058c2.302-1.759 4.187-3.84 6.285-5.45.518-.416 1.053-.785 1.571-1.146a12.25 12.25 0 011.61-.856 7.535 7.535 0 013.331-.786c1.627 0 1.729 1.131 1.572 2.215v.04a7.145 7.145 0 00-.165 1.79 6.675 6.675 0 001.799 4.28 8.4 8.4 0 003.511 2.073c2.145.541 4.358.76 6.568.652 1.312 0 2.278-.173.07-.408l.055-.048zM11.753 9.402h4.533l1.06 9.81h-6.693l1.1-9.81zm5.578 21.094a11.692 11.692 0 00-3.968 1.438 17.35 17.35 0 00-3.307 2.583l-.566.558h-.526l.786-7.24h8.531l.275 2.536c-.408 0-.785.063-1.225.125zM43.287 8.782V7.674h3.26v1.108h1.305a6.388 6.388 0 012.074.314c.576.192 1.11.493 1.57.887a3.785 3.785 0 011.352 2.906v.424a3.73 3.73 0 01-1.178 2.921 4.974 4.974 0 01-3.433 1.06H46.61v2.435h-3.433v-2.434h-1.642a4.95 4.95 0 01-3.385-1.068 3.724 3.724 0 01-1.179-2.914v-.424a3.722 3.722 0 01.613-2.066 4.163 4.163 0 011.768-1.492 6.09 6.09 0 012.647-.55h1.288zm-.078 1.633h-.849a1.956 1.956 0 00-1.217.4c-.35.26-.623.61-.786 1.014-.18.414-.27.86-.267 1.311a2.71 2.71 0 00.542 1.704 1.847 1.847 0 001.571.707h1.037l-.031-5.136zm4.36 0h-.927v5.16h1.013a1.85 1.85 0 001.14-.338c.313-.232.555-.548.698-.91.16-.387.24-.8.236-1.218a3.266 3.266 0 00-.251-1.28 2.402 2.402 0 00-.747-1.006 1.879 1.879 0 00-1.162-.384m14.188-2.765h3.338l3.504 9.424.974 2.631h-3.755l-1.304-3.487h-3.928l-1.147 3.495h-1.885l3.283-9.424.92-2.639zm.738 2.914l-1.461 4.052h2.899l-1.438-4.052zm12.389-2.914h5.688a5.029 5.029 0 012.42.542c.628.312 1.153.8 1.507 1.406.326.555.5 1.187.503 1.83a3.518 3.518 0 01-.243 1.272 3.331 3.331 0 01-.747 1.131c-.35.348-.77.615-1.233.785a4.472 4.472 0 01-1.642.283h-2.922v4.79h-3.339V7.675h.008zm3.33 1.618v3.927h1.163a1.76 1.76 0 001.006-.29c.287-.196.513-.468.652-.786.15-.31.229-.652.228-.997a1.885 1.885 0 00-.519-1.335 1.972 1.972 0 00-1.516-.55l-1.013.031zm12.311-1.618h5.067a6.467 6.467 0 013.417.73 3.023 3.023 0 011.383 2.184v.424a2.46 2.46 0 01-.519 1.57 3.486 3.486 0 01-1.689 1.022c.854.215 1.606.72 2.129 1.43a3.71 3.71 0 01.495 1.908 2.26 2.26 0 01-.181.903 2.283 2.283 0 01-.518.738c-.434.43-.977.73-1.571.872a7.366 7.366 0 01-.959.188c-.338.046-.68.067-1.021.063H90.47V7.674h.055zm3.33 5.097h1.462a1.397 1.397 0 001.139-.479 1.68 1.68 0 00.408-1.146c0-.314-.072-.623-.212-.904a1.752 1.752 0 00-1.634-.965h-1.162v3.494zm0 5.356h1.163a2.2 2.2 0 001.572-.502 1.571 1.571 0 00.534-1.21 1.924 1.924 0 00-.275-.973 2.065 2.065 0 00-.825-.786 2.584 2.584 0 00-1.288-.306h-.873l-.007 3.777zm15.587-10.453h3.339l3.503 9.424.99 2.631h-3.755l-1.304-3.487h-3.928l-1.163 3.495h-1.885l3.284-9.424.919-2.639zm.738 2.914l-1.461 4.052h2.899l-1.438-4.052zm11.281-2.914h10.009v1.752h-3.331v10.303H124.8V9.425h-3.339v-1.75zm15.602 0h7.683v1.752h-4.203v3.337h4.062v1.752h-4.062v3.479h4.353v1.735h-7.833V7.675zm13.842 0h5.664a5.032 5.032 0 012.42.542 3.6 3.6 0 011.508 1.406 3.66 3.66 0 01.503 1.83 3.528 3.528 0 01-.243 1.272 3.339 3.339 0 01-.786 1.131c-.35.348-.771.615-1.233.785a4.474 4.474 0 01-1.642.283h-2.891v4.79h-3.339V7.675h.039zm3.339 1.571v3.927h1.163c.357.007.707-.094 1.005-.29.287-.196.513-.468.652-.786.151-.31.229-.652.228-.998a1.886 1.886 0 00-.518-1.335 1.971 1.971 0 00-1.517-.55l-1.013.032zm-112.874 27l2.475-2.85a2.601 2.601 0 01-1.288-.464 1.674 1.674 0 01-.715-1.453 1.806 1.806 0 01.636-1.422c.228-.203.496-.358.786-.455a3.36 3.36 0 01.785-.173h2.742v6.84H45.52v-2.74h-.299l-2.278 2.74-1.571-.023zm4.149-5.874h-.629a2.358 2.358 0 00-1.422.314.958.958 0 00-.4.785.87.87 0 00.47.785c.4.187.84.273 1.281.252h.7V30.37zm7.965 5.874l2.632-3.573-2.302-3.267h1.422l1.626 2.317 1.666-2.317h1.422l-2.396 3.267 2.514 3.573h-1.43l-1.823-2.615-1.9 2.615h-1.43zm17.88-5.851h-1.909v5.851h-1.28v-5.85h-1.91v-.99h5.1v.99zm16.419-.989v2.725l3.229-2.725h1.673l-3.763 3.094 3.787 3.746h-1.697l-2.978-3.04-.25.213v2.827H86.51v-6.84h1.273zm12.844 0h5.327v6.84h-1.281v-5.85H101.9v3.4c.019.261.019.524 0 .785-.037.239-.114.47-.228.683a1.68 1.68 0 01-.558.62 2.647 2.647 0 01-1.516.41 2.91 2.91 0 01-.558-.056v-.966c.152.039.308.06.464.063.282.023.562-.062.786-.236a.896.896 0 00.298-.47c.054-.166.088-.338.102-.511v-.636l-.063-4.076zm11.997 0h1.547l2.192 3.55 1.909-3.55h1.328l-3.763 6.84h-1.328l1.123-2.042-3.008-4.798zm13.645 6.832v-6.832h4.172v.99h-2.899v1.766h.825a3.51 3.51 0 012.089.542 1.754 1.754 0 01.786 1.508c0 .333-.092.66-.267.943a2.076 2.076 0 01-.786.722 3.849 3.849 0 01-1.822.361h-2.098zm1.273-3.094v2.113h.785c1.116 0 1.674-.346 1.674-1.037a.992.992 0 00-.093-.436.991.991 0 00-.277-.35 2.033 2.033 0 00-1.28-.313l-.809.023z" fill="#042454"/></svg>