<svg width="28" height="28" fill="none" xmlns="http://www.w3.org/2000/svg"><path d="M27.307 8.507c-.062-1.417-.291-2.391-.62-3.236a6.507 6.507 0 00-1.542-2.364 6.562 6.562 0 00-2.36-1.537c-.849-.328-1.818-.558-3.235-.62-1.427-.068-1.88-.083-5.5-.083-3.621 0-4.074.015-5.497.078-1.416.062-2.39.291-3.234.62a6.506 6.506 0 00-2.366 1.542 6.565 6.565 0 00-1.536 2.36C1.088 6.115.859 7.083.797 8.5.729 9.93.713 10.381.713 14.002c0 3.62.016 4.074.079 5.496.062 1.417.291 2.391.62 3.235a6.576 6.576 0 001.541 2.365 6.563 6.563 0 002.36 1.537c.85.328 1.818.557 3.235.62 1.422.063 1.876.078 5.496.078 3.62 0 4.074-.015 5.496-.078 1.417-.063 2.391-.292 3.235-.62a6.82 6.82 0 003.902-3.902c.328-.849.557-1.818.62-3.235.062-1.422.078-1.875.078-5.496 0-3.62-.006-4.073-.068-5.495zm-2.401 10.887c-.058 1.303-.276 2.006-.459 2.475a4.424 4.424 0 01-2.532 2.531c-.468.183-1.177.402-2.474.459-1.407.062-1.828.078-5.386.078s-3.986-.016-5.387-.078c-1.302-.058-2.006-.276-2.474-.459a4.104 4.104 0 01-1.532-.995 4.145 4.145 0 01-.995-1.531c-.182-.469-.401-1.177-.458-2.475-.063-1.406-.078-1.828-.078-5.386s.015-3.985.078-5.387c.057-1.302.276-2.005.458-2.474a4.053 4.053 0 011-1.532A4.14 4.14 0 016.2 3.625c.469-.182 1.177-.4 2.474-.458 1.407-.062 1.829-.078 5.387-.078 3.563 0 3.985.016 5.386.078 1.303.057 2.006.276 2.475.458a4.101 4.101 0 011.531.995c.443.433.782.954.995 1.532.183.469.401 1.177.459 2.474.062 1.407.078 1.829.078 5.387s-.016 3.975-.078 5.381z" fill="#fff"/><path d="M14.05 7.152a6.852 6.852 0 00-6.851 6.85 6.852 6.852 0 006.85 6.85 6.852 6.852 0 006.85-6.85 6.852 6.852 0 00-6.85-6.85zm0 11.294a4.444 4.444 0 110-8.889 4.444 4.444 0 010 8.89zm8.72-11.565a1.6 1.6 0 11-3.199 0 1.6 1.6 0 013.199 0z" fill="#fff"/></svg>