<svg id="cutter" width="112" height="112" viewBox="0 0 112 112" fill="none" xmlns="http://www.w3.org/2000/svg">
<rect width="112" height="112" rx="56" fill="white"/>
<g clip-path="url(#clip0)">
<rect x="7.41187" y="7.41162" width="97.1765" height="97.1765" rx="48.5882" fill="#042454"/>
<g clip-path="url(#clip1)">
<path d="M87.5824 68.3058H81.5089H64.503V67.0911H80.2941C80.3027 67.0899 80.3111 67.0899 80.3184 67.0911C80.989 67.0911 81.5331 66.5482 81.5331 65.8764C81.5331 65.6104 81.4481 65.365 81.3036 65.1658L69.052 38.7192C63.6138 48.2705 55.8494 58.2298 43.027 67.0911H62.0736V68.3058H31.7059C31.2795 68.3058 30.8836 68.5306 30.6649 68.895L27.3743 74.3794H81.7554C82.2231 73.1914 82.5341 71.9597 82.6604 70.7352H87.5824C88.2529 70.7352 88.7971 70.1923 88.7971 69.5205C88.7971 68.8488 88.2529 68.3058 87.5824 68.3058Z" fill="white"/>
<path d="M30.4911 62.2326H38.977L56.2708 19.9219C56.6704 18.9441 57.4673 18.2116 58.4293 17.8703V16.0737C58.4293 15.5271 58.0637 15.0473 57.5365 14.9028C57.0093 14.7558 56.4493 14.9829 56.1699 15.453L29.4464 60.3971C29.2229 60.7725 29.2181 61.2377 29.4343 61.6179C29.6505 61.9981 30.055 62.2326 30.4911 62.2326Z" fill="white"/>
<path d="M40.2232 66.0344C54.2118 56.7297 62.2641 46.0792 67.7849 35.9838L63.22 26.1301C63.2516 26.0208 63.2881 25.9114 63.2881 25.7912V11.2147C63.2881 10.543 62.7439 10 62.0734 10C61.4028 10 60.8586 10.543 60.8586 11.2147V21.0332L60.7457 20.7902C60.5428 20.3529 60.131 20.0578 59.616 20.0857C59.1338 20.0979 58.7025 20.393 58.5191 20.8413L40.2985 65.4173C40.2171 65.6153 40.1953 65.8279 40.2232 66.0344Z" fill="white"/>
<path d="M23.3765 81.0418C23.1505 81.4172 23.1457 81.8836 23.3607 82.2663C23.5757 82.6477 23.9802 82.8821 24.4175 82.8821H70.5763C74.8022 82.8821 78.3711 80.2693 80.5259 76.8086H25.9164L23.3765 81.0418Z" fill="white"/>
</g>
<path d="M93.4992 87.5721C89.5338 87.5721 87.4059 86.6964 85.6961 85.9928C84.2955 85.4165 83.2834 85 80.9984 85C78.7137 85 77.7018 85.4164 76.301 85.9928C74.5914 86.6965 72.4635 87.5721 68.4982 87.5721C64.533 87.5721 62.4053 86.6964 60.6955 85.9928C59.2951 85.4165 58.283 85 55.9982 85C53.7137 85 52.702 85.4164 51.3014 85.9928C49.5918 86.6964 47.4641 87.5721 43.499 87.5721C39.5338 87.5721 37.4061 86.6964 35.6963 85.9928C34.2959 85.4165 33.2838 85 30.9992 85C28.7146 85 27.7025 85.4164 26.3021 85.9928C24.5924 86.6965 22.4646 87.5721 18.4994 87.5721C14.5344 87.5721 12.4066 86.6964 10.6969 85.9928C9.29648 85.4165 8.28457 85 6 85V90.4279C9.96504 90.4279 12.0928 91.3036 13.8025 92.0072C15.2029 92.5835 16.2148 93 18.4994 93C20.7842 93 21.7961 92.5836 23.1965 92.0072C24.9062 91.3035 27.034 90.4279 30.9992 90.4279C34.9645 90.4279 37.0922 91.3036 38.802 92.0072C40.2023 92.5835 41.2145 93 43.499 93C45.7836 93 46.7953 92.5836 48.1959 92.0072C49.9055 91.3036 52.0332 90.4279 55.9982 90.4279C59.9635 90.4279 62.0912 91.3036 63.801 92.0072C65.2014 92.5835 66.2135 93 68.498 93C70.7828 93 71.7947 92.5836 73.1955 92.0072C74.9051 91.3035 77.033 90.4279 80.9982 90.4279C84.9637 90.4279 87.0914 91.3036 88.8014 92.0071C90.202 92.5835 91.2141 93 93.4992 93C95.7842 93 96.7963 92.5836 98.1969 92.0072C99.9066 91.3035 102.035 90.4279 106 90.4279V85C103.715 85 102.703 85.4164 101.302 85.9928C99.5924 86.6964 97.4646 87.5721 93.4992 87.5721Z" fill="white"/>
<path d="M93.4992 95.5721C89.5338 95.5721 87.4059 94.6964 85.6961 93.9928C84.2955 93.4165 83.2834 93 80.9984 93C78.7137 93 77.7018 93.4164 76.301 93.9928C74.5914 94.6965 72.4635 95.5721 68.4982 95.5721C64.533 95.5721 62.4053 94.6964 60.6955 93.9928C59.2951 93.4165 58.283 93 55.9982 93C53.7137 93 52.702 93.4164 51.3014 93.9928C49.5918 94.6964 47.4641 95.5721 43.499 95.5721C39.5338 95.5721 37.4061 94.6964 35.6963 93.9928C34.2959 93.4165 33.2838 93 30.9992 93C28.7146 93 27.7025 93.4164 26.3021 93.9928C24.5924 94.6965 22.4646 95.5721 18.4994 95.5721C14.5344 95.5721 12.4066 94.6964 10.6969 93.9928C9.29648 93.4165 8.28457 93 6 93V98.4279C9.96504 98.4279 12.0928 99.3036 13.8025 100.007C15.2029 100.583 16.2148 101 18.4994 101C20.7842 101 21.7961 100.584 23.1965 100.007C24.9062 99.3035 27.034 98.4279 30.9992 98.4279C34.9645 98.4279 37.0922 99.3036 38.802 100.007C40.2023 100.583 41.2145 101 43.499 101C45.7836 101 46.7953 100.584 48.1959 100.007C49.9055 99.3036 52.0332 98.4279 55.9982 98.4279C59.9635 98.4279 62.0912 99.3036 63.801 100.007C65.2014 100.583 66.2135 101 68.498 101C70.7828 101 71.7947 100.584 73.1955 100.007C74.9051 99.3035 77.033 98.4279 80.9982 98.4279C84.9637 98.4279 87.0914 99.3036 88.8014 100.007C90.202 100.583 91.2141 101 93.4992 101C95.7842 101 96.7963 100.584 98.1969 100.007C99.9066 99.3035 102.035 98.4279 106 98.4279V93C103.715 93 102.703 93.4164 101.302 93.9928C99.5924 94.6964 97.4646 95.5721 93.4992 95.5721Z" fill="white"/>
<path d="M93.4992 103.572C89.5338 103.572 87.4059 102.696 85.6961 101.993C84.2955 101.417 83.2834 101 80.9984 101C78.7137 101 77.7018 101.416 76.301 101.993C74.5914 102.697 72.4635 103.572 68.4982 103.572C64.533 103.572 62.4053 102.696 60.6955 101.993C59.2951 101.417 58.283 101 55.9982 101C53.7137 101 52.702 101.416 51.3014 101.993C49.5918 102.696 47.4641 103.572 43.499 103.572C39.5338 103.572 37.4061 102.696 35.6963 101.993C34.2959 101.417 33.2838 101 30.9992 101C28.7146 101 27.7025 101.416 26.3021 101.993C24.5924 102.697 22.4646 103.572 18.4994 103.572C14.5344 103.572 12.4066 102.696 10.6969 101.993C9.29648 101.417 8.28457 101 6 101V106.428C9.96504 106.428 12.0928 107.304 13.8025 108.007C15.2029 108.583 16.2148 109 18.4994 109C20.7842 109 21.7961 108.584 23.1965 108.007C24.9062 107.303 27.034 106.428 30.9992 106.428C34.9645 106.428 37.0922 107.304 38.802 108.007C40.2023 108.583 41.2145 109 43.499 109C45.7836 109 46.7953 108.584 48.1959 108.007C49.9055 107.304 52.0332 106.428 55.9982 106.428C59.9635 106.428 62.0912 107.304 63.801 108.007C65.2014 108.583 66.2135 109 68.498 109C70.7828 109 71.7947 108.584 73.1955 108.007C74.9051 107.303 77.033 106.428 80.9982 106.428C84.9637 106.428 87.0914 107.304 88.8014 108.007C90.202 108.583 91.2141 109 93.4992 109C95.7842 109 96.7963 108.584 98.1969 108.007C99.9066 107.303 102.035 106.428 106 106.428V101C103.715 101 102.703 101.416 101.302 101.993C99.5924 102.696 97.4646 103.572 93.4992 103.572Z" fill="white"/>
</g>
<defs>
<clipPath id="clip0">
<rect x="7.41187" y="7.41162" width="97.1765" height="97.1765" rx="48.5882" fill="white"/>
</clipPath>
<clipPath id="clip1">
<rect width="72.8823" height="72.8824" fill="white" transform="translate(19.5588 14.5571)"/>
</clipPath>
</defs>
</svg>
