<svg width="112" height="112" viewBox="0 0 112 112" fill="none" xmlns="http://www.w3.org/2000/svg">
<rect width="112" height="112" rx="56" fill="white"/>
<g clip-path="url(#clip0)">
<rect x="7.41187" y="7.41162" width="97.1765" height="97.1765" rx="48.5882" fill="#042454"/>
<g clip-path="url(#clip1)">
<path d="M42.3247 43.082H40.5736C40.1321 43.082 39.7722 43.4424 39.7722 43.8839V45.2188H43.1261V43.8839C43.1261 43.4424 42.7658 43.082 42.3247 43.082Z" fill="white"/>
<path d="M39.7722 49.7231H43.1261V51.8604H39.7722V49.7231Z" fill="white"/>
<path d="M94.2252 92.8929H93.3652V66.1162H94.2252C95.4686 66.1162 96.4774 65.1083 96.4774 63.864C96.4774 62.6206 95.4686 61.6118 94.2252 61.6118H60.2922V66.1162H22.606V92.8929H21.8552C20.6118 92.8929 19.603 93.9008 19.603 95.1451C19.603 96.3885 20.6118 97.3973 21.8552 97.3973L56.5001 109L94.2252 97.3973C95.4686 97.3973 96.4774 96.3885 96.4774 95.1451C96.4774 93.9008 95.4686 92.8929 94.2252 92.8929ZM47.6306 92.8929H43.1263V76.892C43.1263 76.451 42.7645 76.093 42.3202 76.093H40.5799C40.1351 76.093 39.7724 76.451 39.7724 76.892V92.8929H35.2689V76.892C35.2689 73.967 37.6501 71.5876 40.5799 71.5876H42.3202C45.248 71.5876 47.6306 73.967 47.6306 76.892V92.8929ZM87.9552 92.8929H83.4508V89.6545H69.9377V92.8929H65.4333V73.0891C65.4333 71.4347 66.7804 70.0862 68.4362 70.0862H84.9537C86.6086 70.0862 87.9552 71.4347 87.9552 73.0891V92.8929Z" fill="white"/>
<path d="M21.8557 61.6108C20.6123 61.6108 19.6035 62.6206 19.6035 63.863C19.6035 65.1083 20.6123 66.1162 21.8557 66.1162H22.6064V61.6108H21.8557Z" fill="white"/>
<path d="M69.938 74.5908H83.4511V77.9494H69.938V74.5908Z" fill="white"/>
<path d="M69.938 82.1543H83.4511V85.7498H69.938V82.1543Z" fill="white"/>
<path d="M23.0595 36.4721L40.8945 25.1834C41.2319 24.9704 41.6668 24.9704 42.0042 25.1834L59.8392 36.4721C60.2132 36.709 60.6298 36.8217 61.0418 36.8217C61.7883 36.8217 62.5179 36.451 62.9468 35.7734C63.6116 34.7224 63.2991 33.3312 62.2481 32.6664L44.4131 21.3772C42.6132 20.2375 40.2864 20.2375 38.4861 21.3772L20.6506 32.6664C19.5995 33.3312 19.287 34.7224 19.9524 35.7734C20.6172 36.8245 22.0084 37.1379 23.0595 36.4721Z" fill="white"/>
<path d="M42.0044 29.6876C41.6666 29.4746 41.2316 29.4746 40.8947 29.6876L22.606 41.2986V61.612H60.2922V41.1292L42.0044 29.6876ZM47.6306 53.9526C47.6306 55.2833 46.5491 56.3644 45.2189 56.3644H37.6792C36.349 56.3644 35.268 55.2833 35.268 53.9526V43.8839C35.268 40.9579 37.6492 38.5777 40.5738 38.5777H42.3249C45.249 38.5777 47.6306 40.9579 47.6306 43.8839V53.9526Z" fill="white"/>
</g>
<rect x="35" y="99" width="42" height="6" fill="white"/>
</g>
<defs>
<clipPath id="clip0">
<rect x="7.41187" y="7.41162" width="97.1765" height="97.1765" rx="48.5882" fill="white"/>
</clipPath>
<clipPath id="clip1">
<rect width="82" height="82" fill="white" transform="translate(17 18)"/>
</clipPath>
</defs>
</svg>
