<svg width="112" height="112" viewBox="0 0 112 112" fill="none" xmlns="http://www.w3.org/2000/svg">
<rect width="112" height="112" rx="56" fill="white"/>
<rect x="7.41187" y="7.41162" width="97.1765" height="97.1765" rx="48.5882" fill="#042454"/>
<path d="M79.9837 43.1353C74.1053 37.2569 66.4486 33.804 58.2266 33.2746V30.5859H62.0117V26.1328H49.9883V30.5859H53.7734V33.2746C45.5514 33.804 37.8947 37.2569 32.0163 43.1353C25.9524 49.1992 22.4694 57.1551 22.1145 65.6717H89.8855C89.5306 57.1551 86.0476 49.1992 79.9837 43.1353ZM33.7193 60.5773L29.312 59.9406C29.3543 59.6449 30.4125 52.6591 35.2657 48.3938L38.2055 51.7383C34.6296 54.8816 33.7274 60.521 33.7193 60.5773Z" fill="white"/>
<path d="M18 70.125V70.7385C18 75.6902 22.0287 79.7189 26.9805 79.7189H85.0195C89.9713 79.7189 94 75.6902 94 70.7385V70.125H18Z" fill="white"/>
</svg>
