<svg width="112" height="112" viewBox="0 0 112 112" fill="none" xmlns="http://www.w3.org/2000/svg">
<rect width="112" height="112" rx="56" fill="white"/>
<g clip-path="url(#clip0)">
<rect x="7.41187" y="7.41162" width="97.1765" height="97.1765" rx="48.5882" fill="#042454"/>
<g clip-path="url(#clip1)">
<path d="M48.158 38.1737C44.5088 45.6118 45.3062 54.4833 50.2353 61.3413L53.3822 65.3032C53.8861 65.2517 54.4205 65.2206 54.9982 65.2206C58.9635 65.2206 61.0912 66.5505 62.801 67.6191C64.2013 68.4943 65.2135 69.1269 67.498 69.1269C69.7828 69.1269 70.7947 68.4944 72.1955 67.6191C73.9051 66.5503 76.033 65.2206 79.9982 65.2206C81.3268 65.2206 82.4453 65.372 83.4146 65.6107C78.5881 58.7839 69.4799 58.6648 69.4455 58.6632C64.2068 58.4167 59.965 54.1312 59.7697 48.8903C59.5539 43.0946 64.1881 38.3284 69.9357 38.3284C73.968 38.3284 77.4517 40.6745 79.0978 44.0757C79.7582 45.2573 80.1361 46.6181 80.1361 48.0679L80.1504 47.1247C80.1504 36.8396 71.8127 28.5017 61.5273 28.5017C51.242 28.5017 61.0322 28.4903 60.8676 28.5015C55.6158 28.8579 50.8252 32.6825 48.158 38.1737Z" fill="white"/>
<path d="M37.8018 67.6191C39.2022 68.4943 40.2143 69.1269 42.4989 69.1269C44.7834 69.1269 45.7952 68.4945 47.1957 67.6191C47.3151 67.5445 47.4371 67.4686 47.561 67.392L45.5245 64.8264C39.3006 56.2168 38.2872 45.0406 42.8733 35.6445C38.284 39.8449 34.0094 46.4861 31.6403 56.9732C31.6403 56.9732 30.7153 61.2828 28.1096 65.3332C28.6909 65.2625 29.3159 65.2207 29.9989 65.2207C33.9643 65.2207 36.092 66.5504 37.8018 67.6191Z" fill="white"/>
<path d="M92.4992 89.0894C88.5338 89.0894 86.4059 87.7595 84.6961 86.6909C83.2955 85.8157 82.2834 85.1831 79.9984 85.1831C77.7137 85.1831 76.7018 85.8155 75.301 86.6909C73.5914 87.7597 71.4635 89.0894 67.4982 89.0894C63.533 89.0894 61.4053 87.7595 59.6955 86.6909C58.2951 85.8157 57.283 85.1831 54.9982 85.1831C52.7137 85.1831 51.702 85.8155 50.3014 86.6909C48.5918 87.7595 46.4641 89.0894 42.499 89.0894C38.5338 89.0894 36.4061 87.7595 34.6963 86.6909C33.2959 85.8157 32.2838 85.1831 29.9992 85.1831C27.7146 85.1831 26.7025 85.8155 25.3021 86.6909C23.5924 87.7597 21.4646 89.0894 17.4994 89.0894C13.5344 89.0894 11.4066 87.7595 9.69688 86.6909C8.29648 85.8157 7.28457 85.1831 5 85.1831V109.524H105V85.1831C102.715 85.1831 101.703 85.8155 100.302 86.6909C98.5924 87.7595 96.4646 89.0894 92.4992 89.0894ZM79.9984 99.3907C77.7137 99.3907 76.7018 100.023 75.301 100.899C73.5914 101.967 71.4635 103.297 67.4982 103.297C63.533 103.297 61.4053 101.967 59.6955 100.899C58.2949 100.023 57.283 99.3907 54.9982 99.3907C52.7137 99.3907 51.702 100.023 50.3014 100.899C48.5918 101.967 46.4641 103.297 42.499 103.297C38.5338 103.297 36.4061 101.967 34.6963 100.899C33.2959 100.023 32.2838 99.3907 29.9992 99.3907V93.5314C33.9645 93.5314 36.0922 94.8612 37.802 95.9298C39.2023 96.805 40.2145 97.4376 42.499 97.4376C44.7836 97.4376 45.7953 96.8052 47.1959 95.9298C48.9055 94.861 51.0332 93.5314 54.9982 93.5314C58.9635 93.5314 61.0912 94.8612 62.801 95.9298C64.2014 96.805 65.2135 97.4376 67.498 97.4376C69.7828 97.4376 70.7947 96.8052 72.1955 95.9298C73.9051 94.861 76.033 93.5314 79.9982 93.5314V99.3907H79.9984Z" fill="white"/>
<path d="M92.4992 74.9863C88.5338 74.9863 86.4059 73.6564 84.6961 72.5879C83.2955 71.7127 82.2834 71.0801 79.9984 71.0801C77.7137 71.0801 76.7018 71.7125 75.301 72.5879C73.5914 73.6566 71.4635 74.9863 67.4982 74.9863C63.533 74.9863 61.4053 73.6564 59.6955 72.5879C58.2951 71.7127 57.283 71.0801 54.9982 71.0801C52.7137 71.0801 51.702 71.7125 50.3014 72.5879C48.5918 73.6564 46.4641 74.9863 42.499 74.9863C38.5338 74.9863 36.4061 73.6564 34.6963 72.5879C33.2959 71.7127 32.2838 71.0801 29.9992 71.0801C27.7146 71.0801 26.7025 71.7125 25.3021 72.5879C23.5924 73.6566 21.4646 74.9863 17.4994 74.9863C13.5344 74.9863 11.4066 73.6564 9.69688 72.5879C8.29648 71.7127 7.28457 71.0801 5 71.0801V79.3236C8.96504 79.3236 11.0928 80.6535 12.8025 81.7221C14.2029 82.5973 15.2148 83.2299 17.4994 83.2299C19.7842 83.2299 20.7961 82.5975 22.1965 81.7221C23.9062 80.6533 26.034 79.3236 29.9992 79.3236C33.9645 79.3236 36.0922 80.6535 37.802 81.7221C39.2023 82.5973 40.2145 83.2299 42.499 83.2299C44.7836 83.2299 45.7953 82.5975 47.1959 81.7221C48.9055 80.6535 51.0332 79.3236 54.9982 79.3236C58.9635 79.3236 61.0912 80.6535 62.801 81.7221C64.2014 82.5973 65.2135 83.2299 67.498 83.2299C69.7828 83.2299 70.7947 82.5975 72.1955 81.7221C73.9051 80.6533 76.033 79.3236 79.9982 79.3236C83.9637 79.3236 86.0914 80.6535 87.8014 81.7219C89.202 82.5973 90.2141 83.2299 92.4992 83.2299C94.7842 83.2299 95.7963 82.5975 97.1969 81.7221C98.9066 80.6533 101.035 79.3236 105 79.3236V71.0801C102.715 71.0801 101.703 71.7125 100.302 72.5879C98.5924 73.6564 96.4646 74.9863 92.4992 74.9863Z" fill="white"/>
</g>
</g>
<defs>
<clipPath id="clip0">
<rect x="7.41187" y="7.41162" width="97.1765" height="97.1765" rx="48.5882" fill="white"/>
</clipPath>
<clipPath id="clip1">
<rect width="100" height="100" fill="white" transform="translate(5 19)"/>
</clipPath>
</defs>
</svg>
