<svg width="112" height="112" viewBox="0 0 112 112" fill="none" xmlns="http://www.w3.org/2000/svg">
<rect width="112" height="112" rx="56" fill="white"/>
<rect x="7.41187" y="7.41162" width="97.1765" height="97.1765" rx="48.5882" fill="#042454"/>
<g clip-path="url(#clip0)">
<path d="M37.7007 35.1118C38.2109 35.937 39.0939 36.391 39.9977 36.391C40.4818 36.391 40.972 36.2606 41.4139 35.9875C42.6811 35.2038 43.0732 33.5414 42.2896 32.2742C41.7013 31.3231 41.9865 29.988 42.526 27.9026C43.1059 25.6618 43.8274 22.8729 42.3156 20.3226C41.5561 19.041 39.9019 18.6178 38.6195 19.3773C37.338 20.137 36.9148 21.7917 37.6744 23.0734C38.042 23.6937 37.6662 25.1463 37.3028 26.5512C36.6594 29.0382 35.8585 32.133 37.7007 35.1118Z" fill="white"/>
<path d="M46.3373 35.1119C46.8476 35.9371 47.7306 36.3912 48.6345 36.3912C49.1185 36.3912 49.6085 36.261 50.0506 35.9877C51.3178 35.2044 51.7099 33.5418 50.9264 32.2747C50.3382 31.3233 50.6232 29.9885 51.1627 27.903C51.7426 25.6622 52.4639 22.8735 50.9524 20.3231C50.1928 19.0414 48.5376 18.6183 47.2564 19.3778C45.9747 20.1375 45.5515 21.7922 46.311 23.0738C46.6788 23.6941 46.3029 25.1468 45.9394 26.5516C45.2964 29.0383 44.4957 32.1331 46.3373 35.1119Z" fill="white"/>
<path d="M23.9072 65.127L26.352 81.1746C26.3657 81.2642 26.3725 81.3547 26.3725 81.4454C26.3725 84.5192 28.6211 87.0765 31.5595 87.5621L29.6845 65.127H23.9072Z" fill="white"/>
<path d="M35.176 87.6464H42.5219V86.4134C41.7727 85.1284 41.1486 83.7506 40.6753 82.2898C40.057 80.3803 40.3926 78.2711 41.5728 76.6485C41.8513 76.2656 42.1711 75.9206 42.5218 75.6145V65.127H33.2939L35.176 87.6464Z" fill="white"/>
<path d="M46.6635 74.056H54.6007L55.3469 65.127H46.1187V74.0826C46.2992 74.0667 46.4807 74.056 46.6635 74.056Z" fill="white"/>
<path d="M58.21 74.056H63.3729L64.7333 65.127H58.9562L58.21 74.056Z" fill="white"/>
<path d="M66.8574 51.1846L67.4447 47.3305C67.5942 46.3476 67.3085 45.3513 66.6607 44.5972C66.0128 43.8432 65.0709 43.4106 64.0767 43.4106H60.7713L60.1301 51.0813H65.9608C66.265 51.0813 66.5656 51.1173 66.8574 51.1846Z" fill="white"/>
<path d="M22.6431 51.0815H28.5108L27.8697 43.4106H24.5642C23.5699 43.4106 22.628 43.8432 21.9801 44.5972C21.3323 45.3513 21.0466 46.3476 21.1962 47.3305L21.7821 51.1766C22.0631 51.1144 22.3514 51.0815 22.6431 51.0815Z" fill="white"/>
<path d="M42.5219 51.0815V43.4106H31.479L32.1201 51.0815H42.5219Z" fill="white"/>
<path d="M46.1187 51.0815H56.5208L57.1618 43.4106H46.1187V51.0815Z" fill="white"/>
<path d="M94.3459 41.4919C93.4848 40.2762 91.8011 39.989 90.5852 40.8501C90.0256 41.2468 77.1702 50.6319 72.4819 77.4737H46.9062C46.0431 77.4737 45.2322 77.8866 44.7246 78.5848C44.2168 79.2828 44.0739 80.1815 44.3397 81.0027C46.664 88.1788 53.2954 93.0004 60.8409 93.0004C68.3635 93.0004 74.9775 88.2077 77.3205 81.0674C77.3806 80.8972 77.424 80.719 77.4487 80.5351C78.0958 76.2758 78.9611 72.4823 79.9442 69.1249C82.1134 61.7171 84.8572 56.4342 87.0993 52.9662C87.5375 52.2884 87.9688 51.66 88.3882 51.0789C91.334 46.9977 93.688 45.2642 93.704 45.2528C94.9198 44.3914 95.207 42.7076 94.3459 41.4919Z" fill="white"/>
<path d="M64.5316 63.0206C65.4994 63.0206 66.316 62.3013 66.4383 61.3415L67.2081 55.294C67.3543 54.1456 66.4594 53.1294 65.3016 53.1294H23.3392C22.1815 53.1294 21.2864 54.1454 21.4327 55.294L22.2025 61.3415C22.3246 62.3013 23.1415 63.0206 24.109 63.0206H64.5316Z" fill="white"/>
</g>
<defs>
<clipPath id="clip0">
<rect width="74" height="74" fill="white" transform="translate(21 19)"/>
</clipPath>
</defs>
</svg>
