<svg width="112" height="112" viewBox="0 0 112 112" fill="none" xmlns="http://www.w3.org/2000/svg">
<rect width="112" height="112" rx="56" fill="white"/>
<rect x="7.41187" y="7.41162" width="97.1765" height="97.1765" rx="48.5882" fill="#042454"/>
<path d="M82.3353 38.3293C87.1207 38.3293 90.9999 34.45 90.9999 29.6646C90.9999 24.8793 87.1207 21 82.3353 21C77.5499 21 73.6707 24.8793 73.6707 29.6646C73.6707 34.45 77.5499 38.3293 82.3353 38.3293Z" fill="white"/>
<path d="M6.16797 60.3124H30.1596V73.3202H34.4124V60.3124H51.8393V73.3202H56.1752V60.3124H67.015C68.2126 60.3124 69.1839 59.3404 69.183 58.1426L69.1758 49.4707C69.1748 48.2741 68.2044 47.3046 67.0078 47.3046H64.8471V42.8241H67.015C68.2123 42.8241 69.183 41.8534 69.183 40.6562C69.183 39.4589 68.2123 38.4882 67.015 38.4882H64.8471V34.145C64.8471 32.9477 63.8764 31.9771 62.6791 31.9771C61.4818 31.9771 60.5111 32.9477 60.5111 34.145V38.4882H47.5033V34.145C47.5033 32.9477 46.5326 31.9771 45.3354 31.9771C44.1381 31.9771 43.1674 32.9477 43.1674 34.145V38.4882H30.1451V34.145C30.1451 32.9477 29.1744 31.9771 27.9771 31.9771C26.7799 31.9771 25.8092 32.9477 25.8092 34.145V38.4882H6.3125C5.1152 38.4882 4.14453 39.4589 4.14453 40.6562C4.14453 41.8534 5.1152 42.8241 6.3125 42.8241H25.8092V47.3046H6.16797C4.97067 47.3046 4 48.2753 4 49.4726V58.1444C4 59.3417 4.97067 60.3124 6.16797 60.3124ZM60.5111 42.8241V47.3046H47.5033V42.8241H60.5111ZM30.1451 42.8241H43.1674V47.3046H30.1451V42.8241Z" fill="white"/>
<path d="M104.832 64.6484H60.5111V75.4883C60.5111 76.6856 59.5405 77.6562 58.3432 77.6562H49.6713C48.474 77.6562 47.5033 76.6856 47.5033 75.4883V64.6484H38.7483V75.4883C38.7483 76.6856 37.7777 77.6562 36.5804 77.6562H27.9916C26.7943 77.6562 25.8236 76.6856 25.8236 75.4883V64.6484H8.16797C6.97067 64.6484 6 65.6191 6 66.8164V92.832C6 94.0293 6.97067 95 8.16797 95H104.832C106.029 95 107 94.0293 107 92.832V66.8164C107 65.6191 106.029 64.6484 104.832 64.6484ZM80.0084 86.3281H27.9916C26.7943 86.3281 25.8236 85.3575 25.8236 84.1602C25.8236 82.9629 26.7943 81.9922 27.9916 81.9922H80.0084C81.2057 81.9922 82.1764 82.9629 82.1764 84.1602C82.1764 85.3575 81.2057 86.3281 80.0084 86.3281ZM80.0084 77.6562H67.0006C65.8033 77.6562 64.8326 76.6856 64.8326 75.4883C64.8326 74.291 65.8033 73.3203 67.0006 73.3203H80.0084C81.2057 73.3203 82.1764 74.291 82.1764 75.4883C82.1764 76.6856 81.2057 77.6562 80.0084 77.6562Z" fill="white"/>
</svg>
