<svg width="112" height="112" viewBox="0 0 112 112" fill="none" xmlns="http://www.w3.org/2000/svg">
<rect width="112" height="112" rx="56" fill="white"/>
<g clip-path="url(#clip0)">
<rect x="7.41187" y="7.41162" width="97.1765" height="97.1765" rx="48.5882" fill="#042454"/>
<g clip-path="url(#clip1)">
<path d="M84.0471 26.9406C76.5091 19.4026 63.0117 20.6281 53.9669 29.6748C50.4811 33.1625 48.0491 37.3884 46.9349 41.8938L41.0651 65.6336L39.3857 63.9547L24.7117 78.1016C22.4404 80.3727 22.4478 84.0442 24.7117 86.3043C26.9718 88.5641 30.6522 88.5665 32.9144 86.3043L47.5903 72.1572L45.8436 70.4111L69.6509 63.9093C73.9486 62.7348 77.9819 60.3518 81.3129 57.0208C90.3596 47.9741 91.5869 34.4806 84.0471 26.9406ZM81.3129 29.675C82.2629 30.625 82.9687 31.7308 83.5623 32.8959L75.8444 40.6138L70.374 35.1434L78.094 27.4235C79.2586 28.0169 80.3635 28.7256 81.3129 29.675ZM73.1103 43.3479L67.6399 48.8183L62.1696 43.3479L67.6399 37.8775L73.1103 43.3479ZM73.99 26.0592L67.6399 32.4092L63.1308 27.9001C66.5769 26.2497 70.1865 25.4551 73.99 26.0592ZM56.7011 32.4092C57.642 31.4683 58.6562 30.6696 59.6895 29.9272L64.9056 35.1433L59.4352 40.6137L54.2116 35.39C54.9601 34.3503 55.7693 33.3417 56.7011 32.4092ZM52.1823 38.8291L56.7012 43.348L50.35 49.6992C49.7268 45.7671 50.5575 42.2232 52.1823 38.8291ZM44.7875 66.6898L47.7835 54.573C48.6101 56.5041 49.7481 58.2698 51.2327 59.7552C52.8302 61.3527 54.7281 62.5704 56.8187 63.404L44.7875 66.6898ZM53.967 57.021C53.0288 56.0823 52.2728 55.0085 51.6739 53.8437L59.4355 46.0821L64.9057 51.5525L57.1506 59.3076C55.9765 58.7103 54.8995 57.9535 53.967 57.021ZM61.3053 60.6214L67.6399 54.2867L72.1649 58.8117C68.9074 60.3728 65.3514 61.266 61.3053 60.6214ZM78.5787 54.2867C77.648 55.2174 76.6377 56.0254 75.5962 56.7745L70.3742 51.5525L75.8446 46.0821L81.0926 51.3302C80.3524 52.3586 79.5153 53.3501 78.5787 54.2867ZM78.5787 43.3479L84.8804 37.0463C85.4214 40.498 84.8499 44.2899 83.1209 47.8902L78.5787 43.3479Z" fill="white"/>
<path d="M34.7693 22.0786C30.5155 22.0786 27.0349 25.5589 27.0349 29.813C27.0349 34.0667 30.5155 37.5473 34.7693 37.5473C39.023 37.5473 42.5036 34.0667 42.5036 29.813C42.5036 25.5589 39.023 22.0786 34.7693 22.0786Z" fill="white"/>
</g>
</g>
<defs>
<clipPath id="clip0">
<rect x="7.41187" y="7.41162" width="97.1765" height="97.1765" rx="48.5882" fill="white"/>
</clipPath>
<clipPath id="clip1">
<rect width="66" height="66" fill="white" transform="translate(23 22)"/>
</clipPath>
</defs>
</svg>
