<svg width="112" height="112" viewBox="0 0 112 112" fill="none" xmlns="http://www.w3.org/2000/svg">
<rect width="112" height="112" rx="56" fill="white"/>
<rect x="7.41187" y="7.41162" width="97.1765" height="97.1765" rx="48.5882" fill="#042454"/>
<g clip-path="url(#clip0)">
<path d="M35.7102 48.9946L29.5706 65.3711V65.3724C31.073 71.3745 34.3753 76.6805 39.05 80.6827L46.7533 77.7941C38.5711 70.4657 34.5326 59.6864 35.7102 48.9946Z" fill="white"/>
<path d="M27.4919 70.9146L22.786 83.4626C22.2235 84.9612 23.6897 86.4436 25.1996 85.8762L35.1277 82.1539C31.7977 78.9218 29.2144 75.0701 27.4919 70.9146Z" fill="white"/>
<path d="M48.8719 47.4671L41.8735 40.4688C36.1994 53.2682 40.0785 67.898 50.7842 76.2828L58.2538 73.4817C51.6937 66.7072 48.1455 57.2511 48.8719 47.4671Z" fill="white"/>
<path d="M52.533 51.1284C52.8204 59.0842 56.2852 66.6025 62.1474 72.0209H62.1486L67.6233 69.9685C68.902 69.4886 69.2519 67.8474 68.2907 66.8862L52.533 51.1284Z" fill="white"/>
<path d="M66.2269 57.0187C66.9591 57.7509 68.1462 57.7509 68.8784 57.0187C75.932 49.9651 82.8002 52.1458 82.8688 52.1686C83.8511 52.4959 84.9129 51.9651 85.2404 50.9828C85.568 50.0007 85.0369 48.9387 84.0546 48.6112C83.6849 48.4881 74.9011 45.693 66.227 54.3672C65.4947 55.0993 65.4946 56.2866 66.2269 57.0187Z" fill="white"/>
<path d="M54.2953 42.4351C62.9697 33.7619 60.1737 24.9774 60.0512 24.6074C59.7237 23.625 58.6613 23.095 57.6788 23.4225C56.6976 23.75 56.1664 24.8112 56.4939 25.7936C56.5164 25.8624 58.6975 32.7307 51.6429 39.784C50.9154 40.5116 50.908 41.6979 51.6429 42.4351C52.379 43.1711 53.5651 43.1653 54.2953 42.4351Z" fill="white"/>
<path d="M58.2723 46.4127C57.5401 47.1449 57.5401 48.332 58.2723 49.0642C58.9978 49.7898 60.1766 49.7993 60.9126 49.0753C61.8812 48.5927 64.8875 50.4028 66.5583 48.7327C68.2111 47.0798 66.455 44.1346 66.8936 43.1024C67.9272 42.6627 70.8713 44.4196 72.5241 42.7669C74.1772 41.114 72.4211 38.1688 72.8597 37.1365C73.8947 36.6967 76.8372 38.4538 78.4899 36.801C80.1431 35.1481 78.3869 32.2029 78.8255 31.1706C79.8545 30.733 82.8043 32.4862 84.4561 30.835C86.1261 29.1648 84.3193 26.1531 84.7984 25.1895C85.5196 24.4565 85.5158 23.2777 84.7873 22.5492C84.0552 21.8169 82.868 21.8169 82.1358 22.5492C80.6581 24.0269 80.9472 26.1132 81.2255 27.6047C79.734 27.3264 77.6479 27.0373 76.1701 28.5149C74.6923 29.9927 74.9814 32.079 75.2598 33.5705C73.7682 33.2923 71.6819 33.0029 70.2042 34.4808C68.7264 35.9586 69.0156 38.0448 69.294 39.5364C67.8022 39.258 65.7161 38.9688 64.2384 40.4466C62.7606 41.9244 63.0498 44.0106 63.3281 45.5021C61.8365 45.224 59.75 44.9349 58.2723 46.4127Z" fill="white"/>
<path d="M68.8784 30.5038C69.6106 29.7716 69.6106 28.5846 68.8784 27.8524C68.1461 27.1202 66.9591 27.1202 66.2269 27.8524C65.4947 28.5846 65.4947 29.7716 66.2269 30.5038C66.9591 31.236 68.1461 31.236 68.8784 30.5038Z" fill="white"/>
<path d="M80.8099 44.3103C81.8454 44.3103 82.6848 43.4709 82.6848 42.4354C82.6848 41.4 81.8454 40.5605 80.8099 40.5605C79.7745 40.5605 78.9351 41.4 78.9351 42.4354C78.9351 43.4709 79.7745 44.3103 80.8099 44.3103Z" fill="white"/>
<path d="M76.8326 59.6702C76.1004 60.4025 76.1004 61.5895 76.8326 62.3217C77.5648 63.0539 78.7519 63.0539 79.4841 62.3217C80.2163 61.5895 80.2163 60.4025 79.4841 59.6702C78.752 58.938 77.5648 58.938 76.8326 59.6702Z" fill="white"/>
<path d="M50.3178 33.1552C51.05 32.423 51.05 31.2359 50.3178 30.5037C49.5856 29.7715 48.3985 29.7715 47.6663 30.5037C46.9341 31.2358 46.9341 32.423 47.6663 33.1552C48.3985 33.8874 49.5857 33.8874 50.3178 33.1552Z" fill="white"/>
</g>
<defs>
<clipPath id="clip0">
<rect width="64" height="64" fill="white" transform="translate(22 22)"/>
</clipPath>
</defs>
</svg>
