<svg width="538" height="147" viewBox="0 0 538 147" fill="none" xmlns="http://www.w3.org/2000/svg">
<path d="M103.855 145.388C96.5312 144.627 89.1545 144.26 82.4604 141.006C80.5805 140.083 78.8178 138.937 77.2102 137.595L83.1692 126.707H86.8182V117.156H71.8024C72.7726 115.337 74.1686 113.78 75.8713 112.617L76.7377 112.066C78.1385 111.374 79.3878 110.411 80.4128 109.232C80.6366 108.961 80.7992 108.645 80.8894 108.305C80.9796 107.966 80.9952 107.611 80.9354 107.264C80.8756 106.918 80.7417 106.589 80.5427 106.299C80.3438 106.009 80.0845 105.766 79.7828 105.585L78.9165 105.034C77.1396 104.05 75.2544 103.275 73.2987 102.725L72.1962 102.411C70.8836 102.096 69.5711 101.86 68.206 101.676L60.593 31.4117H64.242V24.8523H54.5028V18.2142C55.957 16.6873 56.9175 14.7582 57.2591 12.678H59.543V18.9751H64.2945V2.76022H59.543V9.10971H57.2591C56.9232 6.58847 55.6826 4.27494 53.7681 2.59932C51.8535 0.923692 49.3953 0 46.8505 0C44.3057 0 41.8474 0.923692 39.9328 2.59932C38.0183 4.27494 36.7778 6.58847 36.4418 9.10971H34.1317V2.76022H29.3802V18.9751H34.1317V12.678H36.4418C36.7904 14.7953 37.7798 16.7549 39.277 18.2929V24.931H29.5377V31.4904H33.2129L23.8937 117.235H6.96156V126.785H10.6105L14.627 134.106V135.391L14.4957 135.522C11.1337 138.688 7.26502 141.269 3.05013 143.158C-1.17634 144.994 -1.01888 145.781 3.57511 144.391C8.17307 142.844 12.4709 140.518 16.2808 137.516C23.9725 131.639 30.2728 124.686 37.2819 119.308C39.0145 117.917 40.7996 116.684 42.5322 115.477C44.2525 114.391 46.0512 113.435 47.9137 112.617C51.3734 110.901 55.1818 110.003 59.0442 109.993C64.4782 109.993 64.8195 113.771 64.2945 117.392C64.2945 117.392 64.2945 117.392 64.2945 117.523C63.8595 119.486 63.6743 121.496 63.7432 123.506C63.9708 128.837 66.1037 133.911 69.7548 137.805C73.0374 141.043 77.0677 143.422 81.4892 144.732C88.6564 146.539 96.0524 147.273 103.435 146.91C107.819 146.91 111.048 146.332 103.672 145.545L103.855 145.388ZM39.277 31.4117H54.424L57.9679 64.1824H35.6018L39.277 31.4117ZM57.9154 101.886C53.2416 102.669 48.7495 104.296 44.6585 106.687C40.6387 109.107 36.9276 112.006 33.6067 115.319L31.7166 117.182H29.9578L32.5829 92.9913H61.0918L62.0106 101.466C60.6456 101.466 59.3855 101.676 57.9154 101.886Z" fill="white"/>
<path d="M144.65 29.3387V25.6392H155.544V29.3387H159.902C162.254 29.3043 164.596 29.659 166.832 30.3882C168.757 31.0292 170.54 32.036 172.082 33.353C173.499 34.5427 174.638 36.0285 175.418 37.7059C176.199 39.3832 176.601 41.2112 176.598 43.0609V44.4778C176.693 46.2932 176.39 48.1076 175.71 49.7937C175.03 51.4798 173.989 52.9967 172.66 54.2381C169.411 56.8066 165.32 58.0698 161.188 57.7802H155.754V65.9139H144.282V57.7802H138.796C134.712 58.0303 130.681 56.759 127.481 54.2119C126.155 52.9745 125.115 51.462 124.434 49.7805C123.754 48.099 123.45 46.2891 123.544 44.4778V43.0609C123.531 40.6093 124.243 38.2086 125.591 36.1604C127.049 33.9744 129.097 32.246 131.498 31.1753C134.272 29.9081 137.295 29.2804 140.344 29.3387H144.65ZM144.387 34.7961H141.552C140.084 34.7727 138.651 35.244 137.483 36.1342C136.312 36.9982 135.403 38.1698 134.858 39.5188C134.258 40.9013 133.954 42.3938 133.965 43.9005C133.907 45.9486 134.546 47.9558 135.777 49.5941C136.394 50.3847 137.195 51.013 138.109 51.4245C139.024 51.836 140.026 52.0182 141.027 51.9555H144.492L144.387 34.7961ZM158.957 34.7961H155.859V52.0342H159.245C160.604 52.0876 161.942 51.691 163.052 50.906C164.1 50.1295 164.909 49.0751 165.388 47.8624C165.919 46.5725 166.186 45.19 166.176 43.7956C166.186 42.328 165.901 40.8735 165.336 39.5188C164.816 38.1988 163.955 37.04 162.842 36.1604C161.727 35.3099 160.359 34.8573 158.957 34.8748" fill="white"/>
<path d="M206.367 25.6392H217.523L229.232 57.1243L232.487 65.9139H219.939L215.581 54.2644H202.455L198.623 65.9401H192.322L203.295 34.455L206.367 25.6392ZM208.834 35.3733L203.952 48.9119H213.638L208.834 35.3733Z" fill="white"/>
<path d="M250.233 25.6393H269.239C272.043 25.5586 274.823 26.181 277.324 27.4497C279.427 28.4901 281.179 30.1227 282.364 32.1462C283.451 34.0014 284.031 36.1097 284.045 38.2596C284.039 39.7145 283.763 41.1558 283.231 42.5101C282.667 43.927 281.818 45.213 280.737 46.2883C279.568 47.4492 278.162 48.3442 276.615 48.912C274.862 49.5677 273.001 49.8882 271.129 49.8566H261.363V65.8615H250.207V25.6393H250.233ZM261.363 31.0442V44.163H265.249C266.441 44.1876 267.613 43.849 268.609 43.1922C269.567 42.5397 270.323 41.6304 270.788 40.5685C271.292 39.5301 271.552 38.3904 271.549 37.2363C271.581 35.5796 270.958 33.9769 269.816 32.7759C269.149 32.1302 268.353 31.6327 267.479 31.3162C266.606 30.9997 265.676 30.8712 264.75 30.9393L261.363 31.0442Z" fill="white"/>
<path d="M302.499 25.6396H319.431C323.39 25.3899 327.34 26.2341 330.851 28.0797C332.112 28.8787 333.181 29.9473 333.98 31.2085C334.779 32.4697 335.288 33.8922 335.471 35.3737V36.7905C335.517 38.6872 334.905 40.5414 333.738 42.0381C332.225 43.6944 330.265 44.8788 328.094 45.4489C330.947 46.1692 333.462 47.8571 335.208 50.2242C336.324 52.1617 336.896 54.3646 336.862 56.5999C336.87 57.6364 336.665 58.6635 336.259 59.6172C335.851 60.5462 335.262 61.3847 334.526 62.0836C333.077 63.5179 331.26 64.5255 329.276 64.996C328.223 65.2765 327.153 65.4869 326.073 65.6257C324.942 65.7797 323.801 65.8498 322.66 65.8356H302.315V25.6396H302.499ZM313.63 42.6678H318.513C319.227 42.7103 319.942 42.5881 320.602 42.3106C321.262 42.0331 321.85 41.6077 322.319 41.0673C323.237 40.0057 323.724 38.6391 323.684 37.2366C323.684 36.1897 323.441 35.157 322.975 34.2192C322.494 33.2608 321.758 32.453 320.849 31.8841C319.848 31.2689 318.69 30.9588 317.515 30.992H313.63V42.6678ZM313.63 60.5618H317.515C319.417 60.704 321.299 60.1019 322.765 58.8826C323.339 58.3792 323.796 57.757 324.104 57.0592C324.412 56.3613 324.565 55.6047 324.55 54.842C324.54 53.695 324.223 52.5717 323.632 51.5885C322.977 50.4731 322.022 49.5639 320.875 48.9648C319.553 48.2558 318.07 47.9031 316.57 47.9415H313.656L313.63 60.5618Z" fill="white"/>
<path d="M365.712 25.6392H376.869L388.577 57.1243L391.885 65.9139H379.337L374.979 54.2644H361.854L357.968 65.9401H351.668L362.641 34.455L365.712 25.6392ZM368.18 35.3733L363.297 48.9119H372.984L368.18 35.3733Z" fill="white"/>
<path d="M405.877 25.6392H437.379H439.321V31.4902H428.191V62.949V65.9139H417.034V34.4288V31.4902H405.877V25.6392Z" fill="white"/>
<path d="M458.012 25.6392H483.686V31.4902H469.642V42.6411H483.213V48.4921H469.642V60.1154H484.185V65.9139H458.012V34.4288V25.6392Z" fill="white"/>
<path d="M504.267 25.6393H523.194C525.998 25.5586 528.778 26.181 531.28 27.4497C533.382 28.4901 535.134 30.1227 536.32 32.1462C537.407 34.0014 537.986 36.1097 538 38.2596C537.994 39.7145 537.718 41.1558 537.186 42.5101C536.584 43.9385 535.69 45.2254 534.561 46.2883C533.392 47.4492 531.986 48.3442 530.44 48.912C528.686 49.5677 526.825 49.8882 524.953 49.8566H515.293V65.8615H504.136V25.6393H504.267ZM515.424 30.8868V44.0056H519.309C520.502 44.0301 521.674 43.6916 522.669 43.0348C523.628 42.3823 524.383 41.4729 524.848 40.411C525.352 39.3727 525.613 38.233 525.609 37.0789C525.641 35.4221 525.019 33.8195 523.877 32.6185C523.21 31.9727 522.413 31.4753 521.54 31.1587C520.667 30.8422 519.737 30.7138 518.81 30.7818L515.424 30.8868Z" fill="white"/>
<path d="M138.244 121.092L146.514 111.567C144.966 111.445 143.479 110.91 142.208 110.019C141.432 109.479 140.805 108.749 140.387 107.9C139.969 107.052 139.774 106.11 139.819 105.165C139.797 104.265 139.976 103.372 140.344 102.55C140.712 101.728 141.259 100.999 141.946 100.416C142.708 99.7358 143.601 99.218 144.571 98.8946C145.42 98.5974 146.301 98.4036 147.196 98.3174C147.852 98.3174 148.64 98.3174 149.585 98.3174H156.358V121.17H152.105V112.013H151.108L143.495 121.17L138.244 121.092ZM152.105 101.466H150.005C148.35 101.306 146.687 101.673 145.253 102.515C144.836 102.814 144.497 103.208 144.264 103.664C144.031 104.121 143.911 104.627 143.915 105.139C143.908 105.679 144.052 106.211 144.33 106.674C144.608 107.138 145.009 107.515 145.49 107.763C146.827 108.386 148.295 108.674 149.769 108.603H152.105V101.466Z" fill="white"/>
<path d="M178.724 121.092L187.518 109.154L179.827 98.2388H184.578L190.012 105.979L195.578 98.2388H200.329L192.322 109.154L200.723 121.092H195.945L189.855 112.355L183.502 121.092H178.724Z" fill="white"/>
<path d="M238.472 101.545H232.093V121.092H227.814V101.545H221.435V98.2388H238.472V101.545Z" fill="white"/>
<path d="M293.338 98.2388V107.343L304.127 98.2388H309.719L297.144 108.576L309.797 121.092H304.127L294.178 110.938L293.338 111.646V121.092H289.085V98.2388H293.338Z" fill="white"/>
<path d="M336.258 98.2388H354.057V121.092H349.778V101.545H340.511V112.906C340.574 113.779 340.574 114.656 340.511 115.529C340.386 116.327 340.129 117.099 339.75 117.812C339.312 118.648 338.671 119.361 337.886 119.885C336.374 120.841 334.607 121.317 332.819 121.249C332.194 121.249 331.569 121.188 330.956 121.065V117.838C331.462 117.967 331.982 118.038 332.504 118.048C333.447 118.123 334.384 117.842 335.129 117.261C335.621 116.856 335.971 116.304 336.127 115.687C336.307 115.134 336.422 114.561 336.468 113.981C336.468 113.509 336.468 112.801 336.468 111.856L336.258 98.2388Z" fill="white"/>
<path d="M376.344 98.2388H381.516L388.84 110.098L395.219 98.2388H399.655L387.081 121.092H382.645L386.399 114.27L376.344 98.2388Z" fill="white"/>
<path d="M421.943 121.065V98.2388H435.882V101.545H426.195V107.448H428.952C431.412 107.304 433.855 107.937 435.935 109.259C436.762 109.808 437.437 110.558 437.896 111.439C438.356 112.32 438.584 113.303 438.56 114.296C438.561 115.408 438.252 116.499 437.667 117.445C437.018 118.464 436.113 119.297 435.042 119.859C433.141 120.752 431.05 121.166 428.952 121.065H421.943ZM426.195 110.728V117.786H428.82C432.548 117.786 434.412 116.631 434.412 114.322C434.421 113.82 434.315 113.322 434.101 112.867C433.887 112.412 433.571 112.012 433.178 111.699C431.908 110.884 430.403 110.515 428.899 110.649L426.195 110.728Z" fill="white"/>
</svg>
