<svg width="22" height="22" viewBox="0 0 22 22" fill="none" xmlns="http://www.w3.org/2000/svg">
<path fill-rule="evenodd" clip-rule="evenodd" d="M12.3366 19.7426C14.6721 18.0803 19.25 14.2341 19.25 9.625C19.25 5.06865 15.5563 1.375 11 1.375C6.44365 1.375 2.75 5.06865 2.75 9.625C2.75 14.2341 7.32789 18.0803 9.66341 19.7426C10.471 20.3174 11.529 20.3174 12.3366 19.7426ZM11 12.375C12.5188 12.375 13.75 11.1438 13.75 9.625C13.75 8.10622 12.5188 6.875 11 6.875C9.48122 6.875 8.25 8.10622 8.25 9.625C8.25 11.1438 9.48122 12.375 11 12.375Z" fill="#2D2A26"/>
</svg>
