<svg width="28" height="28" viewBox="0 0 28 28" fill="none" xmlns="http://www.w3.org/2000/svg">
<path d="M27.3073 8.50658C27.2448 7.08967 27.0157 6.11557 26.6875 5.27149C26.3489 4.37552 25.8279 3.57336 25.1454 2.90652C24.4786 2.22931 23.6712 1.70308 22.7856 1.36977C21.9366 1.04154 20.9676 0.812406 19.5507 0.749935C18.1232 0.682173 17.67 0.666504 14.0495 0.666504C10.429 0.666504 9.97588 0.682173 8.55368 0.744644C7.13678 0.807116 6.16268 1.03645 5.3188 1.36448C4.42263 1.70308 3.62048 2.22402 2.95364 2.90652C2.27643 3.57336 1.7504 4.38081 1.41688 5.2664C1.08866 6.11557 0.859525 7.08438 0.797054 8.50129C0.729292 9.92877 0.713623 10.3819 0.713623 14.0024C0.713623 17.6229 0.729292 18.0761 0.791763 19.4983C0.854235 20.9152 1.08357 21.8893 1.4118 22.7334C1.7504 23.6294 2.27643 24.4315 2.95364 25.0984C3.62048 25.7756 4.42793 26.3018 5.31351 26.6351C6.16268 26.9633 7.13149 27.1925 8.5486 27.2549C9.97059 27.3176 10.424 27.3331 14.0445 27.3331C17.6649 27.3331 18.1181 27.3176 19.5403 27.2549C20.9572 27.1925 21.9313 26.9633 22.7752 26.6351C24.5673 25.9422 25.9842 24.5253 26.6771 22.7334C27.0051 21.8842 27.2345 20.9152 27.2969 19.4983C27.3594 18.0761 27.3751 17.6229 27.3751 14.0024C27.3751 10.3819 27.3698 9.92877 27.3073 8.50658ZM24.9059 19.3941C24.8486 20.6965 24.6298 21.3997 24.4475 21.8686C23.9994 23.0303 23.0774 23.9523 21.9156 24.4004C21.4468 24.5827 20.7385 24.8015 19.4412 24.8586C18.0347 24.9213 17.6129 24.9368 14.0548 24.9368C10.4968 24.9368 10.0697 24.9213 8.66825 24.8586C7.36591 24.8015 6.66265 24.5827 6.19381 24.4004C5.6157 24.1867 5.08947 23.8481 4.66235 23.4053C4.21955 22.9729 3.88094 22.452 3.66728 21.8738C3.48495 21.405 3.2662 20.6965 3.20902 19.3994C3.14635 17.9929 3.13088 17.5708 3.13088 14.0128C3.13088 10.4548 3.14635 10.0277 3.20902 8.62643C3.2662 7.32409 3.48495 6.62083 3.66728 6.15199C3.88094 5.57367 4.21955 5.04765 4.66764 4.62032C5.09985 4.17752 5.62078 3.83892 6.1991 3.62546C6.66794 3.44313 7.3765 3.22438 8.67354 3.16699C10.0801 3.10452 10.5021 3.08885 14.0599 3.08885C17.6232 3.08885 18.0451 3.10452 19.4465 3.16699C20.7488 3.22438 21.4521 3.44313 21.9209 3.62546C22.4991 3.83892 23.0253 4.17752 23.4524 4.62032C23.8952 5.05274 24.2338 5.57367 24.4475 6.15199C24.6298 6.62083 24.8486 7.32918 24.9059 8.62643C24.9684 10.033 24.9841 10.4548 24.9841 14.0128C24.9841 17.5708 24.9684 17.9876 24.9059 19.3941Z" fill="#2D2A26"/>
<path d="M14.0495 7.15214C10.2677 7.15214 7.19924 10.2204 7.19924 14.0025C7.19924 17.7845 10.2677 20.8528 14.0495 20.8528C17.8316 20.8528 20.8998 17.7845 20.8998 14.0025C20.8998 10.2204 17.8316 7.15214 14.0495 7.15214ZM14.0495 18.4461C11.5961 18.4461 9.60592 16.4561 9.60592 14.0025C9.60592 11.5488 11.5961 9.55883 14.0495 9.55883C16.5032 9.55883 18.4932 11.5488 18.4932 14.0025C18.4932 16.4561 16.5032 18.4461 14.0495 18.4461Z" fill="#2D2A26"/>
<path d="M22.7702 6.8813C22.7702 7.76445 22.0541 8.48054 21.1707 8.48054C20.2876 8.48054 19.5715 7.76445 19.5715 6.8813C19.5715 5.99795 20.2876 5.28207 21.1707 5.28207C22.0541 5.28207 22.7702 5.99795 22.7702 6.8813Z" fill="#2D2A26"/>
</svg>
