<svg width="28" height="28" viewBox="0 0 28 28" fill="none" xmlns="http://www.w3.org/2000/svg">
<path d="M27.3334 13.6564C27.3334 20.8307 21.473 26.6464 14.2425 26.6464C11.947 26.6464 9.7906 26.0597 7.91445 25.0301L0.666748 27.3332L3.02971 20.3637C1.83771 18.4064 1.15119 16.1107 1.15119 13.6564C1.15119 6.48221 7.01223 0.666504 14.2425 0.666504C21.4736 0.666504 27.3334 6.48221 27.3334 13.6564ZM14.2425 2.73524C8.17312 2.73524 3.23623 7.6345 3.23623 13.6564C3.23623 16.0461 4.01519 18.2591 5.33282 20.0594L3.95771 24.1154L8.18734 22.7711C9.92512 23.9121 12.0069 24.5776 14.2427 24.5776C20.3112 24.5776 25.249 19.6789 25.249 13.657C25.249 7.6351 20.3115 2.73524 14.2425 2.73524ZM20.8531 16.6481C20.7722 16.5157 20.5586 16.4357 20.238 16.2766C19.9168 16.1175 18.3387 15.3468 18.0454 15.241C17.7512 15.1349 17.5367 15.0816 17.323 15.4001C17.1094 15.7189 16.4943 16.4357 16.3067 16.6481C16.1195 16.8612 15.9325 16.8878 15.6113 16.7284C15.2907 16.5693 14.257 16.2327 13.0312 15.1483C12.0774 14.3044 11.4333 13.2627 11.246 12.9435C11.059 12.625 11.2265 12.4529 11.3867 12.2944C11.5313 12.1515 11.7079 11.9225 11.8682 11.7367C12.0291 11.5507 12.0825 11.4182 12.1888 11.2055C12.2964 10.993 12.2427 10.8072 12.1622 10.6475C12.0822 10.4884 11.4398 8.92161 11.1725 8.28399C10.9053 7.64695 10.6383 7.75302 10.4507 7.75302C10.2638 7.75302 10.0496 7.72636 9.83564 7.72636C9.62171 7.72636 9.27386 7.80606 8.97964 8.12458C8.68571 8.44339 7.85697 9.21376 7.85697 10.7803C7.85697 12.3471 9.0063 13.8609 9.16719 14.073C9.32749 14.2852 11.3865 17.6049 14.6487 18.8798C17.9112 20.1542 17.9112 19.729 18.4996 19.6757C19.0875 19.6227 20.3977 18.9056 20.6662 18.1625C20.9328 17.4182 20.9328 16.7809 20.8531 16.6481Z" fill="#2D2A26"/>
</svg>
