<svg width="112" height="112" fill="none" xmlns="http://www.w3.org/2000/svg"><rect width="112" height="112" rx="56" fill="#fff"/><g clip-path="url(#clip0)"><rect x="7.412" y="7.412" width="97.177" height="97.177" rx="48.588" fill="#042454"/><g clip-path="url(#clip1)" fill="#fff"><path d="M87.582 68.306H64.503V67.09h15.791a1.214 1.214 0 001.01-1.925L69.052 38.719c-5.438 9.551-13.203 19.51-26.025 28.372h19.047v1.215H31.706c-.427 0-.822.225-1.041.589l-3.29 5.484h54.38a13.88 13.88 0 00.905-3.644h4.922a1.214 1.214 0 100-2.43zm-57.091-6.073h8.486l17.294-42.311a3.642 3.642 0 012.158-2.052v-1.796a1.214 1.214 0 00-2.26-.621L29.447 60.397a1.212 1.212 0 001.045 1.836z"/><path d="M40.223 66.034c13.989-9.304 22.041-19.955 27.562-30.05L63.22 26.13c.032-.11.068-.219.068-.339V11.215a1.214 1.214 0 10-2.43 0v9.818l-.112-.243c-.203-.437-.615-.732-1.13-.704a1.218 1.218 0 00-1.097.755L40.3 65.417c-.082.198-.104.41-.076.617zM23.377 81.042a1.216 1.216 0 001.04 1.84h46.16c4.225 0 7.794-2.613 9.949-6.073h-54.61l-2.54 4.233z"/></g><path d="M93.5 87.572c-3.966 0-6.094-.876-7.804-1.58-1.4-.576-2.413-.992-4.698-.992-2.284 0-3.296.416-4.697.993-1.71.704-3.838 1.58-7.803 1.58s-6.093-.877-7.803-1.58c-1.4-.576-2.412-.993-4.697-.993-2.284 0-3.296.416-4.697.993-1.71.703-3.837 1.58-7.802 1.58-3.965 0-6.093-.877-7.803-1.58C34.296 85.417 33.284 85 31 85s-3.296.416-4.697.993c-1.71.704-3.837 1.58-7.803 1.58-3.965 0-6.092-.877-7.802-1.58C9.297 85.417 8.285 85 6 85v5.428c3.965 0 6.093.876 7.803 1.58 1.4.576 2.412.992 4.696.992 2.285 0 3.297-.416 4.698-.993 1.71-.704 3.837-1.58 7.802-1.58 3.966 0 6.093.877 7.803 1.58 1.4.576 2.413.993 4.697.993 2.285 0 3.296-.416 4.697-.993 1.71-.703 3.837-1.58 7.802-1.58 3.966 0 6.093.877 7.803 1.58 1.4.576 2.412.993 4.697.993s3.297-.416 4.697-.993c1.71-.704 3.838-1.58 7.803-1.58 3.966 0 6.093.877 7.803 1.58 1.401.576 2.413.993 4.698.993 2.285 0 3.297-.416 4.698-.993 1.71-.704 3.838-1.58 7.803-1.58V85c-2.285 0-3.297.416-4.698.993-1.71.703-3.837 1.58-7.803 1.58zm0 8c-3.966 0-6.094-.876-7.804-1.58-1.4-.576-2.413-.992-4.698-.992-2.284 0-3.296.416-4.697.993-1.71.704-3.838 1.58-7.803 1.58s-6.093-.877-7.803-1.58c-1.4-.576-2.412-.993-4.697-.993-2.284 0-3.296.416-4.697.993-1.71.703-3.837 1.58-7.802 1.58-3.965 0-6.093-.877-7.803-1.58C34.296 93.417 33.284 93 31 93s-3.296.416-4.697.993c-1.71.704-3.837 1.58-7.803 1.58-3.965 0-6.092-.877-7.802-1.58C9.297 93.417 8.285 93 6 93v5.428c3.965 0 6.093.876 7.803 1.579 1.4.576 2.412.993 4.696.993 2.285 0 3.297-.416 4.698-.993 1.71-.704 3.837-1.58 7.802-1.58 3.966 0 6.093.877 7.803 1.58 1.4.576 2.413.993 4.697.993 2.285 0 3.296-.416 4.697-.993 1.71-.703 3.837-1.58 7.802-1.58 3.966 0 6.093.877 7.803 1.58 1.4.576 2.412.993 4.697.993s3.297-.416 4.697-.993c1.71-.704 3.838-1.58 7.803-1.58 3.966 0 6.093.877 7.803 1.58 1.401.576 2.413.993 4.698.993 2.285 0 3.297-.416 4.698-.993 1.71-.704 3.838-1.58 7.803-1.58V93c-2.285 0-3.297.416-4.698.993-1.71.703-3.837 1.58-7.803 1.58zm0 8c-3.966 0-6.094-.876-7.804-1.579-1.4-.576-2.413-.993-4.698-.993-2.284 0-3.296.416-4.697.993-1.71.704-3.838 1.579-7.803 1.579s-6.093-.876-7.803-1.579c-1.4-.576-2.412-.993-4.697-.993-2.284 0-3.296.416-4.697.993-1.71.703-3.837 1.579-7.802 1.579-3.965 0-6.093-.876-7.803-1.579-1.4-.576-2.412-.993-4.697-.993-2.284 0-3.296.416-4.697.993-1.71.704-3.837 1.579-7.803 1.579-3.965 0-6.092-.876-7.802-1.579C9.297 101.417 8.285 101 6 101v5.428c3.965 0 6.093.876 7.803 1.579 1.4.576 2.412.993 4.696.993 2.285 0 3.297-.416 4.698-.993 1.71-.704 3.837-1.579 7.802-1.579 3.966 0 6.093.876 7.803 1.579 1.4.576 2.413.993 4.697.993 2.285 0 3.296-.416 4.697-.993 1.71-.703 3.837-1.579 7.802-1.579 3.966 0 6.093.876 7.803 1.579 1.4.576 2.412.993 4.697.993s3.297-.416 4.697-.993c1.71-.704 3.838-1.579 7.803-1.579 3.966 0 6.093.876 7.803 1.579 1.401.576 2.413.993 4.698.993 2.285 0 3.297-.416 4.698-.993 1.71-.704 3.838-1.579 7.803-1.579V101c-2.285 0-3.297.416-4.698.993-1.71.703-3.837 1.579-7.803 1.579z" fill="#fff"/></g><defs><clipPath id="clip0"><rect x="7.412" y="7.412" width="97.177" height="97.177" rx="48.588" fill="#fff"/></clipPath><clipPath id="clip1"><path fill="#fff" transform="translate(19.559 14.557)" d="M0 0h72.882v72.882H0z"/></clipPath></defs></svg>