<svg width="112" height="112" fill="none" xmlns="http://www.w3.org/2000/svg"><rect width="112" height="112" rx="56" fill="#fff"/><g clip-path="url(#clip0)"><rect x="7.412" y="7.412" width="97.177" height="97.177" rx="48.588" fill="#042454"/><g clip-path="url(#clip1)" fill="#fff"><path d="M42.325 43.082h-1.751a.803.803 0 00-.802.802v1.335h3.354v-1.335a.803.803 0 00-.801-.802zm-2.553 6.641h3.354v2.137h-3.354v-2.137zm54.453 43.17h-.86V66.116h.86a2.252 2.252 0 000-4.504H60.292v4.504H22.606v26.777h-.75a2.252 2.252 0 000 4.504L56.5 109l37.725-11.603a2.253 2.253 0 000-4.504zm-46.594 0h-4.505V76.892a.803.803 0 00-.806-.799h-1.74a.804.804 0 00-.808.799v16H35.27v-16a5.313 5.313 0 015.31-5.304h1.741a5.313 5.313 0 015.31 5.304v16zm40.324 0h-4.504v-3.239H69.938v3.239h-4.505V73.089a3.007 3.007 0 013.003-3.003h16.518a3.007 3.007 0 013.001 3.003v19.804zM21.856 61.61a2.253 2.253 0 000 4.506h.75v-4.505h-.75z"/><path d="M69.938 74.59h13.513v3.36H69.938v-3.36zm0 7.564h13.513v3.596H69.938v-3.596zM23.06 36.472l17.835-11.289a1.043 1.043 0 011.11 0l17.834 11.29a2.25 2.25 0 003.108-.699 2.252 2.252 0 00-.699-3.108L44.413 21.377a5.565 5.565 0 00-5.927 0l-17.835 11.29a2.251 2.251 0 102.409 3.805z"/><path d="M42.004 29.688a1.043 1.043 0 00-1.11 0l-18.288 11.61v20.314h37.686V41.129L42.004 29.688zm5.627 24.265a2.414 2.414 0 01-2.412 2.411h-7.54a2.413 2.413 0 01-2.411-2.411v-10.07a5.313 5.313 0 015.306-5.305h1.75a5.313 5.313 0 015.307 5.306v10.069z"/></g><path fill="#fff" d="M35 99h42v6H35z"/></g><defs><clipPath id="clip0"><rect x="7.412" y="7.412" width="97.177" height="97.177" rx="48.588" fill="#fff"/></clipPath><clipPath id="clip1"><path fill="#fff" transform="translate(17 18)" d="M0 0h82v82H0z"/></clipPath></defs></svg>