<svg width="112" height="112" fill="none" xmlns="http://www.w3.org/2000/svg"><rect width="112" height="112" rx="56" fill="#fff"/><rect x="7.412" y="7.412" width="97.177" height="97.177" rx="48.588" fill="#042454"/><path d="M79.984 43.135c-5.879-5.878-13.535-9.331-21.757-9.86v-2.69h3.785v-4.452H49.988v4.453h3.785v2.689c-8.222.529-15.878 3.982-21.757 9.86-6.064 6.064-9.547 14.02-9.901 22.537h67.77c-.354-8.517-3.837-16.473-9.901-22.537zM33.719 60.577l-4.407-.636c.042-.296 1.1-7.282 5.954-11.547l2.94 3.344c-3.576 3.144-4.479 8.783-4.487 8.84zM18 70.125v.614c0 4.951 4.029 8.98 8.98 8.98h58.04c4.951 0 8.98-4.029 8.98-8.98v-.614H18z" fill="#fff"/></svg>