<svg width="112" height="112" fill="none" xmlns="http://www.w3.org/2000/svg"><rect width="112" height="112" rx="56" fill="#fff"/><g clip-path="url(#clip0)"><rect x="7.412" y="7.412" width="97.177" height="97.177" rx="48.588" fill="#042454"/><g clip-path="url(#clip1)" fill="#fff"><path d="M48.158 38.174c-3.65 7.438-2.852 16.31 2.077 23.167l3.147 3.962a15.804 15.804 0 011.616-.082c3.966 0 6.093 1.33 7.803 2.398 1.4.875 2.412 1.508 4.697 1.508s3.297-.633 4.697-1.508c1.71-1.069 3.838-2.398 7.803-2.398 1.329 0 2.447.151 3.417.39-4.827-6.827-13.935-6.946-13.97-6.948-5.238-.246-9.48-4.532-9.675-9.773-.216-5.795 4.418-10.562 10.166-10.562 4.032 0 7.516 2.346 9.162 5.748a8.157 8.157 0 011.038 3.992l.014-.943c0-10.285-8.337-18.623-18.623-18.623-10.285 0-.495-.012-.66 0-5.251.356-10.042 4.18-12.709 9.672z"/><path d="M37.802 67.62c1.4.874 2.412 1.507 4.697 1.507 2.284 0 3.296-.632 4.697-1.508l.365-.227-2.036-2.566c-6.224-8.61-7.238-19.785-2.652-29.181-4.589 4.2-8.864 10.841-11.233 21.328 0 0-.925 4.31-3.53 8.36.58-.07 1.206-.112 1.889-.112 3.965 0 6.093 1.33 7.803 2.398zM92.5 89.09c-3.966 0-6.094-1.33-7.804-2.4-1.4-.874-2.413-1.507-4.698-1.507-2.284 0-3.296.632-4.697 1.508-1.71 1.069-3.838 2.398-7.803 2.398s-6.093-1.33-7.803-2.398c-1.4-.875-2.412-1.508-4.697-1.508-2.284 0-3.296.632-4.697 1.508-1.71 1.069-3.837 2.398-7.802 2.398-3.965 0-6.093-1.33-7.803-2.398-1.4-.875-2.412-1.508-4.697-1.508-2.284 0-3.296.632-4.697 1.508-1.71 1.069-3.837 2.398-7.803 2.398-3.965 0-6.092-1.33-7.802-2.398-1.4-.875-2.412-1.508-4.697-1.508v24.341h100v-24.34c-2.285 0-3.297.632-4.698 1.507-1.71 1.069-3.837 2.398-7.803 2.398zm-12.502 10.3c-2.284 0-3.296.633-4.697 1.509-1.71 1.068-3.838 2.398-7.803 2.398s-6.093-1.33-7.803-2.398c-1.4-.876-2.412-1.508-4.697-1.508-2.284 0-3.296.632-4.697 1.508-1.71 1.068-3.837 2.398-7.802 2.398-3.965 0-6.093-1.33-7.803-2.398-1.4-.876-2.412-1.508-4.697-1.508v-5.86c3.966 0 6.093 1.33 7.803 2.399 1.4.875 2.413 1.508 4.697 1.508 2.285 0 3.296-.633 4.697-1.508 1.71-1.069 3.837-2.399 7.802-2.399 3.966 0 6.093 1.33 7.803 2.399 1.4.875 2.412 1.508 4.697 1.508s3.297-.633 4.697-1.508c1.71-1.069 3.838-2.399 7.803-2.399v5.86zM92.5 74.986c-3.966 0-6.094-1.33-7.804-2.398-1.4-.875-2.413-1.508-4.698-1.508-2.284 0-3.296.633-4.697 1.508-1.71 1.069-3.838 2.398-7.803 2.398s-6.093-1.33-7.803-2.398c-1.4-.875-2.412-1.508-4.697-1.508-2.284 0-3.296.633-4.697 1.508-1.71 1.068-3.837 2.398-7.802 2.398-3.965 0-6.093-1.33-7.803-2.398-1.4-.875-2.412-1.508-4.697-1.508-2.284 0-3.296.633-4.697 1.508-1.71 1.069-3.837 2.398-7.803 2.398-3.965 0-6.092-1.33-7.802-2.398-1.4-.875-2.412-1.508-4.697-1.508v8.244c3.965 0 6.093 1.33 7.803 2.398 1.4.875 2.412 1.508 4.696 1.508 2.285 0 3.297-.633 4.698-1.508 1.71-1.069 3.837-2.398 7.802-2.398 3.966 0 6.093 1.33 7.803 2.398 1.4.875 2.413 1.508 4.697 1.508 2.285 0 3.296-.633 4.697-1.508 1.71-1.069 3.837-2.398 7.802-2.398 3.966 0 6.093 1.33 7.803 2.398 1.4.875 2.412 1.508 4.697 1.508s3.297-.633 4.697-1.508c1.71-1.069 3.838-2.398 7.803-2.398 3.966 0 6.093 1.33 7.803 2.398 1.401.875 2.413 1.508 4.698 1.508 2.285 0 3.297-.633 4.698-1.508 1.71-1.069 3.838-2.398 7.803-2.398V71.08c-2.285 0-3.297.633-4.698 1.508-1.71 1.068-3.837 2.398-7.803 2.398z"/></g></g><defs><clipPath id="clip0"><rect x="7.412" y="7.412" width="97.177" height="97.177" rx="48.588" fill="#fff"/></clipPath><clipPath id="clip1"><path fill="#fff" transform="translate(5 19)" d="M0 0h100v100H0z"/></clipPath></defs></svg>