<svg width="112" height="112" fill="none" xmlns="http://www.w3.org/2000/svg"><rect width="112" height="112" rx="56" fill="#fff"/><rect x="7.412" y="7.412" width="97.177" height="97.177" rx="48.588" fill="#042454"/><g clip-path="url(#clip0)" fill="#fff"><path d="M37.7 35.112a2.696 2.696 0 003.714.875 2.698 2.698 0 00.876-3.713c-.589-.95-.303-2.286.236-4.371.58-2.241 1.301-5.03-.21-7.58a2.698 2.698 0 10-4.642 2.75c.368.62-.008 2.073-.371 3.478-.644 2.487-1.444 5.582.398 8.56zm8.637 0a2.696 2.696 0 003.714.876 2.697 2.697 0 00.875-3.713c-.588-.952-.303-2.287.237-4.372.58-2.24 1.3-5.03-.21-7.58a2.698 2.698 0 00-4.642 2.75c.368.621-.008 2.074-.372 3.479-.643 2.486-1.443 5.581.398 8.56zm-22.43 30.015l2.445 16.048c.014.09.02.18.02.27 0 3.074 2.25 5.632 5.188 6.117l-1.875-22.435h-5.778zm11.269 22.519h7.346v-1.233a21.084 21.084 0 01-1.847-4.123 6.314 6.314 0 01.898-5.642c.278-.382.598-.727.949-1.033V65.127h-9.228l1.882 22.52zm11.487-13.59h7.938l.746-8.929h-9.228v8.956c.18-.016.362-.027.544-.027zm11.547 0h5.163l1.36-8.929h-5.777l-.746 8.929zm8.647-22.871l.588-3.855a3.405 3.405 0 00-3.368-3.92H60.77l-.64 7.671h5.83c.304 0 .605.036.896.104zm-44.214-.104h5.868l-.641-7.67h-3.306a3.404 3.404 0 00-3.368 3.92l.586 3.846c.281-.063.57-.096.861-.096zm19.879 0v-7.67H31.479l.641 7.67h10.402zm3.597 0H56.52l.64-7.67H46.12v7.67z"/><path d="M94.346 41.492a2.698 2.698 0 00-3.76-.642c-.56.397-13.416 9.782-18.104 36.624H46.906a2.697 2.697 0 00-2.566 3.529A17.298 17.298 0 0060.84 93a17.297 17.297 0 0016.48-11.933c.06-.17.104-.348.129-.532.647-4.26 1.512-8.053 2.495-11.41 2.17-7.408 4.913-12.69 7.155-16.159.438-.678.87-1.306 1.29-1.887 2.945-4.081 5.299-5.815 5.315-5.826a2.698 2.698 0 00.642-3.761z"/><path d="M64.532 63.02c.967 0 1.784-.719 1.906-1.678l.77-6.048a1.922 1.922 0 00-1.906-2.165H23.339a1.922 1.922 0 00-1.906 2.165l.77 6.048c.122.96.939 1.679 1.906 1.679h40.423z"/></g><defs><clipPath id="clip0"><path fill="#fff" transform="translate(21 19)" d="M0 0h74v74H0z"/></clipPath></defs></svg>