<svg width="112" height="112" fill="none" xmlns="http://www.w3.org/2000/svg"><rect width="112" height="112" rx="56" fill="#fff"/><rect x="7.412" y="7.412" width="97.177" height="97.177" rx="48.588" fill="#042454"/><path d="M82.335 38.33a8.665 8.665 0 100-17.33 8.665 8.665 0 000 17.33zM6.168 60.312H30.16V73.32h4.252V60.312H51.84V73.32h4.336V60.312h10.84a2.169 2.169 0 002.168-2.17l-.007-8.671a2.168 2.168 0 00-2.168-2.166h-2.16v-4.48h2.167a2.168 2.168 0 000-4.337h-2.168v-4.343a2.168 2.168 0 00-4.336 0v4.343H47.503v-4.343a2.168 2.168 0 00-4.336 0v4.343H30.145v-4.343a2.168 2.168 0 00-4.336 0v4.343H6.312a2.168 2.168 0 000 4.336H25.81v4.48H6.168A2.169 2.169 0 004 49.473v8.671c0 1.198.97 2.168 2.168 2.168zm54.343-17.488v4.48H47.503v-4.48h13.008zm-30.366 0h13.022v4.48H30.145v-4.48z" fill="#fff"/><path d="M104.832 64.648h-44.32v10.84a2.168 2.168 0 01-2.169 2.168h-8.672a2.168 2.168 0 01-2.168-2.168v-10.84h-8.755v10.84c0 1.198-.97 2.168-2.168 2.168h-8.588a2.168 2.168 0 01-2.168-2.168v-10.84H8.168A2.17 2.17 0 006 66.816v26.016C6 94.029 6.97 95 8.168 95h96.664c1.197 0 2.168-.97 2.168-2.168V66.816a2.168 2.168 0 00-2.168-2.168zm-24.824 21.68H27.992a2.168 2.168 0 110-4.336h52.016a2.168 2.168 0 010 4.336zm0-8.672H67.001a2.168 2.168 0 110-4.336h13.007a2.168 2.168 0 010 4.336z" fill="#fff"/></svg>