<svg width="112" height="112" fill="none" xmlns="http://www.w3.org/2000/svg"><rect width="112" height="112" rx="56" fill="#fff"/><g clip-path="url(#clip0)"><rect x="7.412" y="7.412" width="97.177" height="97.177" rx="48.588" fill="#042454"/><g clip-path="url(#clip1)" fill="#fff"><path d="M84.047 26.94c-7.538-7.537-21.035-6.312-30.08 2.735-3.486 3.488-5.918 7.713-7.032 12.219l-5.87 23.74-1.68-1.68-14.673 14.148a5.796 5.796 0 000 8.202 5.808 5.808 0 008.202 0L47.59 72.157l-1.746-1.746L69.65 63.91c4.298-1.174 8.33-3.557 11.662-6.888 9.047-9.047 10.274-22.54 2.734-30.08zm-2.734 2.735c.95.95 1.656 2.056 2.25 3.22l-7.719 7.719-5.47-5.47 7.72-7.72c1.165.593 2.27 1.302 3.219 2.251zM73.11 43.348l-5.47 5.47-5.47-5.47 5.47-5.47 5.47 5.47zm.88-17.289l-6.35 6.35-4.51-4.509c3.447-1.65 7.056-2.445 10.86-1.84zm-17.289 6.35c.941-.94 1.955-1.74 2.989-2.482l5.216 5.216-5.47 5.47-5.224-5.223c.748-1.04 1.557-2.048 2.49-2.98zm-4.519 6.42l4.52 4.519-6.352 6.351c-.623-3.932.207-7.476 1.832-10.87zm-7.395 27.86l2.996-12.116c.827 1.931 1.965 3.697 3.45 5.182 1.597 1.598 3.495 2.815 5.586 3.649L44.787 66.69zm9.18-9.668a12.637 12.637 0 01-2.293-3.177l7.761-7.762 5.47 5.47-7.754 7.756a12.472 12.472 0 01-3.184-2.287zm7.338 3.6l6.335-6.334 4.525 4.525c-3.258 1.56-6.814 2.454-10.86 1.81zm17.274-6.334c-.931.93-1.941 1.738-2.983 2.488l-5.222-5.222 5.47-5.47 5.249 5.247a24.046 24.046 0 01-2.514 2.957zm0-10.94l6.301-6.3c.541 3.451-.03 7.243-1.76 10.843l-4.541-4.542zM34.77 22.079c-4.255 0-7.735 3.48-7.735 7.734s3.48 7.734 7.734 7.734 7.735-3.48 7.735-7.734-3.481-7.734-7.735-7.734z"/></g></g><defs><clipPath id="clip0"><rect x="7.412" y="7.412" width="97.177" height="97.177" rx="48.588" fill="#fff"/></clipPath><clipPath id="clip1"><path fill="#fff" transform="translate(23 22)" d="M0 0h66v66H0z"/></clipPath></defs></svg>