<svg width="112" height="112" fill="none" xmlns="http://www.w3.org/2000/svg"><rect width="112" height="112" rx="56" fill="#fff"/><rect x="7.412" y="7.412" width="97.177" height="97.177" rx="48.588" fill="#042454"/><g clip-path="url(#clip0)" fill="#fff"><path d="M35.71 48.995L29.57 65.37v.001a29.527 29.527 0 009.48 15.31l7.703-2.888c-8.182-7.328-12.22-18.108-11.043-28.8zm-8.218 21.92l-4.706 12.548c-.563 1.498.904 2.98 2.414 2.413l9.928-3.722a33.636 33.636 0 01-7.636-11.24z"/><path d="M48.872 47.467l-6.998-6.998a29.947 29.947 0 008.91 35.814l7.47-2.801c-6.56-6.775-10.108-16.23-9.382-26.015zm3.661 3.661a29.934 29.934 0 009.614 20.893h.002l5.474-2.052a1.877 1.877 0 00.668-3.083L52.533 51.128zm13.694 5.891c.732.732 1.92.732 2.651 0 7.054-7.054 13.922-4.873 13.99-4.85a1.875 1.875 0 001.187-3.558c-.37-.123-9.154-2.918-17.828 5.756a1.875 1.875 0 000 2.652zM54.295 42.435c8.675-8.673 5.879-17.458 5.756-17.828a1.875 1.875 0 00-3.557 1.187c.022.068 2.203 6.937-4.851 13.99a1.876 1.876 0 002.652 2.651zm3.977 3.978a1.875 1.875 0 002.64 2.662c.97-.482 3.976 1.328 5.646-.342 1.653-1.653-.103-4.598.336-5.63 1.033-.44 3.977 1.317 5.63-.336s-.103-4.598.336-5.63c1.035-.44 3.977 1.317 5.63-.336s-.103-4.598.336-5.63c1.029-.438 3.978 1.315 5.63-.336 1.67-1.67-.137-4.682.342-5.646a1.875 1.875 0 00-2.662-2.64c-1.478 1.478-1.189 3.564-.91 5.056-1.492-.279-3.578-.568-5.056.91-1.478 1.478-1.189 3.564-.91 5.056-1.492-.279-3.578-.568-5.056.91-1.478 1.478-1.188 3.564-.91 5.055-1.492-.278-3.578-.567-5.056.91-1.477 1.478-1.188 3.565-.91 5.056-1.492-.278-3.578-.567-5.056.91zm10.606-15.909a1.875 1.875 0 10-2.65-2.652 1.875 1.875 0 002.65 2.652zM80.81 44.31a1.875 1.875 0 100-3.75 1.875 1.875 0 000 3.75zm-3.977 15.36a1.875 1.875 0 102.651 2.652 1.875 1.875 0 00-2.651-2.652zM50.318 33.155a1.875 1.875 0 10-2.652-2.651 1.875 1.875 0 002.652 2.651z"/></g><defs><clipPath id="clip0"><path fill="#fff" transform="translate(22 22)" d="M0 0h64v64H0z"/></clipPath></defs></svg>