<svg width="538" height="147" fill="none" xmlns="http://www.w3.org/2000/svg"><path d="M103.855 145.388c-7.324-.761-14.7-1.128-21.395-4.382a26.242 26.242 0 01-5.25-3.411l5.96-10.888h3.648v-9.551H71.802a12.78 12.78 0 014.07-4.539l.866-.551c1.4-.692 2.65-1.655 3.675-2.834a2.437 2.437 0 00-.63-3.647l-.867-.551a26.286 26.286 0 00-5.617-2.309l-1.103-.314a39.69 39.69 0 00-3.99-.735l-7.613-70.264h3.649v-6.56h-9.74v-6.638a10.493 10.493 0 002.757-5.536h2.284v6.297h4.752V2.76h-4.752v6.35h-2.284a10.494 10.494 0 00-3.49-6.51 10.504 10.504 0 00-17.327 6.51h-2.31V2.76H29.38v16.215h4.752v-6.297h2.31a10.493 10.493 0 002.835 5.615v6.638h-9.74v6.56h3.676l-9.32 85.744H6.963v9.55h3.649l4.016 7.321v1.285l-.131.131a41.38 41.38 0 01-11.446 7.636c-4.226 1.836-4.069 2.623.525 1.233a42.352 42.352 0 0012.706-6.875c7.692-5.877 13.992-12.83 21-18.208 1.733-1.391 3.519-2.624 5.251-3.831a40.863 40.863 0 015.382-2.86 25.197 25.197 0 0111.13-2.624c5.434 0 5.776 3.778 5.25 7.399v.131a23.872 23.872 0 00-.55 5.983 22.297 22.297 0 006.01 14.299 28.06 28.06 0 0011.735 6.927 74.753 74.753 0 0021.946 2.178c4.384 0 7.613-.578.237-1.365l.183-.157zM39.277 31.412h15.147l3.544 32.77H35.602l3.675-32.77zm18.638 70.474a39.064 39.064 0 00-13.257 4.801 58.019 58.019 0 00-11.051 8.632l-1.89 1.863h-1.76l2.626-24.19h28.509l.919 8.474c-1.365 0-2.626.21-4.096.42zm86.735-72.547v-3.7h10.894v3.7h4.358a21.31 21.31 0 016.93 1.05 15.742 15.742 0 015.25 2.964 12.647 12.647 0 014.516 9.708v1.417a12.47 12.47 0 01-3.938 9.76 16.624 16.624 0 01-11.472 3.542h-5.434v8.134h-11.472V57.78h-5.486a16.544 16.544 0 01-11.315-3.568 12.426 12.426 0 01-3.937-9.734V43.06a12.432 12.432 0 012.047-6.9 13.91 13.91 0 015.907-4.986 20.353 20.353 0 018.846-1.836h4.306zm-.263 5.457h-2.835a6.54 6.54 0 00-4.069 1.338 7.87 7.87 0 00-2.625 3.385 10.808 10.808 0 00-.893 4.382 9.052 9.052 0 001.812 5.693 6.173 6.173 0 005.25 2.361h3.465l-.105-17.159zm14.57 0h-3.098v17.238h3.386a6.173 6.173 0 003.807-1.128 6.978 6.978 0 002.336-3.044c.531-1.29.798-2.672.788-4.066a10.916 10.916 0 00-.84-4.277 8.035 8.035 0 00-2.494-3.359 6.277 6.277 0 00-3.885-1.285m47.41-9.235h11.156l11.709 31.484 3.255 8.79h-12.548l-4.358-11.65h-13.126l-3.832 11.676h-6.301l10.973-31.485 3.072-8.816zm2.467 9.733l-4.882 13.539h9.686l-4.804-13.539zm41.399-9.733h19.006a16.797 16.797 0 018.085 1.81 12.013 12.013 0 015.04 4.696 12.25 12.25 0 011.681 6.114 11.758 11.758 0 01-.814 4.25 11.14 11.14 0 01-2.494 3.778 11.447 11.447 0 01-4.122 2.624 14.94 14.94 0 01-5.486.945h-9.766v16.005h-11.156V25.639h.026zm11.13 5.404v13.119h3.886a5.884 5.884 0 003.36-.97 6.17 6.17 0 002.179-2.624 7.586 7.586 0 00.761-3.333 6.297 6.297 0 00-1.733-4.46 6.58 6.58 0 00-5.066-1.837l-3.387.105zm41.136-5.404h16.932a21.61 21.61 0 0111.42 2.44 10.11 10.11 0 014.62 7.294v1.416a8.21 8.21 0 01-1.733 5.248 11.653 11.653 0 01-5.644 3.41 12.704 12.704 0 017.114 4.776 12.397 12.397 0 011.654 6.376 7.554 7.554 0 01-.603 3.017 7.635 7.635 0 01-1.733 2.467 11.106 11.106 0 01-5.25 2.912 24.65 24.65 0 01-3.203.63 23.163 23.163 0 01-3.413.21h-20.345V25.64h.184zm11.131 17.028h4.883a4.674 4.674 0 003.806-1.6 5.612 5.612 0 001.365-3.831c0-1.047-.243-2.08-.709-3.018a5.853 5.853 0 00-2.126-2.335 6.04 6.04 0 00-3.334-.892h-3.885v11.676zm0 17.894h3.885a7.352 7.352 0 005.25-1.68 5.24 5.24 0 001.785-4.04 6.424 6.424 0 00-.918-3.253 6.904 6.904 0 00-2.757-2.624 8.639 8.639 0 00-4.305-1.024h-2.914l-.026 12.62zm52.082-34.922h11.157l11.708 31.484 3.308 8.79h-12.548l-4.358-11.65h-13.125l-3.886 11.676h-6.3l10.973-31.485 3.071-8.816zm2.468 9.733l-4.883 13.539h9.687l-4.804-13.539zm37.697-9.733h33.444v5.85h-11.13v34.424h-11.157V31.49h-11.157v-5.85zm52.135 0h25.674v5.85h-14.044v11.151h13.571v5.851h-13.571v11.623h14.543v5.799h-26.173V25.639zm46.255 0h18.927a16.81 16.81 0 018.086 1.81 12.025 12.025 0 015.04 4.696A12.25 12.25 0 01538 38.26a11.758 11.758 0 01-.814 4.25 11.12 11.12 0 01-2.625 3.778 11.452 11.452 0 01-4.121 2.624 14.948 14.948 0 01-5.487.945h-9.66v16.005h-11.157V25.639h.131zm11.157 5.247v13.119h3.885a5.88 5.88 0 003.36-.971 6.164 6.164 0 002.179-2.624 7.571 7.571 0 00.761-3.332 6.296 6.296 0 00-1.732-4.46 6.59 6.59 0 00-5.067-1.837l-3.386.105zm-377.18 90.205l8.27-9.525a8.692 8.692 0 01-4.306-1.548 5.59 5.59 0 01-2.389-4.854 6.037 6.037 0 012.127-4.749 7.507 7.507 0 012.625-1.521 11.19 11.19 0 012.625-.578h9.162v22.853h-4.253v-9.157h-.997l-7.613 9.157-5.251-.078zm13.861-19.626h-2.1a7.886 7.886 0 00-4.752 1.049 3.193 3.193 0 00-1.338 2.624 2.91 2.91 0 001.575 2.624 9.093 9.093 0 004.279.84h2.336v-7.137zm26.619 19.626l8.794-11.938-7.691-10.915h4.751l5.434 7.74 5.566-7.74h4.751l-8.007 10.915 8.401 11.938h-4.778l-6.09-8.737-6.353 8.737h-4.778zm59.748-19.547h-6.379v19.547h-4.279v-19.547h-6.379v-3.306h17.037v3.306zm54.866-3.306v9.104l10.789-9.104h5.592l-12.575 10.337 12.653 12.516h-5.67l-9.949-10.154-.84.708v9.446h-4.253V98.239h4.253zm42.92 0h17.799v22.853h-4.279v-19.547h-9.267v11.361c.063.873.063 1.75 0 2.623a7.257 7.257 0 01-.761 2.283 5.64 5.64 0 01-1.864 2.073 8.853 8.853 0 01-5.067 1.364c-.625 0-1.25-.061-1.863-.184v-3.227c.506.129 1.026.2 1.548.21a3.782 3.782 0 002.625-.787c.492-.405.842-.957.998-1.574.18-.553.295-1.126.341-1.706v-2.125l-.21-13.617zm40.086 0h5.172l7.324 11.859 6.379-11.86h4.436l-12.574 22.854h-4.436l3.754-6.822-10.055-16.031zm45.599 22.826V98.239h13.939v3.306h-9.687v5.903h2.757c2.46-.144 4.903.489 6.983 1.811a5.875 5.875 0 012.625 5.037 5.978 5.978 0 01-.893 3.149 6.932 6.932 0 01-2.625 2.414 12.868 12.868 0 01-6.09 1.206h-7.009zm4.252-10.337v7.058h2.625c3.728 0 5.592-1.155 5.592-3.464a3.28 3.28 0 00-1.234-2.623 6.804 6.804 0 00-4.279-1.05l-2.704.079z" fill="#fff"/></svg>