<svg width="178" height="40" fill="none" xmlns="http://www.w3.org/2000/svg"><path d="M15.517 20.064H6.58l-1.337 3.407H0L8.721 1.893h4.655l8.722 21.578h-5.244l-1.337-3.407zm-7.224-4.272h5.511l-2.568-6.49-.16-.703h-.054l-.16.703-2.569 6.49z" fill="#DEE2E6"/><path d="M21.937 1.19h4.869v22.335h-4.869V1.19zm5.779 14.115c0-1.19.214-2.325.642-3.407A7.619 7.619 0 0130.23 9.14a10.444 10.444 0 012.836-1.893c1.124-.433 2.3-.703 3.639-.703 1.337 0 2.568.216 3.691.703 1.124.487 2.087 1.082 2.89 1.893.802.811 1.444 1.73 1.872 2.758a9.176 9.176 0 01.642 3.407c0 .325 0 .595-.053.811 0 .217-.054.379-.107.595H32.638c.107.541.321.974.589 1.406.267.433.588.757.963 1.028.374.27.749.54 1.177.649.428.162.856.216 1.338.216.749 0 1.444-.162 1.98-.487.588-.324 1.016-.757 1.283-1.244h5.244c-.214.704-.589 1.407-1.124 2.11-.481.703-1.123 1.298-1.819 1.838-.695.541-1.552.974-2.515 1.298a9.58 9.58 0 01-3.103.487c-1.338 0-2.568-.216-3.638-.703-1.124-.433-2.034-1.082-2.836-1.893-.803-.811-1.391-1.73-1.873-2.758a9.803 9.803 0 01-.588-3.353zm9.042-4.65c-.856 0-1.605.215-2.3.702a4.016 4.016 0 00-1.499 1.893h7.651a4.428 4.428 0 00-.642-1.082c-.267-.324-.535-.595-.91-.81-.32-.217-.695-.38-1.07-.542a4.812 4.812 0 00-1.23-.162z" fill="#DEE2E6"/><path d="M50.242 18.333c.053.487.32.92.749 1.19.481.325 1.07.433 1.766.433.91 0 1.605-.108 1.98-.379.427-.216.588-.595.588-1.027a.9.9 0 00-.268-.65 2.544 2.544 0 00-.856-.432 16.579 16.579 0 00-1.337-.324c-.535-.109-1.124-.217-1.873-.379-.321-.054-.642-.162-1.017-.216a9.16 9.16 0 01-1.123-.379c-.375-.162-.75-.324-1.07-.595a3.425 3.425 0 01-.91-.865c-.268-.325-.482-.757-.642-1.19-.16-.487-.214-1.027-.214-1.676 0-.812.16-1.569.428-2.272.32-.649.749-1.244 1.338-1.676.588-.433 1.39-.811 2.3-1.082.91-.27 1.98-.378 3.264-.378 1.017 0 1.926.108 2.729.378.802.27 1.498.65 2.087 1.136a4.431 4.431 0 011.284 1.73c.32.65.428 1.406.428 2.218h-4.87c-.053-.379-.213-.757-.588-1.028-.32-.27-.856-.432-1.444-.432-.75 0-1.285.162-1.66.432-.374.27-.534.595-.534.974a.92.92 0 00.16.54c.107.163.321.27.589.379.267.108.588.162.963.27.375.055.856.163 1.445.217a32.88 32.88 0 012.46.54c.75.217 1.446.487 2.034.866.589.378 1.07.865 1.391 1.406.321.54.535 1.352.535 2.217 0 .974-.214 1.839-.588 2.542a5.08 5.08 0 01-1.605 1.785c-.696.486-1.499.811-2.462 1.027-.963.217-2.033.325-3.157.325-1.23 0-2.354-.162-3.21-.487-.856-.324-1.605-.757-2.194-1.298-.588-.54-1.016-1.136-1.284-1.839-.267-.703-.428-1.352-.428-2.055l4.816.054zM61.21 1.19h4.87v12.87l5.404-6.976h5.671l-5.457 6.868 5.992 9.572h-5.778l-3.692-6.381-2.14 2.542v3.84h-4.87V1.19z" fill="#DEE2E6"/><path d="M75.496 15.305c0-1.19.214-2.325.642-3.407a7.618 7.618 0 011.873-2.758 10.442 10.442 0 012.836-1.893c1.123-.433 2.3-.703 3.638-.703s2.568.216 3.692.703c1.123.487 2.087 1.082 2.89 1.893.802.811 1.444 1.73 1.872 2.758a9.176 9.176 0 01.642 3.407c0 .325 0 .595-.053.811 0 .217-.054.379-.108.595h-13c.107.541.32.974.588 1.406.268.433.589.757.963 1.028.375.27.75.54 1.177.649.428.162.856.216 1.338.216.75 0 1.445-.162 1.98-.487.588-.324 1.016-.757 1.284-1.244h5.243c-.214.704-.588 1.407-1.123 2.11-.482.703-1.124 1.298-1.82 1.838-.695.541-1.551.974-2.514 1.298a9.58 9.58 0 01-3.103.487c-1.338 0-2.569-.216-3.639-.703-1.124-.433-2.033-1.082-2.836-1.893-.802-.811-1.39-1.73-1.872-2.758a9.8 9.8 0 01-.589-3.353zm9.043-4.65c-.857 0-1.606.215-2.301.702a4.016 4.016 0 00-1.498 1.893h7.65a4.428 4.428 0 00-.641-1.082c-.268-.324-.535-.595-.91-.81-.32-.217-.695-.38-1.07-.542a4.518 4.518 0 00-1.23-.162zm21.027.648h-2.033c-1.337 0-2.354.379-3.103 1.136-.75.757-1.124 1.893-1.124 3.407v7.625h-4.815V7.031h3.906l.374 1.568c.535-.433 1.177-.811 1.926-1.136.749-.27 1.606-.432 2.622-.432h2.301v4.272h-.054zm-.642 4.002c0-1.19.214-2.325.642-3.407a7.613 7.613 0 011.873-2.758 10.453 10.453 0 012.836-1.893c1.07-.487 2.354-.703 3.692-.703 1.337 0 2.568.216 3.692.703 1.123.487 2.086 1.082 2.889 1.893.803.811 1.445 1.73 1.873 2.758.428 1.027.642 2.217.642 3.407s-.214 2.326-.642 3.407a7.614 7.614 0 01-1.873 2.758 9.971 9.971 0 01-2.889 1.893c-1.124.487-2.355.703-3.692.703-1.338 0-2.515-.216-3.639-.703-1.123-.487-2.033-1.081-2.835-1.893-.803-.81-1.392-1.73-1.873-2.758-.482-1.027-.696-2.217-.696-3.407zm4.816-.054c0 .703.107 1.298.321 1.839.214.54.535 1.027.909 1.46a4.57 4.57 0 001.338.92 4.32 4.32 0 001.659.324c.588 0 1.123-.108 1.658-.325.535-.216.964-.54 1.338-.92a3.97 3.97 0 00.91-1.46c.214-.54.321-1.189.321-1.892 0-.65-.107-1.298-.321-1.839a4.227 4.227 0 00-.91-1.406 3.947 3.947 0 00-1.338-.92 4.317 4.317 0 00-1.658-.324c-.589 0-1.124.108-1.659.325-.535.216-.963.54-1.338.919a4.24 4.24 0 00-.909 1.406c-.214.541-.321 1.244-.321 1.893z" fill="#DEE2E6"/><path d="M125.203 11.249h-2.996V7.03h2.996v-.595c0-.758.107-1.515.267-2.272.215-.757.536-1.46.964-2.055.481-.595 1.07-1.136 1.819-1.514.749-.379 1.712-.595 2.889-.595h3.264v4.002h-2.087c-.428 0-.802.054-1.07.216a1.74 1.74 0 00-.695.541c-.161.216-.322.487-.375.811a5.966 5.966 0 00-.107.974v.54h4.334v4.219h-4.334v12.222h-4.869V11.25z" fill="#DEE2E6"/><path d="M136.118 11.25h-2.996V7.03h2.996v-.594c0-.757.107-1.514.267-2.272.214-.757.535-1.46.964-2.055.481-.594 1.07-1.135 1.819-1.514.749-.378 1.712-.595 2.889-.595h3.264v4.002h-2.087c-.428 0-.802.054-1.07.217a1.742 1.742 0 00-.696.54c-.16.217-.321.487-.374.812a5.966 5.966 0 00-.107.973v.54h4.334v4.22h-4.334v12.222h-4.869V11.249zm25.361.053h-2.033c-1.337 0-2.354.379-3.103 1.136-.749.757-1.124 1.893-1.124 3.407v7.626h-4.815V7.03h3.906l.374 1.568c.535-.432 1.177-.81 1.926-1.135.75-.27 1.606-.433 2.622-.433h2.301v4.272h-.054z" fill="#DEE2E6"/><path d="M169.613 19.794c.535 0 1.016-.055 1.444-.217.428-.162.803-.378 1.07-.703.322-.324.536-.757.696-1.298.161-.54.268-1.19.268-2v-8.6h4.869v8.762c0 1.514-.214 2.758-.642 3.785-.429 1.028-1.017 1.893-1.766 2.542a6.495 6.495 0 01-2.622 1.406 12.958 12.958 0 01-6.635 0 6.498 6.498 0 01-2.621-1.406c-.749-.649-1.338-1.514-1.766-2.542-.428-1.027-.642-2.325-.642-3.785V6.976h4.869v8.6c0 .756.053 1.46.214 1.946.16.54.374.974.695 1.298.321.325.643.54 1.071.703.481.216.963.27 1.498.27zm-21.51-1.19h-4.815v4.867h4.815v-4.867zM94.585 34.646c0-.432.053-.811.214-1.19.16-.378.321-.703.588-.973.268-.27.59-.487.91-.65.375-.161.803-.215 1.23-.215.322 0 .643.054.91.162.268.108.482.216.696.378v-2.38h1.659v7.68h-1.445l-.107-.486a9.116 9.116 0 01-.75.486c-.267.163-.641.217-.962.217-.482 0-.856-.054-1.23-.217a3.033 3.033 0 01-.964-.649 2.266 2.266 0 01-.588-.973 4.26 4.26 0 01-.161-1.19zm1.659 0c0 .216.053.433.107.65.053.215.16.378.32.486.161.162.268.27.482.324.214.054.375.108.589.108.214 0 .374-.054.588-.108.16-.054.321-.162.482-.324.16-.162.267-.325.32-.487.054-.216.108-.433.108-.649 0-.216-.054-.432-.107-.649a.788.788 0 00-.321-.487c-.16-.162-.268-.216-.482-.324a1.904 1.904 0 00-.588-.108c-.214 0-.428.054-.589.108-.16.054-.32.162-.481.324l-.321.487c-.054.217-.107.433-.107.65zm7.009-2.812h-1.659v5.679h1.659v-5.679zm.535 2.812c0-.433.053-.811.214-1.19.16-.378.321-.703.588-.973a3.06 3.06 0 01.964-.65c.374-.161.802-.216 1.23-.216.214 0 .375 0 .535.055l.482.162c.16.054.267.108.428.216.107.054.267.162.321.27l.107-.486h1.337v5.246c0 .432-.053.81-.214 1.19-.16.378-.321.648-.588.919-.268.27-.589.432-.963.595-.375.162-.803.216-1.284.216a4.68 4.68 0 01-.91-.108 2.094 2.094 0 01-.696-.27c-.16-.109-.374-.217-.535-.38a2.992 2.992 0 01-.374-.486 1.619 1.619 0 01-.214-.54c-.054-.217-.107-.38-.107-.541h1.605l.161.324c.053.108.16.162.267.27.107.109.214.109.375.163.16.054.321.054.481.054.268 0 .535-.054.696-.162.16-.109.321-.217.428-.38.107-.161.16-.27.214-.432.053-.162.053-.324.053-.432v-.163a3.39 3.39 0 01-.749.433c-.267.108-.642.162-1.016.162-.428 0-.803-.054-1.177-.216-.375-.162-.643-.325-.91-.595-.268-.27-.428-.595-.589-.92a3.632 3.632 0 01-.16-1.135zm1.659 0c0 .216.053.433.107.649.053.216.16.378.321.487.16.162.267.216.481.324.161.054.375.108.589.108.214 0 .374-.054.588-.108.161-.054.321-.162.482-.324l.321-.487c.053-.216.107-.433.107-.649 0-.216-.054-.433-.107-.649a.792.792 0 00-.321-.487c-.161-.162-.268-.216-.482-.324a1.898 1.898 0 00-.588-.108 1.91 1.91 0 00-.589.108 1.26 1.26 0 00-.481.324l-.321.487c-.054.216-.107.433-.107.649zm7.009-2.812h-1.659v5.679h1.659v-5.679zm1.605-1.569h1.177v1.569h1.605v1.46h-1.605v2c0 .163 0 .325.054.433.053.109.107.217.16.27.054.055.161.109.268.163.107 0 .214.054.321.054h.909v1.406h-1.07c-.321 0-.588-.054-.909-.108a1.589 1.589 0 01-.749-.325 1.374 1.374 0 01-.482-.703 3.632 3.632 0 01-.16-1.135v-2.001h-.91V32.05l.856-.325.535-1.46zm2.996 4.381c0-.433.054-.811.214-1.19.161-.378.321-.703.589-.973.267-.27.588-.487.963-.65.374-.161.802-.216 1.23-.216.375 0 .696.055 1.017.163.321.108.535.27.749.432l.054-.432h1.444v5.678h-1.444l-.054-.432a3.39 3.39 0 01-.749.432c-.267.108-.642.162-1.017.162-.481 0-.856-.054-1.23-.216a3.022 3.022 0 01-.963-.649 2.264 2.264 0 01-.589-.973c-.16-.325-.214-.703-.214-1.136zm1.659 0c0 .216.053.433.107.649.053.216.16.378.321.487.16.162.267.216.481.324.161.054.375.108.589.108.214 0 .375-.054.589-.108.16-.054.321-.162.481-.324.161-.163.268-.325.321-.487.054-.216.107-.433.107-.649 0-.216-.053-.433-.107-.649a.784.784 0 00-.321-.487c-.16-.162-.267-.216-.481-.324a1.91 1.91 0 00-.589-.108 1.91 1.91 0 00-.589.108 1.26 1.26 0 00-.481.324l-.321.487c-.054.216-.107.433-.107.649zm5.35-4.867h1.659v7.68h-1.659v-7.68zm4.281-1.19h1.605v10.978h-1.605V28.59zm10.487 6.057c0 .433-.054.811-.214 1.19-.161.379-.321.703-.589.973-.267.27-.588.487-.963.65-.374.162-.802.216-1.23.216-.161 0-.375 0-.535-.054-.161-.055-.321-.055-.482-.163a1.61 1.61 0 01-.428-.216 1.684 1.684 0 01-.321-.216l-.053.432h-1.445v-7.68h1.659v2.38a2.88 2.88 0 01.695-.378c.268-.108.589-.162.91-.162.481 0 .856.054 1.23.216.375.162.696.378.91.649.214.27.428.595.588.973.161.379.268.758.268 1.19zm-1.659 0c0-.216-.053-.432-.107-.649a.784.784 0 00-.321-.487c-.107-.162-.267-.216-.481-.324a1.91 1.91 0 00-.589-.108c-.214 0-.374.054-.588.108a1.264 1.264 0 00-.482.324 1.29 1.29 0 00-.321.487c-.053.217-.107.379-.107.65 0 .215.054.432.107.648a.792.792 0 00.321.487c.161.162.268.216.482.324.214.108.374.108.588.108.214 0 .375-.054.589-.108.214-.054.321-.162.481-.324.161-.162.268-.325.321-.487.054-.216.107-.433.107-.649zm5.94-1.352h-.696c-.482 0-.803.108-1.07.379-.268.27-.375.649-.375 1.19v2.65h-1.658v-5.679h1.337l.107.54c.161-.161.375-.27.642-.378a2.29 2.29 0 01.91-.162h.803v1.46zm-.107 1.352c0-.433.053-.811.214-1.19.16-.378.321-.703.588-.973.268-.27.589-.487.963-.65.375-.161.803-.216 1.231-.216.375 0 .696.055 1.017.163.321.108.535.27.749.432l.053-.432h1.445v5.678h-1.445l-.053-.432a3.413 3.413 0 01-.749.432c-.268.108-.642.162-1.017.162-.482 0-.856-.054-1.231-.216a3.045 3.045 0 01-.963-.649 2.271 2.271 0 01-.588-.973c-.161-.325-.214-.703-.214-1.136zm1.658 0c0 .216.054.433.107.649a.792.792 0 00.321.487c.161.162.268.216.482.324.16.054.375.108.589.108.214 0 .374-.054.588-.108.161-.054.321-.162.482-.324a1.29 1.29 0 00.321-.487c.053-.216.107-.433.107-.649 0-.216-.054-.433-.107-.649a.792.792 0 00-.321-.487c-.161-.162-.268-.216-.482-.324a1.898 1.898 0 00-.588-.108c-.214 0-.429.054-.589.108a1.263 1.263 0 00-.482.324l-.321.487c-.053.216-.107.433-.107.649zm11.129 2.812h-1.659v-2.975c0-.27-.053-.486-.106-.649-.054-.162-.108-.324-.215-.432a.862.862 0 00-.374-.217c-.161-.054-.268-.054-.428-.054-.214 0-.375.054-.535.108a.83.83 0 00-.428.325c-.107.162-.214.325-.268.487-.053.216-.107.378-.107.595v2.866h-1.658v-5.679h1.337l.107.433c.107-.054.268-.162.375-.216.107-.054.267-.162.428-.217.16-.054.321-.108.481-.108.161-.054.321-.054.482-.054.428 0 .856.054 1.177.216.321.163.589.325.803.541.214.217.374.541.428.866.107.324.16.757.16 1.19v2.974zm.321-2.812c0-.432.054-.811.214-1.19.161-.378.321-.703.589-.973.267-.27.588-.487.909-.65.375-.161.803-.215 1.231-.215.321 0 .642.054.91.162.267.108.481.216.695.378v-2.38h1.659v7.68h-1.445l-.107-.486a9.032 9.032 0 01-.749.486c-.267.108-.642.217-.963.217-.482 0-.856-.054-1.231-.217a3.045 3.045 0 01-.963-.649 2.27 2.27 0 01-.588-.973c-.054-.379-.161-.757-.161-1.19zm1.712 0c0 .216.054.433.107.65a.792.792 0 00.321.486c.161.162.268.27.482.324.161.054.375.108.589.108.214 0 .374-.054.588-.108.214-.054.321-.162.482-.324a1.29 1.29 0 00.321-.487c.053-.216.107-.433.107-.649 0-.216-.054-.432-.107-.649a.792.792 0 00-.321-.487c-.161-.162-.268-.216-.482-.324-.214-.108-.374-.108-.588-.108a1.91 1.91 0 00-.589.108 1.264 1.264 0 00-.482.324l-.321.487c-.107.217-.107.433-.107.65zm7.01-2.812h-1.659v5.679h1.659v-5.679zm6.635 5.624h-1.659v-2.975c0-.27-.053-.486-.107-.649-.053-.162-.107-.324-.214-.432a.86.86 0 00-.375-.217c-.16-.054-.267-.054-.428-.054-.214 0-.374.054-.535.108a.835.835 0 00-.428.325c-.107.162-.214.325-.267.487-.054.216-.107.378-.107.595v2.866h-1.659v-5.679h1.338l.107.433c.107-.054.267-.162.374-.216.107-.054.268-.162.428-.217.161-.054.321-.108.482-.108.16-.054.321-.054.481-.054.429 0 .857.054 1.178.216.321.163.588.325.802.541.214.217.375.541.428.866.107.324.161.757.161 1.19v2.974zm.32-2.812c0-.433.054-.811.214-1.19.161-.378.321-.703.589-.973.267-.27.589-.487.963-.65.375-.161.803-.216 1.231-.216.214 0 .374 0 .535.055l.481.162c.161.054.268.108.428.216.107.054.268.162.321.27l.107-.486H178v5.246c0 .432-.054.81-.214 1.19-.161.378-.321.648-.589.919-.267.27-.588.432-.963.595-.374.162-.802.216-1.284.216a4.66 4.66 0 01-.909-.108 2.085 2.085 0 01-.696-.27c-.161-.109-.375-.217-.535-.38a2.946 2.946 0 01-.375-.486c-.107-.162-.16-.324-.214-.54-.053-.217-.107-.38-.107-.541h1.606l.16.324c.054.108.161.162.268.27.107.109.214.109.374.163.161.054.321.054.482.054.267 0 .535-.054.695-.162.161-.109.321-.217.428-.38.107-.161.161-.27.214-.432.054-.162.054-.324.054-.432v-.163a3.412 3.412 0 01-.749.433c-.268.108-.642.162-1.017.162-.428 0-.802-.054-1.177-.216s-.642-.325-.91-.595c-.267-.27-.428-.595-.588-.92a3.631 3.631 0 01-.161-1.135zm1.659 0c0 .216.054.433.107.649a.792.792 0 00.321.487c.161.162.268.216.482.324.16.054.374.108.588.108.214 0 .375-.054.589-.108.16-.054.321-.162.481-.324l.321-.487c.054-.216.107-.433.107-.649 0-.216-.053-.433-.107-.649a.784.784 0 00-.321-.487c-.16-.162-.267-.216-.481-.324a1.91 1.91 0 00-.589-.108c-.214 0-.428.054-.588.108a1.263 1.263 0 00-.482.324l-.321.487c-.053.216-.107.433-.107.649zm-70.146-4.867h-1.658v1.676h1.658V29.78zm9.15 0h-1.659v1.676h1.659V29.78zm52.382 0h-1.659v1.676h1.659V29.78z" fill="#DEE2E6"/></svg>