<svg width="28" height="28" fill="none" xmlns="http://www.w3.org/2000/svg"><path d="M27.307 8.507c-.062-1.417-.291-2.391-.62-3.235a6.508 6.508 0 00-1.542-2.365 6.562 6.562 0 00-2.36-1.537c-.848-.328-1.817-.557-3.234-.62C18.123.682 17.67.667 14.05.667c-3.621 0-4.074.015-5.496.078-1.417.062-2.391.292-3.235.62a6.507 6.507 0 00-2.365 1.542 6.566 6.566 0 00-1.537 2.36c-.328.849-.557 1.818-.62 3.235-.068 1.427-.083 1.88-.083 5.5 0 3.621.015 4.074.078 5.496.062 1.418.292 2.392.62 3.236a6.575 6.575 0 001.542 2.365 6.564 6.564 0 002.36 1.536c.849.329 1.817.558 3.235.62 1.422.063 1.875.078 5.495.078s4.074-.015 5.496-.078c1.417-.062 2.391-.291 3.235-.62a6.82 6.82 0 003.902-3.901c.328-.85.558-1.819.62-3.236.062-1.422.078-1.875.078-5.495s-.005-4.074-.068-5.496zm-2.401 10.887c-.057 1.303-.276 2.006-.458 2.475a4.424 4.424 0 01-2.532 2.532c-.47.182-1.178.4-2.475.458-1.406.063-1.828.078-5.386.078s-3.985-.015-5.387-.078c-1.302-.057-2.005-.276-2.474-.458a4.102 4.102 0 01-1.532-.995 4.147 4.147 0 01-.995-1.532c-.182-.469-.4-1.177-.458-2.474-.063-1.407-.078-1.829-.078-5.387s.015-3.985.078-5.386c.057-1.303.276-2.006.458-2.475a4.053 4.053 0 011-1.531A4.14 4.14 0 016.2 3.626c.469-.183 1.178-.401 2.475-.459 1.406-.062 1.828-.078 5.386-.078 3.563 0 3.985.016 5.386.078 1.303.058 2.006.276 2.475.459a4.1 4.1 0 011.531.995c.443.432.782.953.995 1.531.183.47.402 1.177.459 2.475.062 1.406.078 1.828.078 5.386s-.016 3.975-.078 5.381z" fill="#2D2A26"/><path d="M14.05 7.152a6.852 6.852 0 00-6.85 6.85 6.852 6.852 0 006.85 6.851 6.852 6.852 0 006.85-6.85 6.852 6.852 0 00-6.85-6.85zm0 11.294a4.444 4.444 0 11.001-8.888 4.444 4.444 0 01-.002 8.888zm8.72-11.564a1.6 1.6 0 11-3.199 0 1.6 1.6 0 013.2 0z" fill="#2D2A26"/></svg>