<svg width="260" height="71" fill="none" xmlns="http://www.w3.org/2000/svg"><path d="M50.19 70.221c-3.54-.367-7.104-.545-10.34-2.116-.908-.446-1.76-1-2.537-1.647l2.88-5.26h1.764v-4.612H34.7a6.174 6.174 0 011.966-2.193l.42-.266c.676-.334 1.28-.8 1.775-1.369a1.178 1.178 0 00-.304-1.761l-.419-.266c-.859-.476-1.77-.85-2.715-1.115l-.533-.152a19.152 19.152 0 00-1.928-.355l-3.68-33.937h1.764v-3.168H26.34V8.797a5.067 5.067 0 001.332-2.674h1.103v3.042h2.297V1.333h-2.297V4.4h-1.103a5.067 5.067 0 00-1.687-3.145A5.078 5.078 0 0017.61 4.4h-1.116V1.333h-2.296v7.832h2.296V6.123h1.116a5.067 5.067 0 001.37 2.712v3.206h-4.706v3.169h1.776l-4.504 41.414H3.364v4.612h1.764l1.94 3.536v.621l-.063.063a19.993 19.993 0 01-5.531 3.688c-2.042.887-1.966 1.267.254.596a20.46 20.46 0 006.14-3.32c3.717-2.84 6.762-6.197 10.15-8.795.837-.672 1.7-1.267 2.537-1.85.83-.525 1.7-.986 2.6-1.382a12.177 12.177 0 015.38-1.267c2.625 0 2.79 1.825 2.537 3.574v.063c-.21.948-.3 1.919-.267 2.89a10.765 10.765 0 002.906 6.906 13.565 13.565 0 005.67 3.346 36.13 36.13 0 0010.606 1.051c2.119 0 3.68-.279.114-.659l.09-.076zm-31.209-55.05h7.32L28.015 31h-10.81l1.776-15.828zm9.008 34.04a18.889 18.889 0 00-6.407 2.318 28.016 28.016 0 00-5.34 4.17l-.914.9h-.85l1.268-11.685h13.778l.444 4.093c-.66 0-1.269.102-1.98.203zM69.905 14.17v-1.786h5.265v1.787h2.106a10.323 10.323 0 013.35.506c.93.31 1.79.796 2.536 1.432a6.11 6.11 0 012.182 4.69v.684a6.015 6.015 0 01-1.902 4.714 8.037 8.037 0 01-5.544 1.71H75.27v3.93h-5.544v-3.93h-2.651a7.999 7.999 0 01-5.468-1.723 6.006 6.006 0 01-1.903-4.701v-.685a6.002 6.002 0 01.99-3.333 6.72 6.72 0 012.854-2.407 9.84 9.84 0 014.275-.887h2.081zm-.127 2.636h-1.37a3.161 3.161 0 00-1.966.647 3.801 3.801 0 00-1.27 1.634 5.215 5.215 0 00-.43 2.117c-.029.989.28 1.959.875 2.75a2.98 2.98 0 002.537 1.14h1.675l-.05-8.288zm7.041 0h-1.497v8.326h1.637a2.984 2.984 0 001.84-.545 3.371 3.371 0 001.128-1.47 5.03 5.03 0 00.38-1.964 5.267 5.267 0 00-.405-2.066 3.878 3.878 0 00-1.205-1.622c-.54-.41-1.2-.63-1.878-.62m22.912-4.461h5.392l5.658 15.207 1.573 4.245h-6.064l-2.106-5.627h-6.343l-1.852 5.64h-3.045l5.303-15.207 1.484-4.258zm1.193 4.701l-2.36 6.54h4.681l-2.321-6.54zm20.006-4.701h9.185a8.128 8.128 0 013.908.874 5.81 5.81 0 012.436 2.269 5.92 5.92 0 01.812 2.952 5.66 5.66 0 01-.394 2.053 5.362 5.362 0 01-1.205 1.825 5.53 5.53 0 01-1.992 1.267 7.223 7.223 0 01-2.651.457h-4.72v7.73h-5.391V12.384h.012zm5.379 2.61v6.337h1.878a2.845 2.845 0 001.624-.47 2.983 2.983 0 001.053-1.267 3.662 3.662 0 00.368-1.609 3.041 3.041 0 00-.837-2.154 3.192 3.192 0 00-2.449-.887l-1.637.05zm19.88-2.61h8.183c1.913-.12 3.822.287 5.519 1.178a4.887 4.887 0 012.232 3.523v.685a3.958 3.958 0 01-.837 2.534 5.63 5.63 0 01-2.727 1.648 6.143 6.143 0 013.438 2.306c.539.936.815 2 .799 3.08.004.5-.096.996-.292 1.457a3.694 3.694 0 01-.837 1.191 5.373 5.373 0 01-2.538 1.407c-.508.135-1.025.237-1.547.304a11.24 11.24 0 01-1.65.101H146.1V12.384h.089zm5.379 8.224h2.36a2.262 2.262 0 001.839-.773 2.71 2.71 0 00.66-1.85c0-.506-.117-1.004-.342-1.457a2.828 2.828 0 00-1.028-1.128 2.922 2.922 0 00-1.611-.431h-1.878v5.64zm0 8.643h1.878a3.554 3.554 0 002.537-.811 2.537 2.537 0 00.863-1.952 3.1 3.1 0 00-.444-1.571 3.34 3.34 0 00-1.332-1.267 4.179 4.179 0 00-2.081-.495h-1.408l-.013 6.096zm25.17-16.867h5.392l5.658 15.207 1.599 4.245h-6.064l-2.106-5.627h-6.343l-1.878 5.64h-3.045l5.303-15.207 1.484-4.258zm1.193 4.701l-2.36 6.54h4.682l-2.322-6.54zm18.218-4.701h16.162v2.826h-5.379v16.626h-5.392V15.21h-5.391v-2.825zm25.195 0h12.408v2.826h-6.788v5.386h6.559v2.826h-6.559v5.613h7.029v2.801h-12.649V12.384zm22.354 0h9.147a8.127 8.127 0 013.907.874 5.81 5.81 0 012.436 2.269 5.92 5.92 0 01.812 2.952 5.68 5.68 0 01-.393 2.053 5.367 5.367 0 01-1.269 1.825 5.53 5.53 0 01-1.992 1.267 7.223 7.223 0 01-2.651.457h-4.669v7.73h-5.392V12.384h.064zm5.392 2.534v6.337h1.877a2.842 2.842 0 001.624-.47 2.982 2.982 0 001.053-1.267 3.662 3.662 0 00.368-1.609 3.042 3.042 0 00-.837-2.154 3.192 3.192 0 00-2.449-.887l-1.636.05zM66.81 58.486l3.996-4.6a4.203 4.203 0 01-2.08-.747 2.7 2.7 0 01-1.155-2.345 2.91 2.91 0 011.027-2.293 3.63 3.63 0 011.269-.735c.41-.144.836-.238 1.269-.28h4.427v11.039h-2.055v-4.423h-.482l-3.68 4.423-2.536-.038zm6.698-9.479h-1.015a3.81 3.81 0 00-2.296.507 1.547 1.547 0 00-.647 1.268 1.406 1.406 0 00.761 1.267 4.4 4.4 0 002.068.405h1.13v-3.447zm12.864 9.48l4.25-5.767-3.717-5.271h2.296l2.627 3.738 2.69-3.738h2.295l-3.869 5.272 4.06 5.766h-2.31l-2.943-4.22-3.07 4.22h-2.309zm28.875-9.442h-3.083v9.442h-2.068v-9.442h-3.083V47.45h8.234v1.596zm26.515-1.596v4.397l5.214-4.397h2.702l-6.077 4.993 6.115 6.045h-2.74l-4.808-4.905-.406.342v4.563h-2.055V47.449h2.055zm20.742 0h8.602v11.038h-2.068v-9.442h-4.479v5.488c.031.422.031.845 0 1.267a3.5 3.5 0 01-.368 1.103 2.72 2.72 0 01-.9 1 4.281 4.281 0 01-2.449.66c-.302 0-.604-.03-.901-.09v-1.558c.245.063.496.096.749.102.455.036.908-.1 1.269-.38.237-.196.406-.463.482-.761.087-.267.142-.544.165-.824v-1.026l-.102-6.577zm19.372 0h2.5l3.539 5.728 3.083-5.728h2.144l-6.077 11.038h-2.144l1.814-3.295-4.859-7.743zm22.037 11.025V47.449h6.736v1.596h-4.681v2.852h1.332a5.677 5.677 0 013.375.874 2.84 2.84 0 011.268 2.433 2.878 2.878 0 01-.431 1.521 3.347 3.347 0 01-1.269 1.166 6.22 6.22 0 01-2.943.583h-3.387zm2.055-4.993v3.409h1.269c1.801 0 2.702-.558 2.702-1.673a1.59 1.59 0 00-.596-1.267 3.29 3.29 0 00-2.068-.507l-1.307.038z" fill="#1F284F"/></svg>